<svg width="167" height="112" viewBox="0 0 167 112" fill="none" xmlns="http://www.w3.org/2000/svg">
<g filter="url(#filter0_d_63_33605)">
<path d="M74.2 83.3L73.4929 82.5929H73.4929L74.2 83.3ZM24.7 83.3L23.9855 83.9996L23.9929 84.0071L24.0004 84.0145L24.7 83.3ZM24.7 20.8L23.9929 20.0929H23.9929L24.7 20.8ZM74.2 20.8L73.4855 21.4996L73.4929 21.5071L73.5004 21.5145L74.2 20.8ZM62 36C62 33.8459 61.4608 32.0466 60.2071 30.7929C58.9534 29.5392 57.1541 29 55 29V31C56.8459 31 58.0466 31.4608 58.7929 32.2071C59.5392 32.9534 60 34.1541 60 36H62ZM55 29H44V31H55V29ZM44 29C41.8459 29 40.0466 29.5392 38.7929 30.7929C37.5392 32.0466 37 33.8459 37 36H39C39 34.1541 39.4608 32.9534 40.2071 32.2071C40.9534 31.4608 42.1541 31 44 31V29ZM37 36V68H39V36H37ZM37 68C37 70.1541 37.5392 71.9534 38.7929 73.2071C40.0466 74.4608 41.8459 75 44 75V73C42.1541 73 40.9534 72.5392 40.2071 71.7929C39.4608 71.0466 39 69.8459 39 68H37ZM44 75H55V73H44V75ZM55 75C57.1541 75 58.9534 74.4608 60.2071 73.2071C61.4608 71.9534 62 70.1541 62 68H60C60 69.8459 59.5392 71.0466 58.7929 71.7929C58.0466 72.5392 56.8459 73 55 73V75ZM62 68V36H60V68H62ZM78 68C78 74.8763 76.4246 79.6611 73.4929 82.5929L74.9071 84.0071C78.3754 80.5389 80 75.1237 80 68H78ZM73.4929 82.5929C70.6311 85.4547 65.8835 87 59 87V89C66.1165 89 71.5023 87.4119 74.9071 84.0071L73.4929 82.5929ZM59 87H40V89H59V87ZM40 87C33.1189 87 28.3309 85.4557 25.3996 82.5855L24.0004 84.0145C27.4691 87.4109 32.8811 89 40 89V87ZM25.4145 82.6004C22.5443 79.6691 21 74.8811 21 68H19C19 75.1189 20.5891 80.5309 23.9855 83.9996L25.4145 82.6004ZM21 68V36H19V68H21ZM21 36C21 29.1165 22.5453 24.3689 25.4071 21.5071L23.9929 20.0929C20.588 23.4977 19 28.8835 19 36H21ZM25.4071 21.5071C28.3389 18.5753 33.1237 17 40 17V15C32.8763 15 27.4611 16.6246 23.9929 20.0929L25.4071 21.5071ZM40 17H59V15H40V17ZM59 17C65.8787 17 70.6231 18.5763 73.4855 21.4996L74.9145 20.1004C71.5102 16.6236 66.1213 15 59 15V17ZM73.5004 21.5145C76.4237 24.3769 78 29.1213 78 36H80C80 28.8787 78.3764 23.4898 74.8996 20.0855L73.5004 21.5145ZM78 36V68H80V36H78ZM121.992 73H122.992V72H121.992V73ZM84.9922 73H83.9922V74H84.9922V73ZM84.9922 59L84.1239 58.5039L83.9922 58.7344V59H84.9922ZM108.992 17V16H108.412L108.124 16.5039L108.992 17ZM128.992 17L129.86 17.4961L130.715 16H128.992V17ZM104.992 59L104.124 58.5039L103.269 60H104.992V59ZM121.992 59V60H122.992V59H121.992ZM121.992 44V43H120.992V44H121.992ZM139.992 44H140.992V43H139.992V44ZM139.992 59H138.992V60H139.992V59ZM146.992 59H147.992V58H146.992V59ZM146.992 73V74H147.992V73H146.992ZM139.992 73V72H138.992V73H139.992ZM139.992 87V88H140.992V87H139.992ZM121.992 87H120.992V88H121.992V87ZM121.992 72H84.9922V74H121.992V72ZM85.9922 73V59H83.9922V73H85.9922ZM85.8604 59.4961L109.86 17.4961L108.124 16.5039L84.1239 58.5039L85.8604 59.4961ZM108.992 18H128.992V16H108.992V18ZM128.124 16.5039L104.124 58.5039L105.86 59.4961L129.86 17.4961L128.124 16.5039ZM104.992 60H121.992V58H104.992V60ZM122.992 59V44H120.992V59H122.992ZM121.992 45H139.992V43H121.992V45ZM138.992 44V59H140.992V44H138.992ZM139.992 60H146.992V58H139.992V60ZM145.992 59V73H147.992V59H145.992ZM146.992 72H139.992V74H146.992V72ZM138.992 73V87H140.992V73H138.992ZM139.992 86H121.992V88H139.992V86ZM122.992 87V73H120.992V87H122.992Z" fill="white" fill-opacity="0.05"/>
</g>
<defs>
<filter id="filter0_d_63_33605" x="0" y="0" width="166.992" height="112" filterUnits="userSpaceOnUse" color-interpolation-filters="sRGB">
<feFlood flood-opacity="0" result="BackgroundImageFix"/>
<feColorMatrix in="SourceAlpha" type="matrix" values="0 0 0 0 0 0 0 0 0 0 0 0 0 0 0 0 0 0 127 0" result="hardAlpha"/>
<feOffset dy="4"/>
<feGaussianBlur stdDeviation="10"/>
<feComposite in2="hardAlpha" operator="out"/>
<feColorMatrix type="matrix" values="0 0 0 0 1 0 0 0 0 1 0 0 0 0 1 0 0 0 1 0"/>
<feBlend mode="normal" in2="BackgroundImageFix" result="effect1_dropShadow_63_33605"/>
<feBlend mode="normal" in="SourceGraphic" in2="effect1_dropShadow_63_33605" result="shape"/>
</filter>
</defs>
</svg>
