<svg width="166" height="114" viewBox="0 0 166 114" fill="none" xmlns="http://www.w3.org/2000/svg">
<g filter="url(#filter0_d_248_41)">
<path d="M25.3427 84.6498L25.3427 84.6499L25.3502 84.6573C28.6845 87.9221 33.9405 89.5 41 89.5H60C67.0582 89.5 72.2845 87.9226 75.5536 84.6536C78.8877 81.3194 80.5 76.0618 80.5 69V37C80.5 29.942 78.8894 24.7155 75.5536 21.4464C72.2845 18.1106 67.058 16.5 60 16.5H41C33.9382 16.5 28.6806 18.1123 25.3464 21.4464C22.0774 24.7155 20.5 29.9418 20.5 37V69C20.5 76.0595 22.0779 81.3155 25.3427 84.6498ZM140.492 19V18.5491L140.044 18.5027C127.166 17.1682 116.148 16.5 106.992 16.5C100.393 16.5 95.4373 18.0477 92.2386 21.2464C89.0399 24.4451 87.4922 29.4003 87.4922 36V71C87.4922 77.1447 89.0457 81.8301 92.2425 84.9574L92.2466 84.9613C95.4457 88.0214 100.398 89.5 106.992 89.5H125.992C132.587 89.5 137.539 88.0214 140.738 84.9613L140.742 84.9574C143.939 81.8301 145.492 77.1447 145.492 71V58C145.492 53.3588 144.089 49.5897 141.246 46.7464C138.403 43.9032 134.633 42.5 129.992 42.5H122.992C118.234 42.5 112.733 43.1313 106.492 44.3878V36C106.492 34.4395 106.963 33.3505 107.834 32.6367C108.724 31.9073 110.114 31.5 112.092 31.5C114.347 31.5 116.802 31.5662 119.459 31.699L124.251 32.0983L124.261 32.0992L124.272 32.0996C125.93 32.1659 128.023 32.2987 130.553 32.4985L130.553 32.4986L130.567 32.4993C133.166 32.6326 136.299 32.7993 139.965 32.9993L140.492 33.028V32.5V19ZM56 31.5C57.9229 31.5 59.2733 31.9804 60.1464 32.8536C61.0196 33.7267 61.5 35.0771 61.5 37V69C61.5 70.9229 61.0196 72.2733 60.1464 73.1465C59.2733 74.0196 57.9229 74.5 56 74.5H45C43.0771 74.5 41.7267 74.0196 40.8536 73.1465C39.9804 72.2733 39.5 70.9229 39.5 69V37C39.5 35.0771 39.9804 33.7267 40.8536 32.8536C41.7267 31.9804 43.0771 31.5 45 31.5H56ZM106.492 58.4492C107.7 58.3171 109.221 58.1327 111.055 57.8961C113.164 57.6324 115.476 57.5 117.992 57.5H123.492C124.369 57.5 125.072 57.7868 125.639 58.3536C126.205 58.9203 126.492 59.6237 126.492 60.5V69C126.492 70.9229 126.012 72.2733 125.139 73.1465C124.265 74.0196 122.915 74.5 120.992 74.5H111.992C110.069 74.5 108.719 74.0196 107.846 73.1465C106.973 72.2733 106.492 70.9229 106.492 69V58.4492Z" stroke="white" stroke-opacity="0.05" shape-rendering="crispEdges"/>
</g>
<defs>
<filter id="filter0_d_248_41" x="0" y="0" width="165.992" height="114" filterUnits="userSpaceOnUse" color-interpolation-filters="sRGB">
<feFlood flood-opacity="0" result="BackgroundImageFix"/>
<feColorMatrix in="SourceAlpha" type="matrix" values="0 0 0 0 0 0 0 0 0 0 0 0 0 0 0 0 0 0 127 0" result="hardAlpha"/>
<feOffset dy="4"/>
<feGaussianBlur stdDeviation="10"/>
<feComposite in2="hardAlpha" operator="out"/>
<feColorMatrix type="matrix" values="0 0 0 0 1 0 0 0 0 1 0 0 0 0 1 0 0 0 1 0"/>
<feBlend mode="normal" in2="BackgroundImageFix" result="effect1_dropShadow_248_41"/>
<feBlend mode="normal" in="SourceGraphic" in2="effect1_dropShadow_248_41" result="shape"/>
</filter>
</defs>
</svg>
