<svg class="gray_logo fade" width="835" height="249" viewBox="0 0 835 249" fill="none" xmlns="http://www.w3.org/2000/svg">
<g clip-path="url(#clip0_64_34925)">
<path d="M331.642 176.084H345.148C347.041 176.082 348.916 176.463 350.667 177.205C352.434 177.948 354.032 179.06 355.362 180.469C358.363 183.627 359.863 187.663 359.863 192.578C359.863 197.496 358.363 201.532 355.362 204.686C354.033 206.097 352.434 207.209 350.667 207.952C348.916 208.694 347.041 209.075 345.148 209.073H331.642V176.084ZM335.273 205.534H345.007C348.363 205.534 351.093 204.255 353.196 201.698C355.229 199.239 356.246 196.199 356.246 192.578C356.246 188.958 355.229 185.918 353.196 183.459C351.098 180.902 348.368 179.623 345.007 179.623H335.273V205.534ZM369.787 209.073V184.158H373.413V209.073H369.787ZM369.642 175.088H373.568V179.971H369.646L369.642 175.088ZM403.431 188.143V184.158H407.062V208.324C407.062 211.911 406.069 214.643 404.084 216.52C402.099 218.397 399.429 219.335 396.073 219.335C392.715 219.335 390.093 218.671 388.206 217.342C386.372 216.088 385.014 214.223 384.358 212.06H388.376C389.406 214.65 391.761 215.946 395.443 215.947C398.251 215.947 400.284 215.283 401.543 213.954C402.801 212.626 403.431 210.664 403.431 208.069V204.631C401.462 207.588 398.574 209.067 394.766 209.067C391.28 209.067 388.44 207.837 386.246 205.378C384.116 202.986 383.051 199.996 383.051 196.409C383.051 192.821 384.116 189.831 386.246 187.439C388.44 184.982 391.369 183.753 395.032 183.752C398.695 183.751 401.494 185.215 403.431 188.143ZM395.242 205.684C396.456 205.706 397.661 205.46 398.775 204.962C399.783 204.498 400.689 203.828 401.438 202.992C402.89 201.265 403.616 199.073 403.616 196.416C403.616 193.758 402.89 191.566 401.438 189.837C399.856 188.043 397.791 187.146 395.242 187.146C392.628 187.146 390.53 188.043 388.949 189.837C387.432 191.598 386.673 193.79 386.673 196.416C386.673 199.04 387.432 201.232 388.949 202.992C390.535 204.787 392.635 205.684 395.25 205.684H395.242ZM418.188 209.073V184.158H421.817V209.073H418.188ZM418.05 175.082H421.97V179.965H418.05V175.082ZM439.204 209.067H435.573V187.436H430.629V184.148H435.573V175.241H439.204V184.161H444.766V187.448H439.204V209.067ZM471.976 209.067V205.079C470.04 208.003 467.151 209.464 463.311 209.464C459.826 209.464 456.985 208.218 454.79 205.727C452.661 203.269 451.597 200.229 451.597 196.608C451.597 192.986 452.661 189.947 454.79 187.49C456.986 184.997 459.907 183.751 463.552 183.752C467.198 183.753 470.006 185.231 471.976 188.186V184.151H475.607V209.067H471.976ZM463.787 206.076C466.402 206.076 468.467 205.146 469.983 203.285C471.435 201.525 472.162 199.298 472.162 196.605C472.162 193.914 471.435 191.687 469.983 189.925C468.468 188.064 466.403 187.133 463.787 187.133C461.205 187.133 459.107 188.064 457.494 189.925C455.977 191.686 455.218 193.913 455.218 196.605C455.218 199.296 455.977 201.523 457.494 203.285C459.112 205.15 461.214 206.083 463.8 206.083L463.787 206.076ZM490.362 174.185V209.067H486.733V174.191L490.362 174.185ZM534.564 190.828H530.885C530.562 188.237 528.536 186.941 524.81 186.941C521.083 186.941 519.219 188.137 519.218 190.529C519.218 191.525 519.614 192.28 520.405 192.796C521.33 193.37 522.334 193.799 523.382 194.068C524.576 194.401 525.875 194.709 527.279 194.991C528.614 195.251 529.92 195.652 531.175 196.187C532.308 196.657 533.324 197.38 534.153 198.304C534.944 199.201 535.339 200.43 535.338 201.992C535.338 204.416 534.45 206.268 532.676 207.548C530.901 208.828 528.497 209.467 525.463 209.466C522.235 209.466 519.669 208.636 517.766 206.975C516.025 205.513 515.089 203.604 514.958 201.249H518.735C518.96 203.541 520.219 205.085 522.511 205.882C523.317 206.144 524.157 206.279 525.003 206.282C525.772 206.285 526.541 206.236 527.303 206.132C528.015 206.032 528.714 205.848 529.385 205.583C530.93 204.954 531.702 203.874 531.702 202.345C531.702 201.317 531.307 200.528 530.516 199.978C529.598 199.372 528.593 198.917 527.538 198.633C526.343 198.285 525.045 197.97 523.642 197.687C522.309 197.426 521.004 197.033 519.745 196.514C518.62 196.064 517.604 195.367 516.768 194.472C515.977 193.608 515.582 192.412 515.583 190.884C515.583 188.625 516.381 186.873 517.977 185.627C519.574 184.381 521.938 183.758 525.069 183.758C528.039 183.758 530.379 184.489 532.089 185.952C533.508 187.18 534.332 188.807 534.561 190.835L534.564 190.828ZM555.331 183.752C558.945 183.752 561.881 184.998 564.138 187.49C566.268 189.882 567.333 192.921 567.333 196.608C567.333 200.295 566.268 203.334 564.138 205.727C561.879 208.219 558.943 209.465 555.331 209.464C551.718 209.464 548.782 208.218 546.524 205.727C544.394 203.337 543.329 200.297 543.329 196.608C543.329 192.921 544.394 189.882 546.524 187.49C548.783 185.002 551.72 183.758 555.334 183.758L555.331 183.752ZM555.331 206.076C557.945 206.076 560.011 205.146 561.527 203.285C562.979 201.525 563.705 199.298 563.705 196.605C563.705 193.914 562.979 191.687 561.527 189.925C560.009 188.064 557.944 187.133 555.331 187.133C552.717 187.133 550.652 188.064 549.135 189.925C547.683 191.686 546.957 193.913 546.957 196.605C546.957 199.296 547.683 201.523 549.135 203.285C550.648 205.15 552.715 206.083 555.334 206.083L555.331 206.076ZM580.607 174.191V209.073H576.977V174.191H580.607ZM612.846 209.073H609.217V205.186C608.338 206.388 607.256 207.418 606.022 208.225C604.734 209.064 603.236 209.497 601.712 209.471C600.099 209.471 598.712 209.238 597.55 208.774C596.397 208.314 595.356 207.6 594.5 206.681C592.5 204.655 591.5 201.98 591.5 198.658V184.158H595.13V198.558C595.13 200.85 595.759 202.677 597.017 204.039C598.275 205.402 599.905 206.083 601.907 206.083C603.94 206.083 605.667 205.385 607.086 203.99C608.507 202.561 609.217 200.734 609.217 198.509V184.158H612.846V209.073ZM630.225 209.073H626.594V187.442H621.65V184.154H626.594V175.241H630.225V184.161H635.787V187.448H630.225V209.073ZM644.594 209.073V184.158H648.225V209.073H644.594ZM644.449 175.088H648.37V179.971H644.449V175.088ZM669.864 183.758C673.478 183.758 676.414 185.004 678.671 187.496C680.8 189.888 681.865 192.928 681.866 196.614C681.866 200.301 680.801 203.341 678.671 205.733C676.412 208.226 673.476 209.472 669.864 209.471C666.248 209.471 663.313 208.225 661.057 205.733C658.927 203.343 657.862 200.303 657.862 196.614C657.862 192.928 658.927 189.888 661.057 187.496C663.316 185.004 666.253 183.758 669.867 183.758H669.864ZM669.864 206.083C672.478 206.083 674.543 205.152 676.06 203.291C677.512 201.531 678.238 199.305 678.238 196.611C678.238 193.92 677.512 191.693 676.06 189.931C674.542 188.07 672.477 187.14 669.864 187.14C667.25 187.14 665.184 188.07 663.667 189.931C662.216 191.692 661.491 193.919 661.49 196.611C661.49 199.302 662.215 201.529 663.667 203.291C665.186 205.152 667.253 206.083 669.867 206.083H669.864ZM691.495 184.158H695.126V188.043C696.005 186.841 697.087 185.811 698.321 185.004C699.608 184.165 701.105 183.732 702.629 183.758C704.244 183.758 705.634 183.991 706.8 184.457C707.954 184.916 708.995 185.63 709.85 186.55C711.851 188.576 712.851 191.25 712.851 194.572V209.073H709.22V194.671C709.22 192.38 708.591 190.553 707.333 189.19C706.076 187.827 704.446 187.146 702.443 187.146C700.41 187.146 698.683 187.844 697.264 189.239C695.845 190.668 695.134 192.495 695.133 194.722V209.073H691.503L691.495 184.158ZM741.646 190.838H737.967C737.644 188.246 735.619 186.951 731.892 186.951C728.165 186.951 726.304 188.146 726.307 190.536C726.307 191.531 726.702 192.287 727.493 192.802C728.419 193.376 729.422 193.805 730.471 194.074C731.663 194.407 732.962 194.715 734.367 194.997C735.702 195.258 737.008 195.659 738.264 196.193C739.396 196.664 740.413 197.387 741.241 198.31C742.031 199.207 742.426 200.437 742.426 201.998C742.426 204.422 741.539 206.274 739.764 207.554C737.99 208.834 735.585 209.473 732.552 209.472C729.325 209.472 726.759 208.642 724.854 206.981C723.112 205.519 722.176 203.611 722.047 201.256H725.823C726.049 203.547 727.307 205.091 729.599 205.889C730.406 206.15 731.246 206.285 732.091 206.288C732.86 206.292 733.628 206.242 734.391 206.138C735.102 206.039 735.801 205.855 736.472 205.59C738.017 204.96 738.789 203.881 738.789 202.352C738.789 201.323 738.394 200.534 737.604 199.985C736.687 199.378 735.682 198.924 734.627 198.639C733.432 198.291 732.133 197.976 730.73 197.693C729.398 197.432 728.093 197.039 726.834 196.521C725.709 196.071 724.693 195.374 723.856 194.478C723.065 193.614 722.67 192.418 722.67 190.89C722.67 188.632 723.468 186.879 725.066 185.634C726.664 184.388 729.028 183.765 732.158 183.765C735.128 183.765 737.467 184.496 739.177 185.958C740.598 187.186 741.422 188.814 741.649 190.841L741.646 190.838Z" fill="white" fill-opacity="0.05"/>
<path d="M439.011 54.6748V139.313H422.149V84.6819L392.508 136.557C391.81 137.841 390.744 138.89 389.445 139.57C388.144 140.245 386.697 140.595 385.229 140.591C383.803 140.602 382.398 140.252 381.145 139.575C379.872 138.898 378.873 137.893 378.149 136.562L348.376 84.6809V139.312H331.642V54.6738C331.642 52.7524 332.213 51.0494 333.354 49.5647C334.442 48.0797 336.013 47.0149 337.8 46.551C338.683 46.334 339.594 46.2566 340.501 46.3217C341.404 46.3879 342.292 46.5868 343.136 46.9119C343.97 47.2168 344.741 47.6721 345.409 48.2547C346.104 48.8391 346.694 49.5365 347.154 50.3173L385.226 116.15L423.299 50.3173C424.234 48.7474 425.674 47.5368 427.386 46.881C429.12 46.1825 430.932 46.0731 432.82 46.553C434.597 47.0394 436.161 48.0995 437.266 49.5667C438.43 51.0514 439.011 52.7544 439.011 54.6758V54.6748ZM548.948 55.9529V139.309H532.217V116.778H473.428V139.309H456.698V93.4507C456.698 86.7475 457.85 80.5792 460.156 74.946C462.483 69.3122 465.7 64.4755 469.806 60.436C473.934 56.3746 478.808 53.2193 484.428 50.9703C490.027 48.7007 496.153 47.5655 502.806 47.5649H540.516C541.636 47.5605 542.746 47.7834 543.776 48.2198C544.788 48.6207 545.707 49.2225 546.477 49.9883C547.255 50.7546 547.87 51.6677 548.288 52.674C548.73 53.7096 548.955 54.824 548.948 55.9489V55.9529ZM473.428 93.4537V100.169H532.217V64.2063H502.806C502.301 64.2063 501.225 64.2827 499.578 64.4356C497.908 64.5878 495.997 64.959 493.847 65.5491C491.674 66.138 489.391 67.0548 486.998 68.2996C484.583 69.5451 482.378 71.2485 480.381 73.4098C478.361 75.593 476.692 78.3113 475.375 81.5645C474.08 84.8404 473.432 88.8034 473.432 93.4537H473.428ZM657.006 112.319C657.006 115.595 656.589 118.543 655.755 121.163C654.921 123.783 653.811 126.097 652.426 128.106C651.115 130.061 649.489 131.787 647.614 133.216C645.845 134.589 643.922 135.755 641.883 136.688C639.955 137.567 637.933 138.227 635.856 138.653C633.963 139.073 632.031 139.292 630.092 139.308H565.58V122.669H630.098C633.326 122.669 635.829 121.73 637.607 119.853C639.386 117.975 640.275 115.464 640.275 112.319C640.275 110.769 640.044 109.361 639.583 108.094C639.131 106.857 638.437 105.722 637.541 104.754C636.643 103.801 635.54 103.062 634.314 102.592C633.063 102.068 631.657 101.806 630.098 101.806H591.631C588.931 101.806 586.021 101.337 582.903 100.398C579.762 99.4372 576.853 97.8866 574.176 95.7466C571.498 93.6065 569.27 90.8119 567.489 87.3626C565.711 83.9119 564.822 79.6867 564.822 74.6868C564.822 69.7083 565.711 65.5049 567.489 62.0769C569.269 58.6269 571.498 55.8319 574.176 53.6919C576.854 51.5306 579.763 49.9688 582.903 49.0064C586.02 48.0454 588.93 47.5652 591.631 47.5659H648.57V64.2043H591.631C588.469 64.2043 585.999 65.165 584.22 67.0864C582.441 69.0078 581.552 71.5412 581.553 74.6868C581.553 77.8969 582.442 80.4297 584.22 82.2853C585.998 84.1409 588.469 85.069 591.631 85.0697H630.23C632.159 85.129 634.078 85.3703 635.96 85.7904C640.242 86.7785 644.249 88.7026 647.689 91.423C649.522 92.8993 651.131 94.6316 652.465 96.566C653.868 98.5745 654.977 100.878 655.792 103.477C656.607 106.075 657.011 109.023 657.006 112.319ZM729.956 47.5678V139.308H713.225V47.5678H729.956ZM832.876 47.5678V64.2063H796.023V139.308H779.292V64.2063H742.372V47.5678H832.876Z" fill="white" fill-opacity="0.05"/>
<path fill-rule="evenodd" clip-rule="evenodd" d="M73.8689 161.83C93.3345 161.83 109.114 146.11 109.114 126.719C109.114 107.328 93.3345 91.6075 73.8689 91.6075C54.4034 91.6075 38.6239 107.327 38.6239 126.72C38.6239 146.113 54.4034 161.831 73.8689 161.831V161.83ZM198.384 216.422C197.975 235.463 182.356 250.767 163.147 250.767C143.681 250.767 127.902 235.048 127.902 215.656C127.902 196.264 143.681 180.545 163.147 180.545H163.293C163.504 180.545 163.715 180.545 163.926 180.545C193.865 180.545 218.199 156.635 218.737 126.938C218.743 126.861 218.746 126.789 218.746 126.719C218.746 126.672 218.746 126.619 218.746 126.574C218.746 126.361 218.746 126.148 218.746 125.934C218.746 95.7736 194.202 71.3234 163.926 71.3234C163.612 71.3234 163.3 71.3234 162.989 71.3313C143.595 71.2456 127.903 55.5592 127.903 36.2201C127.902 16.8292 143.68 1.10889 163.147 1.10889C182.559 1.10889 198.306 16.7435 198.392 36.0616C198.386 36.3726 198.384 36.6847 198.384 36.9957C198.384 67.1573 222.927 91.6075 253.203 91.6075C253.413 91.6075 253.623 91.6075 253.833 91.6075C253.887 91.6075 253.939 91.6075 253.991 91.6075C273.456 91.6075 289.236 107.327 289.236 126.719C289.236 146.059 273.539 161.748 254.143 161.829C253.83 161.824 253.517 161.821 253.203 161.822C222.929 161.822 198.39 186.266 198.384 216.422Z" fill="white" fill-opacity="0.05"/>
<path fill-rule="evenodd" clip-rule="evenodd" d="M73.8689 161.83C93.3345 161.83 109.114 146.11 109.114 126.719C109.114 107.328 93.3345 91.6075 73.8689 91.6075C54.4034 91.6075 38.6239 107.327 38.6239 126.72C38.6239 146.113 54.4034 161.831 73.8689 161.831V161.83ZM198.384 216.422C197.975 235.463 182.356 250.767 163.147 250.767C143.681 250.767 127.902 235.048 127.902 215.656C127.902 196.264 143.681 180.545 163.147 180.545H163.293C163.504 180.545 163.715 180.545 163.926 180.545C193.865 180.545 218.199 156.635 218.737 126.938C218.743 126.861 218.746 126.789 218.746 126.719C218.746 126.672 218.746 126.619 218.746 126.574C218.746 126.361 218.746 126.148 218.746 125.934C218.746 95.7736 194.202 71.3234 163.926 71.3234C163.612 71.3234 163.3 71.3234 162.989 71.3313C143.595 71.2456 127.903 55.5592 127.903 36.2201C127.902 16.8292 143.68 1.10889 163.147 1.10889C182.559 1.10889 198.306 16.7435 198.392 36.0616C198.386 36.3726 198.384 36.6847 198.384 36.9957C198.384 67.1573 222.927 91.6075 253.203 91.6075C253.413 91.6075 253.623 91.6075 253.833 91.6075C253.887 91.6075 253.939 91.6075 253.991 91.6075C273.456 91.6075 289.236 107.327 289.236 126.719C289.236 146.059 273.539 161.748 254.143 161.829C253.83 161.824 253.517 161.821 253.203 161.822C222.929 161.822 198.39 186.266 198.384 216.422Z" fill="white" fill-opacity="0.05"/>
</g>
<defs>
<clipPath id="clip0_64_34925">
<rect width="835" height="249" fill="white"/>
</clipPath>
</defs>
</svg>
