<svg width="260" height="78" viewBox="0 0 260 78" fill="none" xmlns="http://www.w3.org/2000/svg">
<g clip-path="url(#clip0_1_5623)">
<path d="M103.266 55.1589H107.471C108.061 55.1582 108.645 55.2775 109.19 55.5101C109.74 55.7428 110.238 56.0909 110.652 56.5325C111.586 57.5217 112.053 58.786 112.053 60.3255C112.053 61.8661 111.586 63.1304 110.652 64.1186C110.238 64.5605 109.74 64.9088 109.19 65.1415C108.645 65.374 108.061 65.4934 107.471 65.4927H103.266V55.1589ZM104.396 64.3841H107.427C108.472 64.3841 109.322 63.9836 109.977 63.1824C110.61 62.4121 110.927 61.4599 110.927 60.3255C110.927 59.1916 110.61 58.2394 109.977 57.4692C109.324 56.668 108.474 56.2674 107.427 56.2674H104.396V64.3841ZM115.143 65.4927V57.6879H116.272V65.4927H115.143ZM115.098 54.847H116.32V56.3766H115.099L115.098 54.847ZM125.619 58.9365V57.6879H126.75V65.2581C126.75 66.3817 126.441 67.2375 125.823 67.8254C125.205 68.4134 124.373 68.7073 123.328 68.7073C122.283 68.7073 121.466 68.4992 120.878 68.083C120.308 67.6902 119.885 67.106 119.68 66.4284H120.931C121.252 67.2399 121.986 67.6458 123.132 67.6461C124.006 67.6461 124.639 67.438 125.031 67.0218C125.423 66.6056 125.619 65.9911 125.619 65.1783V64.1011C125.006 65.0275 124.107 65.4907 122.921 65.4907C121.836 65.4907 120.952 65.1056 120.268 64.3353C119.605 63.586 119.273 62.6495 119.273 61.5258C119.273 60.4018 119.605 59.4651 120.268 58.7157C120.952 57.9461 121.863 57.5612 123.004 57.5608C124.144 57.5605 125.016 58.0191 125.619 58.9365ZM123.069 64.431C123.448 64.4381 123.823 64.361 124.17 64.2048C124.483 64.0595 124.765 63.8496 124.999 63.588C125.451 63.0469 125.677 62.3602 125.677 61.5278C125.677 60.6954 125.451 60.0085 124.999 59.4671C124.506 58.9051 123.863 58.6241 123.069 58.6241C122.255 58.6241 121.602 58.9051 121.11 59.4671C120.637 60.0185 120.401 60.7054 120.401 61.5278C120.401 62.3499 120.637 63.0366 121.11 63.588C121.604 64.15 122.258 64.431 123.072 64.431H123.069ZM130.214 65.4927V57.6879H131.344V65.4927H130.214ZM130.171 54.845H131.392V56.3746H130.171V54.845ZM136.758 65.4907H135.627V58.7147H134.088V57.6849H135.627V54.8948H136.758V57.6889H138.49V58.7187H136.758V65.4907ZM146.963 65.4907V64.2417C146.36 65.1574 145.46 65.6153 144.265 65.6153C143.179 65.6153 142.295 65.225 141.611 64.4444C140.948 63.6745 140.617 62.7224 140.617 61.5881C140.617 60.4534 140.948 59.5013 141.611 58.7317C142.295 57.9508 143.205 57.5605 144.34 57.5608C145.475 57.5612 146.349 58.0242 146.963 58.9499V57.6859H148.093V65.4907H146.963ZM144.413 64.5541C145.227 64.5541 145.87 64.2626 146.342 63.6796C146.794 63.1283 147.02 62.4307 147.02 61.5871C147.02 60.744 146.794 60.0465 146.342 59.4945C145.87 58.9115 145.227 58.6201 144.413 58.6201C143.609 58.6201 142.956 58.9115 142.453 59.4945C141.981 60.0462 141.745 60.7437 141.745 61.5871C141.745 62.4301 141.981 63.1276 142.453 63.6796C142.957 64.2639 143.612 64.556 144.417 64.556L144.413 64.5541ZM152.688 54.564V65.4907H151.558V54.566L152.688 54.564ZM166.451 59.7775H165.306C165.205 58.9657 164.574 58.5598 163.414 58.5598C162.253 58.5598 161.673 58.9345 161.673 59.6838C161.673 59.9957 161.796 60.2324 162.042 60.3938C162.33 60.5736 162.643 60.708 162.969 60.7924C163.341 60.8967 163.745 60.993 164.183 61.0814C164.598 61.1631 165.005 61.2886 165.396 61.456C165.749 61.6034 166.065 61.8299 166.323 62.1192C166.569 62.4002 166.692 62.7853 166.692 63.2746C166.692 64.0339 166.416 64.614 165.863 65.0149C165.311 65.4158 164.562 65.6161 163.617 65.6158C162.612 65.6158 161.813 65.3557 161.221 64.8356C160.678 64.3775 160.387 63.7796 160.346 63.0419H161.522C161.592 63.7597 161.984 64.2435 162.698 64.4933C162.949 64.5752 163.211 64.6173 163.474 64.6183C163.714 64.6195 163.953 64.6039 164.19 64.5715C164.412 64.5401 164.629 64.4824 164.838 64.3996C165.319 64.2023 165.56 63.8642 165.56 63.3852C165.56 63.063 165.437 62.8159 165.191 62.6438C164.905 62.4537 164.592 62.3115 164.263 62.2223C163.891 62.1134 163.487 62.0146 163.05 61.9259C162.635 61.8441 162.229 61.7211 161.837 61.5587C161.487 61.4177 161.17 61.1994 160.91 60.9189C160.663 60.6482 160.54 60.2736 160.541 59.7949C160.541 59.0874 160.789 58.5385 161.286 58.1483C161.784 57.758 162.52 57.5628 163.495 57.5628C164.419 57.5628 165.148 57.7919 165.68 58.2499C166.122 58.6345 166.379 59.1444 166.45 59.7795L166.451 59.7775ZM172.917 57.5608C174.043 57.5608 174.957 57.9511 175.66 58.7317C176.323 59.481 176.655 60.4332 176.655 61.5881C176.655 62.743 176.323 63.6951 175.66 64.4444C174.956 65.2253 174.042 65.6156 172.917 65.6153C171.792 65.6153 170.878 65.225 170.175 64.4444C169.512 63.6958 169.18 62.7436 169.18 61.5881C169.18 60.4332 169.512 59.481 170.175 58.7317C170.879 57.9524 171.793 57.5628 172.918 57.5628L172.917 57.5608ZM172.917 64.5541C173.731 64.5541 174.375 64.2626 174.847 63.6796C175.299 63.1283 175.525 62.4307 175.525 61.5871C175.525 60.744 175.299 60.0465 174.847 59.4945C174.374 58.9115 173.731 58.6201 172.917 58.6201C172.103 58.6201 171.46 58.9115 170.988 59.4945C170.536 60.0462 170.31 60.7437 170.31 61.5871C170.31 62.4301 170.536 63.1276 170.988 63.6796C171.459 64.2639 172.103 64.556 172.918 64.556L172.917 64.5541ZM180.788 54.566V65.4927H179.658V54.566H180.788ZM190.826 65.4927H189.696V64.275C189.423 64.6518 189.086 64.9743 188.701 65.2272C188.3 65.4899 187.834 65.6255 187.36 65.6173C186.857 65.6173 186.425 65.5445 186.064 65.3991C185.704 65.2551 185.38 65.0313 185.114 64.7434C184.491 64.1086 184.18 63.2709 184.18 62.2303V57.6879H185.31V62.1989C185.31 62.9167 185.506 63.489 185.898 63.9158C186.289 64.3426 186.797 64.556 187.42 64.556C188.053 64.556 188.591 64.3375 189.033 63.9004C189.475 63.453 189.696 62.8807 189.696 62.1835V57.6879H190.826V65.4927ZM196.238 65.4927H195.107V58.7167H193.568V57.6869H195.107V54.8948H196.238V57.6889H197.97V58.7187H196.238V65.4927ZM200.712 65.4927V57.6879H201.843V65.4927H200.712ZM200.667 54.847H201.888V56.3766H200.667V54.847ZM208.58 57.5628C209.706 57.5628 210.62 57.9531 211.323 58.7337C211.986 59.483 212.317 60.4351 212.318 61.5901C212.318 62.745 211.986 63.6971 211.323 64.4464C210.619 65.2273 209.705 65.6176 208.58 65.6173C207.455 65.6173 206.541 65.227 205.838 64.4464C205.175 63.6977 204.843 62.7456 204.843 61.5901C204.843 60.4351 205.175 59.483 205.838 58.7337C206.542 57.9531 207.456 57.5628 208.581 57.5628H208.58ZM208.58 64.556C209.394 64.556 210.037 64.2646 210.51 63.6816C210.962 63.1303 211.188 62.4327 211.188 61.5891C211.188 60.746 210.962 60.0485 210.51 59.4965C210.037 58.9135 209.394 58.6221 208.58 58.6221C207.766 58.6221 207.123 58.9135 206.651 59.4965C206.199 60.0482 205.973 60.7457 205.973 61.5891C205.973 62.4321 206.199 63.1296 206.651 63.6816C207.124 64.2646 207.767 64.556 208.581 64.556H208.58ZM215.316 57.6879H216.446V58.9051C216.72 58.5284 217.057 58.2058 217.441 57.9529C217.842 57.6903 218.308 57.5546 218.783 57.5628C219.285 57.5628 219.718 57.6357 220.082 57.7816C220.441 57.9253 220.765 58.1492 221.031 58.4372C221.654 59.072 221.966 59.9097 221.966 60.9503V65.4927H220.835V60.9812C220.835 60.2634 220.639 59.6911 220.248 59.2643C219.856 58.8375 219.348 58.6241 218.725 58.6241C218.092 58.6241 217.554 58.8426 217.112 59.2797C216.67 59.7272 216.449 60.2996 216.449 60.9972V65.4927H215.318L215.316 57.6879ZM230.932 59.7805H229.786C229.686 58.9687 229.055 58.5628 227.895 58.5628C226.734 58.5628 226.154 58.9371 226.155 59.6858C226.155 59.9977 226.279 60.2344 226.525 60.3958C226.813 60.5757 227.126 60.7101 227.452 60.7944C227.823 60.8987 228.228 60.995 228.665 61.0834C229.081 61.1651 229.488 61.2906 229.879 61.458C230.231 61.6054 230.548 61.8319 230.806 62.1212C231.052 62.4022 231.175 62.7873 231.175 63.2766C231.175 64.0359 230.898 64.616 230.346 65.0169C229.793 65.4178 229.045 65.6181 228.1 65.6178C227.095 65.6178 226.296 65.3577 225.703 64.8375C225.161 64.3795 224.869 63.7816 224.829 63.0439H226.005C226.075 63.7617 226.467 64.2455 227.181 64.4953C227.432 64.5772 227.693 64.6194 227.957 64.6203C228.196 64.6215 228.435 64.6059 228.673 64.5735C228.894 64.5422 229.112 64.4846 229.321 64.4016C229.802 64.2043 230.042 63.8662 230.042 63.3872C230.042 63.065 229.919 62.8179 229.673 62.6458C229.388 62.4557 229.075 62.3135 228.746 62.2243C228.374 62.1154 227.97 62.0166 227.533 61.9279C227.118 61.8461 226.712 61.7231 226.319 61.5607C225.969 61.4197 225.653 61.2014 225.392 60.9209C225.146 60.6502 225.023 60.2756 225.023 59.7969C225.023 59.0894 225.272 58.5405 225.769 58.1502C226.267 57.76 227.003 57.5648 227.977 57.5648C228.902 57.5648 229.631 57.7938 230.163 58.2519C230.605 58.6365 230.862 59.1464 230.933 59.7815L230.932 59.7805Z" fill="white"/>
<path d="M136.698 17.1272V43.6403H131.448V26.527L122.218 42.7771C122.001 43.1793 121.669 43.5078 121.264 43.7208C120.859 43.9323 120.409 44.042 119.952 44.0406C119.508 44.044 119.07 43.9345 118.68 43.7224C118.284 43.5102 117.973 43.1957 117.747 42.7787L108.476 26.5267V43.6399H103.266V17.1269C103.266 16.525 103.444 15.9915 103.799 15.5264C104.138 15.0613 104.627 14.7277 105.183 14.5824C105.458 14.5144 105.742 14.4902 106.024 14.5106C106.305 14.5313 106.582 14.5936 106.845 14.6955C107.105 14.791 107.344 14.9336 107.552 15.1161C107.769 15.2992 107.953 15.5176 108.096 15.7622L119.951 36.3846L131.806 15.7622C132.097 15.2704 132.545 14.8912 133.078 14.6858C133.618 14.467 134.182 14.4327 134.77 14.583C135.324 14.7354 135.811 15.0675 136.155 15.5271C136.517 15.9922 136.698 16.5256 136.698 17.1275V17.1272ZM170.93 17.5276V43.639H165.72V36.5814H147.415V43.639H142.205V29.2739C142.205 27.1741 142.564 25.2419 143.282 23.4772C144.007 21.7124 145.008 20.1973 146.287 18.9319C147.572 17.6597 149.09 16.6713 150.84 15.9668C152.583 15.2558 154.491 14.9002 156.562 14.9H168.305C168.653 14.8986 168.999 14.9684 169.32 15.1052C169.635 15.2307 169.921 15.4192 170.161 15.6592C170.403 15.8992 170.594 16.1852 170.725 16.5005C170.862 16.8248 170.932 17.1739 170.93 17.5263V17.5276ZM147.415 29.2748V31.3784H165.72V20.113H156.562C156.405 20.113 156.07 20.1369 155.557 20.1848C155.037 20.2325 154.442 20.3488 153.773 20.5336C153.096 20.7181 152.385 21.0053 151.64 21.3952C150.888 21.7854 150.201 22.319 149.58 22.996C148.951 23.6799 148.431 24.5314 148.021 25.5505C147.618 26.5767 147.416 27.8181 147.416 29.2748H147.415ZM204.577 35.1845C204.577 36.2107 204.447 37.1341 204.187 37.9548C203.927 38.7755 203.582 39.5005 203.151 40.1299C202.742 40.7421 202.236 41.2829 201.652 41.7303C201.101 42.1607 200.503 42.5257 199.868 42.818C199.268 43.0935 198.638 43.3 197.991 43.4335C197.402 43.5651 196.8 43.6338 196.196 43.6387H176.109V38.4266H196.198C197.203 38.4266 197.983 38.1326 198.536 37.5444C199.09 36.9563 199.367 36.1697 199.367 35.1845C199.367 34.699 199.295 34.2578 199.152 33.861C199.011 33.4736 198.795 33.1179 198.516 32.8146C198.236 32.5162 197.893 32.2848 197.511 32.1375C197.121 31.9733 196.684 31.8911 196.198 31.8911H184.221C183.38 31.8911 182.474 31.7442 181.503 31.4502C180.525 31.1492 179.619 30.6634 178.785 29.9931C177.952 29.3227 177.258 28.4473 176.703 27.3667C176.15 26.2858 175.873 24.9623 175.873 23.396C175.873 21.8365 176.15 20.5198 176.703 19.4459C177.257 18.3652 177.951 17.4897 178.785 16.8193C179.619 16.1423 180.525 15.653 181.503 15.3516C182.473 15.0505 183.379 14.9001 184.221 14.9003H201.95V20.1124H184.221C183.236 20.1124 182.467 20.4133 181.913 21.0152C181.359 21.617 181.082 22.4107 181.082 23.396C181.082 24.4016 181.359 25.195 181.913 25.7763C182.467 26.3575 183.236 26.6483 184.221 26.6485H196.239C196.84 26.6671 197.437 26.7427 198.024 26.8743C199.357 27.1838 200.604 27.7865 201.676 28.6387C202.246 29.1011 202.747 29.6438 203.163 30.2498C203.6 30.8789 203.945 31.6005 204.199 32.4145C204.452 33.2286 204.578 34.1519 204.577 35.1845ZM227.292 14.9009V43.6387H222.082V14.9009H227.292ZM259.339 14.9009V20.113H247.864V43.6387H242.654V20.113H231.158V14.9009H259.339Z" fill="white"/>
<path fill-rule="evenodd" clip-rule="evenodd" d="M23.0011 50.6935C29.0623 50.6935 33.9756 45.7691 33.9756 39.6948C33.9756 33.6206 29.0623 28.6961 23.0011 28.6961C16.94 28.6961 12.0266 33.6203 12.0266 39.6951C12.0266 45.77 16.94 50.6938 23.0011 50.6938V50.6935ZM61.7723 67.7946C61.6449 73.7593 56.7815 78.5535 50.8003 78.5535C44.7392 78.5535 39.8258 73.6293 39.8258 67.5548C39.8258 61.4802 44.7392 56.5561 50.8003 56.5561H50.8459C50.9114 56.5561 50.9771 56.5561 51.0428 56.5561C60.3652 56.5561 67.9424 49.0662 68.1097 39.7635C68.1115 39.7395 68.1125 39.7167 68.1125 39.6948C68.1125 39.6802 68.1125 39.6636 68.1125 39.6496C68.1125 39.5827 68.1125 39.5159 68.1125 39.4491C68.1125 30.0012 60.4701 22.3421 51.0428 22.3421C50.9451 22.3421 50.848 22.3421 50.751 22.3446C44.7123 22.3177 39.8261 17.4039 39.8261 11.3459C39.8258 5.2716 44.7388 0.347168 50.8003 0.347168C56.8449 0.347168 61.748 5.24474 61.7748 11.2962C61.7729 11.3936 61.7723 11.4914 61.7723 11.5888C61.7723 21.037 69.4144 28.6961 78.8417 28.6961C78.9072 28.6961 78.9725 28.6961 79.0377 28.6961C79.0545 28.6961 79.0708 28.6961 79.087 28.6961C85.1481 28.6961 90.0615 33.6203 90.0615 39.6948C90.0615 45.7532 85.1737 50.6679 79.1344 50.6932C79.0371 50.6916 78.9395 50.6908 78.8417 50.691C69.415 50.691 61.7742 58.3483 61.7723 67.7946Z" fill="white"/>
<path fill-rule="evenodd" clip-rule="evenodd" d="M23.0011 50.6935C29.0623 50.6935 33.9756 45.7691 33.9756 39.6948C33.9756 33.6206 29.0623 28.6961 23.0011 28.6961C16.94 28.6961 12.0266 33.6203 12.0266 39.6951C12.0266 45.77 16.94 50.6938 23.0011 50.6938V50.6935ZM61.7723 67.7946C61.6449 73.7593 56.7815 78.5535 50.8003 78.5535C44.7392 78.5535 39.8258 73.6293 39.8258 67.5548C39.8258 61.4802 44.7392 56.5561 50.8003 56.5561H50.8459C50.9114 56.5561 50.9771 56.5561 51.0428 56.5561C60.3652 56.5561 67.9424 49.0662 68.1097 39.7635C68.1115 39.7395 68.1125 39.7167 68.1125 39.6948C68.1125 39.6802 68.1125 39.6636 68.1125 39.6496C68.1125 39.5827 68.1125 39.5159 68.1125 39.4491C68.1125 30.0012 60.4701 22.3421 51.0428 22.3421C50.9451 22.3421 50.848 22.3421 50.751 22.3446C44.7123 22.3177 39.8261 17.4039 39.8261 11.3459C39.8258 5.2716 44.7388 0.347168 50.8003 0.347168C56.8449 0.347168 61.748 5.24474 61.7748 11.2962C61.7729 11.3936 61.7723 11.4914 61.7723 11.5888C61.7723 21.037 69.4144 28.6961 78.8417 28.6961C78.9072 28.6961 78.9725 28.6961 79.0377 28.6961C79.0545 28.6961 79.0708 28.6961 79.087 28.6961C85.1481 28.6961 90.0615 33.6203 90.0615 39.6948C90.0615 45.7532 85.1737 50.6679 79.1344 50.6932C79.0371 50.6916 78.9395 50.6908 78.8417 50.691C69.415 50.691 61.7742 58.3483 61.7723 67.7946Z" fill="#CCFF00"/>
</g>
<defs>
<clipPath id="clip0_1_5623">
<rect width="260" height="78" fill="white"/>
</clipPath>
</defs>
</svg>
