<svg width="542" height="28" viewBox="0 0 542 28" fill="none" xmlns="http://www.w3.org/2000/svg">
<g style="mix-blend-mode:color-dodge">
<path opacity="0.5" d="M181.923 25.9629L137.003 11.703L172.087 4.76807V5.20153L181.923 25.9629ZM141.538 11.9197L179.519 24.0125L171.212 6.1117L141.538 11.9197Z" fill="#E3F3FF"/>
<path opacity="0.5" d="M285.864 17.9877L283.241 17.6844L201.269 7.75875L259.633 1.77734L285.864 17.9877ZM211.16 7.84538L280.782 16.254L259.25 2.94757L211.16 7.84538Z" fill="#E3F3FF"/>
<path opacity="0.5" d="M362.481 21.1949L297.668 11.7893L359.038 4.6377V5.20118L362.481 21.1949ZM306.302 11.9193L360.95 19.8079L358.218 5.89469L306.302 11.9193Z" fill="#E3F3FF"/>
<path opacity="0.5" d="M231.653 26.2222L194.82 17.5536L256.299 8.53809L231.653 26.2222ZM200.558 17.7702L231.107 25.0085L251.49 10.3152L200.558 17.7702Z" fill="#E3F3FF"/>
<path opacity="0.5" d="M396.963 26.396L317.615 20.718L350.021 12.0493L396.963 26.396ZM324.336 20.1112L387.127 24.4456L349.966 13.1329L324.336 20.1112Z" fill="#E3F3FF"/>
<path opacity="0.5" d="M438.004 21.065L398.548 13.3499L477.405 9.31885L438.004 21.065ZM407.674 14L437.95 19.8946L468.334 10.8793L407.674 14Z" fill="#E3F3FF"/>
<path opacity="0.5" d="M130.773 19.1139L57.6537 14.7796V13.696L95.9073 10.4019L130.773 19.1139ZM65.1951 14.0427L118.859 17.2502L95.5248 11.3988L65.1951 14.0427Z" fill="#E3F3FF"/>
<g opacity="0.4">
<path opacity="0.5" d="M538.994 10.5327H3.00549V11.6163H538.994V10.5327Z" fill="#E3F3FF"/>
<path d="M538.994 10.5327H3.00549V11.6163H538.994V10.5327Z" fill="#B1F6FF"/>
</g>
<path d="M183.727 24.9661C183.738 25.4393 183.571 25.9043 183.247 26.302C182.923 26.6997 182.458 27.012 181.91 27.1991C181.361 27.3862 180.755 27.4397 180.169 27.3527C179.582 27.2656 179.042 27.0421 178.616 26.7105C178.19 26.3789 177.898 25.9542 177.778 25.4907C177.657 25.0271 177.714 24.5455 177.939 24.1073C178.165 23.6692 178.55 23.2944 179.046 23.0305C179.541 22.7666 180.124 22.6256 180.721 22.6255C181.509 22.6254 182.265 22.8706 182.827 23.3083C183.389 23.746 183.712 24.3414 183.727 24.9661Z" fill="#BDD6EA"/>
<path d="M174.655 5.41801C174.655 5.8895 174.479 6.35044 174.148 6.74246C173.818 7.13449 173.349 7.44006 172.8 7.62049C172.25 7.80092 171.646 7.84806 171.063 7.75607C170.48 7.66409 169.945 7.43709 169.524 7.1037C169.104 6.77031 168.818 6.34551 168.702 5.88308C168.586 5.42066 168.645 4.94132 168.873 4.50572C169.1 4.07012 169.485 3.69784 169.98 3.43589C170.474 3.17395 171.055 3.03418 171.649 3.03418C172.044 3.03418 172.435 3.09586 172.8 3.21566C173.164 3.33546 173.496 3.51095 173.775 3.73232C174.054 3.95368 174.275 4.21649 174.426 4.50572C174.577 4.79495 174.655 5.10495 174.655 5.41801Z" fill="#BDD6EA"/>
<path d="M142.249 11.7896C142.249 12.4218 141.932 13.0282 141.368 13.4753C140.805 13.9223 140.04 14.1734 139.243 14.1734C138.446 14.1734 137.681 13.9223 137.118 13.4753C136.554 13.0282 136.238 12.4218 136.238 11.7896C136.238 11.1573 136.554 10.551 137.118 10.1039C137.681 9.65684 138.446 9.40576 139.243 9.40576C140.04 9.40576 140.805 9.65684 141.368 10.1039C141.932 10.551 142.249 11.1573 142.249 11.7896Z" fill="#BDD6EA"/>
<path d="M286.301 17.1207C286.301 17.594 286.123 18.0566 285.791 18.4495C285.458 18.8424 284.985 19.1478 284.433 19.3269C283.881 19.506 283.273 19.5506 282.689 19.455C282.104 19.3595 281.569 19.1281 281.151 18.7904C280.733 18.4526 280.451 18.0239 280.341 17.5586C280.231 17.0934 280.299 16.6127 280.535 16.178C280.771 15.7432 281.164 15.3739 281.666 15.1173C282.167 14.8606 282.754 14.7281 283.35 14.7367C284.138 14.7481 284.888 15.0042 285.44 15.4501C285.992 15.8959 286.301 16.4959 286.301 17.1207Z" fill="#BDD6EA"/>
<path d="M262.42 2.34058C262.431 2.81382 262.264 3.27885 261.94 3.67654C261.617 4.07423 261.151 4.38652 260.603 4.57362C260.055 4.76071 259.449 4.81422 258.862 4.72719C258.276 4.64016 257.735 4.4166 257.309 4.085C256.883 3.7534 256.592 3.32875 256.471 2.86517C256.351 2.4016 256.407 1.91999 256.633 1.48186C256.858 1.04373 257.243 0.668932 257.739 0.405021C258.234 0.14111 258.817 7.82732e-05 259.414 3.26193e-08C260.202 -0.00010325 260.958 0.245062 261.521 0.682795C262.083 1.12053 262.406 1.71587 262.42 2.34058Z" fill="#BDD6EA"/>
<path d="M209.138 7.80242C209.138 8.27391 208.962 8.73471 208.631 9.12674C208.301 9.51877 207.832 9.82434 207.283 10.0048C206.733 10.1852 206.129 10.2325 205.546 10.1405C204.963 10.0485 204.427 9.82137 204.007 9.48798C203.587 9.15459 203.3 8.72992 203.184 8.26749C203.068 7.80507 203.128 7.32573 203.356 6.89013C203.583 6.45453 203.968 6.08212 204.463 5.82017C204.957 5.55823 205.538 5.41846 206.132 5.41846C206.929 5.41846 207.694 5.66966 208.258 6.11673C208.821 6.56379 209.138 7.17017 209.138 7.80242Z" fill="#BDD6EA"/>
<path d="M364.503 20.5016C364.503 20.9731 364.326 21.4339 363.996 21.826C363.666 22.218 363.196 22.5236 362.647 22.704C362.098 22.8844 361.494 22.9317 360.911 22.8397C360.328 22.7477 359.792 22.5207 359.372 22.1873C358.951 21.8539 358.665 21.4291 358.549 20.9667C358.433 20.5043 358.493 20.0249 358.72 19.5893C358.948 19.1538 359.333 18.7815 359.827 18.5195C360.321 18.2576 360.903 18.1177 361.497 18.1177C361.892 18.1177 362.282 18.1794 362.647 18.2992C363.012 18.419 363.343 18.5946 363.622 18.8159C363.901 19.0373 364.123 19.3001 364.274 19.5893C364.425 19.8786 364.503 20.1886 364.503 20.5016Z" fill="#BDD6EA"/>
<path d="M361.661 5.24445C361.668 5.55545 361.597 5.86458 361.452 6.15357C361.307 6.44256 361.091 6.70568 360.816 6.92763C360.541 7.14958 360.214 7.32582 359.852 7.44614C359.49 7.56647 359.102 7.62847 358.71 7.62842C358.285 7.67418 357.852 7.6472 357.442 7.54945C357.031 7.4517 356.651 7.28538 356.328 7.06163C356.005 6.83787 355.746 6.56193 355.569 6.25224C355.392 5.94256 355.3 5.60629 355.3 5.26615C355.3 4.926 355.392 4.58987 355.569 4.28018C355.746 3.9705 356.005 3.69443 356.328 3.47067C356.651 3.24691 357.031 3.0806 357.442 2.98284C357.852 2.88509 358.285 2.85825 358.71 2.90401C359.492 2.90401 360.243 3.15051 360.796 3.58945C361.35 4.02839 361.661 4.6237 361.661 5.24445Z" fill="#BDD6EA"/>
<path d="M304.991 11.8327C304.991 12.3042 304.814 12.765 304.484 13.157C304.154 13.549 303.685 13.8546 303.135 14.035C302.586 14.2155 301.982 14.2627 301.399 14.1708C300.816 14.0788 300.28 13.8518 299.86 13.5184C299.439 13.185 299.153 12.7602 299.037 12.2978C298.921 11.8353 298.981 11.356 299.208 10.9204C299.436 10.4848 299.821 10.1125 300.315 9.85058C300.809 9.58863 301.391 9.44873 301.985 9.44873C302.782 9.44873 303.547 9.69994 304.11 10.147C304.674 10.5941 304.991 11.2004 304.991 11.8327Z" fill="#BDD6EA"/>
<path d="M234.495 25.6163C234.495 26.2485 234.178 26.8549 233.614 27.3019C233.051 27.749 232.286 28.0001 231.489 28.0001C230.692 28.0001 229.927 27.749 229.364 27.3019C228.8 26.8549 228.483 26.2485 228.483 25.6163C228.483 24.984 228.8 24.3776 229.364 23.9306C229.927 23.4835 230.692 23.2324 231.489 23.2324C232.286 23.2324 233.051 23.4835 233.614 23.9306C234.178 24.3776 234.495 24.984 234.495 25.6163Z" fill="#BDD6EA"/>
<path d="M257.01 9.40545C257.01 9.87694 256.833 10.3377 256.503 10.7298C256.173 11.1218 255.704 11.4274 255.154 11.6078C254.605 11.7882 254.001 11.8355 253.418 11.7435C252.835 11.6515 252.299 11.4244 251.879 11.091C251.458 10.7576 251.172 10.3329 251.056 9.87052C250.94 9.40809 251 8.92876 251.227 8.49316C251.455 8.05756 251.84 7.68528 252.334 7.42333C252.829 7.16139 253.41 7.02148 254.004 7.02148C254.801 7.02148 255.566 7.27269 256.129 7.71976C256.693 8.16682 257.01 8.7732 257.01 9.40545Z" fill="#BDD6EA"/>
<path d="M200.558 17.6408C200.616 17.9779 200.582 18.3208 200.459 18.6466C200.336 18.9724 200.126 19.2735 199.844 19.5297C199.562 19.7859 199.214 19.9912 198.823 20.1319C198.433 20.2726 198.009 20.3454 197.58 20.3454C197.151 20.3454 196.727 20.2726 196.337 20.1319C195.946 19.9912 195.598 19.7859 195.316 19.5297C195.034 19.2735 194.824 18.9724 194.701 18.6466C194.578 18.3208 194.544 17.9779 194.602 17.6408C194.7 17.0694 195.055 16.5455 195.603 16.1661C196.151 15.7868 196.853 15.5776 197.58 15.5776C198.307 15.5776 199.01 15.7868 199.557 16.1661C200.105 16.5455 200.461 17.0694 200.558 17.6408Z" fill="#BDD6EA"/>
<path d="M395.051 25.4864C395.051 25.9579 394.875 26.4188 394.544 26.8108C394.214 27.2029 393.745 27.5083 393.195 27.6887C392.646 27.8692 392.042 27.9164 391.459 27.8244C390.876 27.7325 390.34 27.5055 389.92 27.1721C389.5 26.8387 389.213 26.4139 389.097 25.9514C388.981 25.489 389.041 25.0097 389.268 24.5741C389.496 24.1385 389.881 23.7662 390.375 23.5043C390.87 23.2423 391.451 23.1025 392.045 23.1025C392.842 23.1025 393.607 23.3536 394.17 23.8007C394.734 24.2477 395.051 24.8541 395.051 25.4864Z" fill="#BDD6EA"/>
<path d="M352.972 12.6568C352.972 13.1301 352.794 13.5927 352.461 13.9856C352.129 14.3785 351.656 14.6839 351.103 14.863C350.551 15.0421 349.944 15.0867 349.359 14.9912C348.775 14.8956 348.24 14.6642 347.822 14.3265C347.403 13.9888 347.122 13.56 347.012 13.0948C346.902 12.6295 346.969 12.1489 347.205 11.7141C347.441 11.2793 347.835 10.9101 348.336 10.6534C348.838 10.3967 349.424 10.2642 350.021 10.2729C350.809 10.2842 351.559 10.5404 352.111 10.9862C352.663 11.432 352.972 12.032 352.972 12.6568Z" fill="#BDD6EA"/>
<path d="M323.954 20.4141C323.939 21.0388 323.616 21.6342 323.054 22.0719C322.492 22.5096 321.736 22.7548 320.948 22.7547C320.165 22.7547 319.415 22.508 318.861 22.0691C318.308 21.6302 317.997 21.0349 317.997 20.4141C317.997 19.7893 318.306 19.1895 318.858 18.7436C319.41 18.2978 320.16 18.0416 320.948 18.0303C321.343 18.0303 321.734 18.092 322.098 18.2118C322.463 18.3316 322.794 18.5072 323.073 18.7285C323.352 18.9499 323.574 19.2127 323.725 19.5019C323.876 19.7912 323.954 20.101 323.954 20.4141Z" fill="#BDD6EA"/>
<path d="M475.766 10.0988C475.766 10.5703 475.59 11.0311 475.259 11.4231C474.929 11.8152 474.46 12.1207 473.91 12.3012C473.361 12.4816 472.757 12.5289 472.174 12.4369C471.591 12.3449 471.055 12.1178 470.635 11.7844C470.215 11.451 469.928 11.0263 469.812 10.5639C469.696 10.1015 469.756 9.62212 469.983 9.18652C470.211 8.75092 470.596 8.3785 471.09 8.11656C471.585 7.85461 472.166 7.71484 472.76 7.71484C473.557 7.71484 474.322 7.96605 474.886 8.41311C475.449 8.86018 475.766 9.46656 475.766 10.0988Z" fill="#BDD6EA"/>
<path d="M441.01 20.5015C441.01 20.9749 440.832 21.4375 440.499 21.8304C440.166 22.2233 439.694 22.5286 439.142 22.7077C438.589 22.8868 437.982 22.9315 437.397 22.8359C436.813 22.7404 436.278 22.509 435.859 22.1712C435.441 21.8335 435.159 21.4047 435.05 20.9395C434.94 20.4743 435.007 19.9936 435.243 19.5588C435.479 19.1241 435.873 18.7548 436.374 18.4981C436.876 18.2415 437.462 18.109 438.059 18.1176C438.451 18.1175 438.839 18.1795 439.201 18.2999C439.563 18.4202 439.89 18.5964 440.165 18.8184C440.44 19.0403 440.656 19.3036 440.801 19.5926C440.946 19.8816 441.017 20.1906 441.01 20.5015Z" fill="#BDD6EA"/>
<path d="M406.089 13.696C406.089 14.3168 405.779 14.9121 405.225 15.351C404.672 15.79 403.921 16.0366 403.139 16.0366C402.714 16.0824 402.281 16.0554 401.87 15.9577C401.46 15.8599 401.08 15.6936 400.757 15.4698C400.434 15.2461 400.175 14.9701 399.998 14.6604C399.82 14.3508 399.729 14.0145 399.729 13.6744C399.729 13.3342 399.82 12.9981 399.998 12.6884C400.175 12.3787 400.434 12.1026 400.757 11.8789C401.08 11.6551 401.46 11.4888 401.87 11.391C402.281 11.2933 402.714 11.2665 403.139 11.3122C403.531 11.3122 403.919 11.374 404.281 11.4944C404.642 11.6147 404.97 11.791 405.245 12.013C405.519 12.2349 405.736 12.4981 405.881 12.7871C406.026 13.076 406.097 13.3851 406.089 13.696Z" fill="#BDD6EA"/>
<path d="M127.822 18.248C127.822 18.7213 127.644 19.1839 127.311 19.5768C126.978 19.9697 126.506 20.2752 125.953 20.4543C125.401 20.6334 124.794 20.678 124.209 20.5825C123.625 20.4869 123.089 20.2556 122.671 19.9178C122.253 19.5801 121.971 19.1512 121.862 18.686C121.752 18.2207 121.819 17.7401 122.055 17.3053C122.291 16.8705 122.685 16.5014 123.186 16.2447C123.688 15.9881 124.274 15.8556 124.871 15.8642C125.263 15.8641 125.651 15.9261 126.013 16.0464C126.374 16.1668 126.702 16.343 126.977 16.5649C127.252 16.7869 127.468 17.05 127.613 17.339C127.758 17.628 127.829 17.937 127.822 18.248Z" fill="#BDD6EA"/>
<path d="M98.6397 10.8361C98.6506 11.3093 98.4835 11.7745 98.1599 12.1722C97.8363 12.5699 97.3707 12.882 96.8226 13.0691C96.2744 13.2562 95.6686 13.3097 95.082 13.2227C94.4954 13.1357 93.9546 12.9121 93.5288 12.5805C93.103 12.2489 92.8113 11.8243 92.6908 11.3607C92.5703 10.8971 92.6266 10.4156 92.8524 9.97751C93.0782 9.53938 93.4632 9.16445 93.9586 8.90054C94.454 8.63663 95.0372 8.4956 95.634 8.49552C96.0261 8.48976 96.4158 8.54608 96.7802 8.66112C97.1446 8.77617 97.4763 8.9477 97.7562 9.16562C98.036 9.38353 98.2582 9.64346 98.4099 9.93029C98.5616 10.2171 98.6398 10.5251 98.6397 10.8361Z" fill="#BDD6EA"/>
<path d="M60.6594 14.1733C60.6593 14.6466 60.4817 15.1092 60.1489 15.5021C59.8162 15.895 59.3435 16.2005 58.7911 16.3796C58.2387 16.5587 57.6316 16.6033 57.0471 16.5078C56.4626 16.4122 55.9272 16.1808 55.5091 15.8431C55.0911 15.5054 54.8092 15.0765 54.6995 14.6112C54.5897 14.146 54.657 13.6655 54.8929 13.2307C55.1288 12.7959 55.5226 12.4267 56.024 12.17C56.5254 11.9133 57.1117 11.7809 57.7084 11.7895C58.1005 11.7894 58.489 11.8514 58.8506 11.9717C59.2122 12.0921 59.54 12.2683 59.8147 12.4902C60.0895 12.7122 60.3056 12.9753 60.4506 13.2643C60.5957 13.5533 60.6667 13.8623 60.6594 14.1733Z" fill="#BDD6EA"/>
<path d="M541.999 11.0957C541.999 11.5672 541.823 12.0281 541.493 12.4201C541.162 12.8121 540.693 13.1177 540.144 13.2981C539.595 13.4786 538.99 13.5257 538.407 13.4337C537.824 13.3417 537.289 13.1147 536.868 12.7814C536.448 12.448 536.162 12.0232 536.046 11.5607C535.93 11.0983 535.989 10.619 536.217 10.1834C536.444 9.74778 536.83 9.37549 537.324 9.11355C537.818 8.8516 538.399 8.71183 538.994 8.71183C539.39 8.70595 539.785 8.76356 540.153 8.88128C540.521 8.999 540.855 9.17433 541.136 9.39688C541.416 9.61943 541.637 9.88461 541.786 10.1765C541.934 10.4684 542.007 10.781 541.999 11.0957Z" fill="#BDD6EA"/>
<path d="M6.01123 11.0957C6.01123 11.5672 5.835 12.0281 5.50474 12.4201C5.17448 12.8121 4.70509 13.1177 4.15588 13.2981C3.60667 13.4786 3.00232 13.5257 2.41928 13.4337C1.83624 13.3417 1.30065 13.1147 0.880302 12.7814C0.459955 12.448 0.173752 12.0232 0.0577789 11.5607C-0.0581945 11.0983 0.00123082 10.619 0.228721 10.1834C0.456211 9.74778 0.841482 9.37549 1.33576 9.11355C1.83003 8.8516 2.41119 8.71183 3.00565 8.71183C3.4024 8.70595 3.79654 8.76356 4.16456 8.88128C4.53257 8.999 4.86692 9.17433 5.14751 9.39688C5.4281 9.61943 5.64917 9.88461 5.79759 10.1765C5.94601 10.4684 6.01865 10.781 6.01123 11.0957Z" fill="#BDD6EA"/>
</g>
</svg>
