<svg width="295" height="109" viewBox="0 0 295 109" fill="none" xmlns="http://www.w3.org/2000/svg">
<g opacity="0.5" clip-path="url(#clip0_58_33446)">
<path d="M121.351 108.079L133.328 103.604C133.357 103.593 133.382 103.571 133.396 103.543C133.41 103.514 133.413 103.482 133.405 103.451C133.397 103.423 133.38 103.398 133.357 103.379C133.334 103.361 133.306 103.35 133.277 103.349L113.674 104.167C113.648 104.168 113.623 104.178 113.602 104.194C113.582 104.21 113.566 104.232 113.559 104.257C113.551 104.285 113.554 104.316 113.569 104.342C113.583 104.369 113.607 104.388 113.635 104.397L121.313 108.079H121.351ZM132.522 103.63L121.351 107.811L114.237 104.384L132.522 103.63Z" fill="#CCCCCC"/>
<path d="M64.1037 101.507L145.778 90.4989C145.811 90.4929 145.84 90.4754 145.861 90.4497C145.882 90.4239 145.894 90.3916 145.893 90.3583C145.887 90.3277 145.872 90.2998 145.849 90.2789C145.826 90.2581 145.796 90.2455 145.765 90.2432L104.103 87.6221L64.1804 101.188C64.1511 101.194 64.1248 101.21 64.1061 101.233C64.0874 101.257 64.0775 101.286 64.0781 101.316C64.0781 101.35 64.0916 101.382 64.1155 101.406C64.1395 101.43 64.1721 101.444 64.206 101.444L64.1037 101.507ZM144.46 90.4222L65.396 101.073L104.103 87.929L144.46 90.4222Z" fill="#CCCCCC"/>
<path d="M148.388 105.625L172.047 92.5959C172.073 92.5846 172.095 92.5639 172.106 92.5379C172.118 92.5119 172.12 92.4824 172.111 92.4552C172.103 92.4304 172.088 92.4085 172.068 92.3925C172.047 92.3765 172.022 92.3671 171.996 92.3657L145.778 90.2433C145.745 90.2304 145.708 90.2304 145.676 90.2433C145.665 90.2608 145.66 90.2806 145.66 90.3008C145.66 90.321 145.665 90.3409 145.676 90.3584L148.235 105.484C148.24 105.504 148.25 105.522 148.263 105.537C148.276 105.553 148.293 105.565 148.311 105.573L148.388 105.625ZM171.548 92.5831L148.516 105.305L145.957 90.5118L171.548 92.5831Z" fill="#CCCCCC"/>
<path d="M175.758 86.0879H175.835L194.184 72.7651C194.196 72.7437 194.202 72.7195 194.202 72.6948C194.202 72.6701 194.196 72.6458 194.184 72.6244C194.17 72.6008 194.152 72.5806 194.13 72.5651C194.108 72.5496 194.082 72.5393 194.056 72.535L156.693 73.5578C156.667 73.5592 156.642 73.5686 156.621 73.5845C156.6 73.6005 156.585 73.6225 156.577 73.6473C156.562 73.6675 156.553 73.6922 156.553 73.7176C156.553 73.7431 156.562 73.7678 156.577 73.788L175.592 86.0751L175.758 86.0879ZM193.672 72.8035L175.758 85.8066L157.166 73.8008L193.672 72.8035Z" fill="#CCCCCC"/>
<path d="M134.198 81.843C134.212 81.8498 134.227 81.8533 134.243 81.8533C134.258 81.8533 134.273 81.8498 134.287 81.843L146.328 68.4435C146.346 68.4194 146.355 68.3903 146.355 68.3604C146.355 68.3305 146.346 68.3014 146.328 68.2773C146.306 68.2607 146.279 68.2517 146.251 68.2517C146.224 68.2517 146.197 68.2607 146.175 68.2773L123.296 78.979C123.273 78.9909 123.253 79.0093 123.239 79.0319C123.226 79.0545 123.219 79.0805 123.219 79.1068C123.219 79.1353 123.229 79.1628 123.248 79.184C123.267 79.2053 123.293 79.2187 123.322 79.2219L134.134 81.843H134.198ZM145.714 68.6864L134.198 81.5745L123.808 79.0173L145.714 68.6864Z" fill="#CCCCCC"/>
<path d="M242.372 78.6721L258.417 75.2967C258.442 75.2935 258.465 75.2814 258.482 75.2626C258.498 75.2437 258.507 75.2194 258.507 75.1944C258.518 75.175 258.524 75.1529 258.524 75.1305C258.524 75.108 258.518 75.086 258.507 75.0665L246.031 67.3183C246.013 67.3094 245.994 67.3047 245.974 67.3047C245.954 67.3047 245.934 67.3094 245.916 67.3183C245.898 67.3238 245.882 67.3337 245.868 67.3471C245.855 67.3605 245.845 67.3769 245.839 67.3951L242.295 78.4548C242.289 78.48 242.289 78.5062 242.295 78.5315C242.295 78.5654 242.308 78.5979 242.332 78.6219C242.356 78.6459 242.389 78.6593 242.423 78.6593L242.372 78.6721ZM258.072 75.1177L242.564 78.378L246.006 67.6124L258.072 75.1177Z" fill="#CCCCCC"/>
<path d="M240.363 62.9712C240.386 62.9736 240.41 62.9687 240.431 62.9573C240.451 62.9458 240.468 62.9284 240.478 62.9073L252.672 41.3248C252.688 41.3047 252.696 41.2799 252.696 41.2545C252.696 41.229 252.688 41.2043 252.672 41.1842C252.654 41.1697 252.632 41.1617 252.608 41.1617C252.585 41.1617 252.562 41.1697 252.544 41.1842L214.618 53.8293C214.593 53.8371 214.571 53.8523 214.555 53.8728C214.539 53.8934 214.53 53.9184 214.529 53.9444C214.531 53.9718 214.54 53.9981 214.556 54.0206C214.572 54.0431 214.593 54.0609 214.618 54.0723L240.337 63.0223L240.363 62.9712ZM252.288 41.4911L240.312 62.6899L215.04 53.906L252.288 41.4911Z" fill="#CCCCCC"/>
<path d="M196.039 85.781C196.076 85.7715 196.108 85.7488 196.129 85.7171L210.843 61.3474C210.859 61.3273 210.867 61.3025 210.867 61.2771C210.867 61.2516 210.859 61.2269 210.843 61.2068C210.826 61.1967 210.806 61.1913 210.786 61.1913C210.766 61.1913 210.746 61.1967 210.728 61.2068L174.901 66.5256C174.877 66.5294 174.855 66.5399 174.837 66.5557C174.818 66.5715 174.805 66.5921 174.798 66.6152C174.786 66.6341 174.779 66.6563 174.779 66.6791C174.779 66.7018 174.786 66.7241 174.798 66.743L195.924 85.7938C195.943 85.8 195.963 85.802 195.983 85.7998C196.003 85.7976 196.022 85.7912 196.039 85.781ZM210.485 61.488L196.013 85.4486L175.195 66.6919L210.485 61.488Z" fill="#CCCCCC"/>
<path d="M293.669 66.9092C293.703 66.9092 293.736 66.8957 293.76 66.8717C293.784 66.8478 293.797 66.8152 293.797 66.7813L294.066 21.1361C294.067 21.1112 294.061 21.0865 294.047 21.0657C294.033 21.045 294.013 21.0293 293.989 21.021C293.969 21.0055 293.944 20.997 293.919 20.997C293.893 20.997 293.869 21.0055 293.848 21.021L254.656 59.5318C254.646 59.5518 254.642 59.5736 254.642 59.5957C254.642 59.6178 254.646 59.6396 254.656 59.6596C254.659 59.6845 254.671 59.7073 254.69 59.7238C254.709 59.7403 254.733 59.7493 254.758 59.7492L293.656 66.8964L293.669 66.9092ZM293.81 21.4813L293.477 66.6279L254.95 59.6085L293.81 21.4813Z" fill="#CCCCCC"/>
<path d="M120.558 107.197C120.657 107.097 120.774 107.018 120.904 106.964C121.033 106.91 121.172 106.882 121.313 106.882C121.453 106.882 121.592 106.91 121.722 106.964C121.851 107.018 121.969 107.097 122.068 107.197C122.275 107.39 122.398 107.656 122.41 107.938C122.422 108.221 122.322 108.497 122.132 108.706C122.033 108.806 121.915 108.885 121.786 108.939C121.656 108.993 121.517 109.021 121.377 109.021C121.236 109.021 121.097 108.993 120.968 108.939C120.838 108.885 120.721 108.806 120.622 108.706C120.415 108.513 120.292 108.247 120.28 107.965C120.268 107.682 120.368 107.406 120.558 107.197Z" fill="#D5D5D5" fill-opacity="0.6"/>
<path d="M103.258 87.0724C103.459 86.8741 103.731 86.7629 104.013 86.7629C104.296 86.7629 104.567 86.8741 104.768 87.0724C104.915 87.2213 105.015 87.4104 105.056 87.6159C105.096 87.8215 105.074 88.0343 104.993 88.2275C104.912 88.4208 104.776 88.5859 104.602 88.702C104.428 88.8181 104.223 88.8801 104.013 88.8801C103.804 88.8801 103.599 88.8181 103.424 88.702C103.25 88.5859 103.114 88.4208 103.033 88.2275C102.952 88.0343 102.931 87.8215 102.971 87.6159C103.011 87.4104 103.111 87.2213 103.258 87.0724Z" fill="#D5D5D5" fill-opacity="0.6"/>
<path d="M144.985 89.6423C145.134 89.4906 145.326 89.3869 145.535 89.3443C145.744 89.3017 145.96 89.3222 146.158 89.403C146.355 89.4839 146.524 89.6215 146.642 89.7985C146.761 89.9754 146.824 90.1836 146.824 90.3967C146.824 90.6097 146.761 90.8179 146.642 90.9948C146.524 91.1718 146.355 91.3094 146.158 91.3902C145.96 91.4711 145.744 91.4916 145.535 91.449C145.326 91.4064 145.134 91.3027 144.985 91.151C144.786 90.95 144.675 90.679 144.675 90.3967C144.675 90.1143 144.786 89.8433 144.985 89.6423Z" fill="#D5D5D5" fill-opacity="0.6"/>
<path d="M63.3232 100.651C63.5166 100.444 63.7843 100.323 64.0675 100.313C64.3506 100.303 64.626 100.407 64.833 100.6C65.04 100.793 65.1617 101.061 65.1713 101.344C65.1809 101.627 65.0776 101.902 64.8842 102.109C64.6815 102.304 64.4109 102.413 64.1293 102.413C63.8477 102.413 63.577 102.304 63.3743 102.109C63.1838 101.917 63.0727 101.66 63.0632 101.39C63.0537 101.12 63.1465 100.856 63.3232 100.651Z" fill="#D5D5D5" fill-opacity="0.6"/>
<path d="M144.985 89.6423C145.134 89.4906 145.326 89.3869 145.535 89.3443C145.744 89.3017 145.96 89.3222 146.158 89.403C146.355 89.4839 146.524 89.6215 146.642 89.7985C146.761 89.9754 146.824 90.1836 146.824 90.3967C146.824 90.6097 146.761 90.8179 146.642 90.9948C146.524 91.1718 146.355 91.3094 146.158 91.3902C145.96 91.4711 145.744 91.4916 145.535 91.449C145.326 91.4064 145.134 91.3027 144.985 91.151C144.786 90.95 144.675 90.679 144.675 90.3967C144.675 90.1143 144.786 89.8433 144.985 89.6423Z" fill="#D5D5D5" fill-opacity="0.6"/>
<path d="M193.326 71.9341C193.475 71.7868 193.665 71.6868 193.87 71.6468C194.076 71.6067 194.289 71.6284 194.482 71.7091C194.676 71.7897 194.841 71.9258 194.957 72.1C195.073 72.2743 195.135 72.479 195.135 72.6884C195.135 72.8978 195.073 73.1026 194.957 73.2768C194.841 73.4511 194.676 73.5871 194.482 73.6678C194.289 73.7484 194.076 73.7701 193.87 73.73C193.665 73.69 193.475 73.5901 193.326 73.4428C193.226 73.3441 193.147 73.2266 193.093 73.0971C193.039 72.9676 193.011 72.8287 193.011 72.6884C193.011 72.5481 193.039 72.4092 193.093 72.2797C193.147 72.1502 193.226 72.0328 193.326 71.9341Z" fill="#D5D5D5" fill-opacity="0.6"/>
<path d="M174.977 85.2312C175.179 85.0328 175.45 84.9216 175.732 84.9216C176.015 84.9216 176.286 85.0328 176.487 85.2312C176.59 85.3269 176.672 85.4418 176.73 85.5694C176.789 85.697 176.821 85.8349 176.826 85.975C176.83 86.115 176.807 86.2547 176.758 86.3859C176.709 86.5172 176.634 86.6375 176.539 86.7399C176.443 86.8423 176.328 86.9249 176.2 86.9829C176.072 87.0409 175.934 87.0732 175.794 87.0779C175.654 87.0827 175.514 87.0598 175.383 87.0106C175.251 86.9613 175.131 86.8867 175.029 86.791C174.919 86.6942 174.831 86.5761 174.768 86.4438C174.706 86.3116 174.672 86.1681 174.667 86.0221C174.662 85.8761 174.687 85.7306 174.741 85.5946C174.794 85.4586 174.875 85.335 174.977 85.2312Z" fill="#D5D5D5" fill-opacity="0.6"/>
<path d="M155.963 72.9569C156.062 72.8572 156.18 72.778 156.309 72.724C156.439 72.6699 156.578 72.6421 156.718 72.6421C156.859 72.6421 156.998 72.6699 157.127 72.724C157.257 72.778 157.374 72.8572 157.473 72.9569C157.68 73.1493 157.803 73.4157 157.815 73.6981C157.827 73.9806 157.727 74.2563 157.537 74.4656C157.438 74.5653 157.321 74.6445 157.191 74.6986C157.062 74.7526 156.923 74.7804 156.782 74.7804C156.642 74.7804 156.503 74.7526 156.373 74.6986C156.244 74.6445 156.126 74.5653 156.027 74.4656C155.82 74.2732 155.697 74.0068 155.685 73.7244C155.673 73.442 155.773 73.1662 155.963 72.9569Z" fill="#D5D5D5" fill-opacity="0.6"/>
<path d="M122.605 78.3653C122.808 78.1699 123.078 78.0608 123.36 78.0608C123.642 78.0608 123.912 78.1699 124.115 78.3653C124.215 78.4639 124.294 78.5814 124.348 78.7109C124.402 78.8404 124.43 78.9793 124.43 79.1196C124.43 79.2599 124.402 79.3988 124.348 79.5283C124.294 79.6578 124.215 79.7753 124.115 79.874C124.019 79.9764 123.904 80.0589 123.776 80.1169C123.649 80.1749 123.511 80.2072 123.371 80.212C123.23 80.2167 123.091 80.1939 122.959 80.1446C122.828 80.0954 122.708 80.0208 122.605 79.9251C122.503 79.8294 122.42 79.7144 122.362 79.5868C122.304 79.4592 122.272 79.3214 122.267 79.1813C122.262 79.0412 122.285 78.9016 122.334 78.7703C122.384 78.6391 122.458 78.5188 122.554 78.4164L122.605 78.3653Z" fill="#D5D5D5" fill-opacity="0.6"/>
<path d="M145.407 67.5741C145.61 67.3787 145.88 67.2696 146.162 67.2696C146.443 67.2696 146.714 67.3787 146.917 67.5741C147.124 67.7673 147.245 68.0349 147.255 68.3178C147.265 68.6007 147.161 68.8759 146.968 69.0828C146.774 69.2896 146.507 69.4112 146.224 69.4208C145.94 69.4304 145.665 69.3272 145.458 69.1339C145.349 69.0371 145.26 68.9189 145.198 68.7867C145.136 68.6545 145.101 68.511 145.096 68.365C145.091 68.219 145.117 68.0735 145.17 67.9375C145.223 67.8015 145.304 67.6779 145.407 67.5741Z" fill="#D5D5D5" fill-opacity="0.6"/>
<path d="M133.417 80.9864C133.566 80.8391 133.756 80.7391 133.961 80.6991C134.167 80.659 134.38 80.6807 134.573 80.7614C134.767 80.842 134.932 80.978 135.048 81.1523C135.164 81.3266 135.226 81.5313 135.226 81.7407C135.226 81.9501 135.164 82.1549 135.048 82.3291C134.932 82.5034 134.767 82.6395 134.573 82.7201C134.38 82.8008 134.167 82.8224 133.961 82.7824C133.756 82.7423 133.566 82.6424 133.417 82.4951C133.318 82.3964 133.238 82.2789 133.184 82.1495C133.13 82.02 133.102 81.881 133.102 81.7407C133.102 81.6004 133.13 81.4615 133.184 81.332C133.238 81.2026 133.318 81.0851 133.417 80.9864Z" fill="#D5D5D5" fill-opacity="0.6"/>
<path d="M257.65 74.4272C257.852 74.2319 258.123 74.1228 258.405 74.1228C258.686 74.1228 258.957 74.2319 259.16 74.4272C259.367 74.6197 259.49 74.886 259.502 75.1685C259.514 75.4509 259.414 75.7267 259.224 75.9359C259.125 76.0357 259.007 76.1149 258.878 76.1689C258.748 76.223 258.609 76.2508 258.469 76.2508C258.328 76.2508 258.189 76.223 258.06 76.1689C257.93 76.1149 257.812 76.0357 257.714 75.9359C257.506 75.7435 257.384 75.4772 257.372 75.1947C257.36 74.9123 257.46 74.6365 257.65 74.4272Z" fill="#D5D5D5" fill-opacity="0.6"/>
<path d="M241.591 77.8027C241.74 77.6554 241.929 77.5554 242.135 77.5154C242.341 77.4753 242.554 77.497 242.747 77.5776C242.941 77.6583 243.106 77.7943 243.222 77.9686C243.338 78.1429 243.4 78.3476 243.4 78.557C243.4 78.7664 243.338 78.9712 243.222 79.1454C243.106 79.3197 242.941 79.4557 242.747 79.5364C242.554 79.617 242.341 79.6387 242.135 79.5987C241.929 79.5586 241.74 79.4587 241.591 79.3114C241.491 79.2127 241.412 79.0952 241.358 78.9657C241.304 78.8362 241.276 78.6973 241.276 78.557C241.276 78.4167 241.304 78.2778 241.358 78.1483C241.412 78.0188 241.491 77.9014 241.591 77.8027Z" fill="#D5D5D5" fill-opacity="0.6"/>
<path d="M251.789 40.5449C251.982 40.3378 252.248 40.215 252.531 40.203C252.814 40.191 253.09 40.2909 253.299 40.481C253.495 40.6835 253.604 40.9539 253.604 41.2353C253.604 41.5167 253.495 41.7871 253.299 41.9897C253.107 42.1967 252.84 42.3196 252.557 42.3316C252.275 42.3435 251.999 42.2436 251.789 42.0536C251.689 41.9549 251.61 41.8374 251.556 41.708C251.502 41.5785 251.474 41.4395 251.474 41.2992C251.474 41.1589 251.502 41.02 251.556 40.8905C251.61 40.7611 251.689 40.6436 251.789 40.5449Z" fill="#D5D5D5" fill-opacity="0.6"/>
<path d="M214.644 54.9928C214.05 54.9928 213.569 54.5119 213.569 53.9188C213.569 53.3256 214.05 52.8448 214.644 52.8448C215.237 52.8448 215.719 53.3256 215.719 53.9188C215.719 54.5119 215.237 54.9928 214.644 54.9928Z" fill="#D5D5D5" fill-opacity="0.6"/>
<path d="M239.582 62.1273C239.732 61.9757 239.924 61.872 240.132 61.8294C240.341 61.7868 240.558 61.8072 240.755 61.8881C240.953 61.9689 241.121 62.1066 241.24 62.2835C241.359 62.4604 241.422 62.6687 241.422 62.8817C241.422 63.0947 241.359 63.3029 241.24 63.4798C241.121 63.6568 240.953 63.7944 240.755 63.8753C240.558 63.9562 240.341 63.9766 240.132 63.934C239.924 63.8914 239.732 63.7877 239.582 63.636C239.384 63.4351 239.273 63.1641 239.273 62.8817C239.273 62.5993 239.384 62.3283 239.582 62.1273Z" fill="#D5D5D5" fill-opacity="0.6"/>
<path d="M209.948 60.5546C210.14 60.3475 210.407 60.2247 210.69 60.2128C210.972 60.2008 211.248 60.3006 211.458 60.4907C211.557 60.5894 211.637 60.7069 211.691 60.8364C211.745 60.9658 211.773 61.1047 211.773 61.245C211.773 61.3854 211.745 61.5243 211.691 61.6538C211.637 61.7833 211.557 61.9007 211.458 61.9994C211.265 62.2065 210.998 62.3293 210.716 62.3413C210.433 62.3533 210.157 62.2534 209.948 62.0634C209.848 61.9647 209.769 61.8472 209.715 61.7177C209.661 61.5882 209.633 61.4493 209.633 61.309C209.633 61.1687 209.661 61.0298 209.715 60.9003C209.769 60.7708 209.848 60.6533 209.948 60.5546Z" fill="#D5D5D5" fill-opacity="0.6"/>
<path d="M174.12 65.8863C174.219 65.7866 174.336 65.7074 174.466 65.6534C174.596 65.5994 174.735 65.5715 174.875 65.5715C175.015 65.5715 175.155 65.5994 175.284 65.6534C175.414 65.7074 175.531 65.7866 175.63 65.8863C175.733 65.982 175.815 66.097 175.873 66.2246C175.931 66.3522 175.964 66.49 175.968 66.6301C175.973 66.7702 175.95 66.9099 175.901 67.0411C175.852 67.1724 175.777 67.2926 175.681 67.3951C175.585 67.4975 175.47 67.5801 175.343 67.6381C175.215 67.6961 175.077 67.7284 174.937 67.7331C174.797 67.7379 174.657 67.715 174.526 67.6657C174.394 67.6165 174.274 67.5419 174.171 67.4462C174.063 67.3484 173.976 67.2299 173.915 67.0978C173.854 66.9656 173.82 66.8226 173.815 66.6771C173.811 66.5316 173.835 66.3867 173.887 66.2508C173.94 66.115 174.019 65.991 174.12 65.8863Z" fill="#D5D5D5" fill-opacity="0.6"/>
<path d="M195.258 84.9244C195.346 84.8031 195.458 84.7018 195.588 84.6269C195.717 84.552 195.861 84.5053 196.01 84.4898C196.158 84.4744 196.309 84.4905 196.451 84.5371C196.593 84.5837 196.724 84.6598 196.834 84.7604C196.945 84.861 197.033 84.9838 197.093 85.1208C197.153 85.2578 197.183 85.4058 197.182 85.5553C197.18 85.7048 197.147 85.8523 197.085 85.9881C197.022 86.1239 196.932 86.2451 196.819 86.3436C196.617 86.5389 196.346 86.648 196.065 86.648C195.783 86.648 195.512 86.5389 195.31 86.3436C195.13 86.1538 195.025 85.9049 195.016 85.6436C195.006 85.3823 195.093 85.1266 195.258 84.9244Z" fill="#D5D5D5" fill-opacity="0.6"/>
<path d="M272.657 87.242C272.858 87.0437 273.129 86.9325 273.411 86.9325C273.694 86.9325 273.965 87.0437 274.166 87.242C274.266 87.3407 274.345 87.4582 274.4 87.5877C274.454 87.7171 274.481 87.856 274.481 87.9964C274.481 88.1367 274.454 88.2756 274.4 88.4051C274.345 88.5346 274.266 88.6521 274.166 88.7507C273.974 88.9578 273.707 89.0806 273.425 89.0926C273.142 89.1046 272.866 89.0047 272.657 88.8147C272.547 88.7152 272.459 88.5938 272.399 88.4584C272.339 88.3229 272.308 88.1765 272.308 88.0283C272.308 87.8802 272.339 87.7337 272.399 87.5983C272.459 87.4629 272.547 87.3415 272.657 87.242Z" fill="#D5D5D5" fill-opacity="0.6"/>
<path d="M274.642 75.1944C274.791 75.0472 274.98 74.9472 275.186 74.9071C275.392 74.8671 275.605 74.8888 275.798 74.9695C275.992 75.0501 276.157 75.1861 276.273 75.3604C276.389 75.5347 276.451 75.7394 276.451 75.9488C276.451 76.1582 276.389 76.3629 276.273 76.5372C276.157 76.7115 275.992 76.8475 275.798 76.9282C275.605 77.0088 275.392 77.0305 275.186 76.9905C274.98 76.9504 274.791 76.8504 274.642 76.7032C274.444 76.5022 274.332 76.2312 274.332 75.9488C274.332 75.6664 274.444 75.3954 274.642 75.1944Z" fill="#D5D5D5" fill-opacity="0.6"/>
<path d="M292.889 66.0526C293.038 65.9009 293.23 65.7972 293.439 65.7546C293.648 65.712 293.865 65.7324 294.062 65.8133C294.259 65.8942 294.428 66.0318 294.546 66.2088C294.665 66.3857 294.729 66.5939 294.729 66.8069C294.729 67.0199 294.665 67.2282 294.546 67.4051C294.428 67.582 294.259 67.7197 294.062 67.8005C293.865 67.8814 293.648 67.9018 293.439 67.8592C293.23 67.8166 293.038 67.7129 292.889 67.5613C292.69 67.3603 292.579 67.0893 292.579 66.8069C292.579 66.5246 292.69 66.2535 292.889 66.0526Z" fill="#D5D5D5" fill-opacity="0.6"/>
<path d="M293.157 20.4456C293.256 20.3459 293.374 20.2667 293.503 20.2127C293.633 20.1586 293.772 20.1308 293.912 20.1308C294.053 20.1308 294.192 20.1586 294.321 20.2127C294.451 20.2667 294.569 20.3459 294.667 20.4456C294.866 20.6466 294.977 20.9176 294.977 21.2C294.977 21.4823 294.866 21.7534 294.667 21.9544C294.465 22.1497 294.194 22.2588 293.912 22.2588C293.631 22.2588 293.36 22.1497 293.157 21.9544C293.058 21.8557 292.978 21.7382 292.924 21.6087C292.87 21.4792 292.842 21.3403 292.842 21.2C292.842 21.0597 292.87 20.9208 292.924 20.7913C292.978 20.6618 293.058 20.5443 293.157 20.4456Z" fill="#D5D5D5" fill-opacity="0.6"/>
<path d="M253.965 58.9692C254.108 58.8116 254.295 58.7001 254.502 58.6488C254.708 58.5976 254.926 58.6089 255.126 58.6814C255.327 58.7539 255.501 58.8843 255.627 59.0561C255.753 59.2278 255.825 59.433 255.834 59.6458C255.843 59.8585 255.789 60.0692 255.678 60.2509C255.567 60.4327 255.404 60.5773 255.21 60.6665C255.017 60.7557 254.801 60.7854 254.591 60.7518C254.38 60.7182 254.185 60.6229 254.029 60.4779C253.821 60.2855 253.698 60.0192 253.686 59.7367C253.674 59.4543 253.774 59.1785 253.965 58.9692Z" fill="#D5D5D5" fill-opacity="0.6"/>
<path d="M221.643 60.8743C221.049 60.8743 220.568 60.3935 220.568 59.8003C220.568 59.2072 221.049 58.7263 221.643 58.7263C222.237 58.7263 222.718 59.2072 222.718 59.8003C222.718 60.3935 222.237 60.8743 221.643 60.8743Z" fill="#D5D5D5" fill-opacity="0.6"/>
<path d="M237.637 52.7042C237.736 52.6045 237.854 52.5253 237.983 52.4713C238.113 52.4172 238.252 52.3894 238.392 52.3894C238.533 52.3894 238.672 52.4172 238.801 52.4713C238.931 52.5253 239.049 52.6045 239.147 52.7042C239.343 52.9068 239.452 53.1772 239.452 53.4586C239.452 53.74 239.343 54.0104 239.147 54.2129C239.052 54.3153 238.936 54.3979 238.809 54.4559C238.681 54.5139 238.543 54.5462 238.403 54.551C238.263 54.5557 238.123 54.5328 237.992 54.4836C237.86 54.4344 237.74 54.3598 237.637 54.2641C237.535 54.1684 237.452 54.0534 237.394 53.9258C237.336 53.7982 237.304 53.6604 237.299 53.5203C237.294 53.3802 237.317 53.2406 237.367 53.1093C237.416 52.9781 237.49 52.8578 237.586 52.7554L237.637 52.7042Z" fill="#D5D5D5" fill-opacity="0.6"/>
<path d="M168.081 85.5637C168.173 85.4605 168.285 85.3767 168.41 85.3174C168.535 85.2582 168.671 85.2246 168.809 85.2186C168.948 85.2127 169.086 85.2345 169.216 85.2828C169.345 85.3311 169.464 85.4048 169.565 85.4998C169.763 85.6986 169.874 85.9675 169.874 86.2477C169.874 86.528 169.763 86.7969 169.565 86.9957C169.471 87.0965 169.358 87.1777 169.232 87.2348C169.107 87.2919 168.971 87.3237 168.833 87.3285C168.696 87.3332 168.558 87.3108 168.429 87.2625C168.3 87.2142 168.181 87.1409 168.081 87.0469C167.98 86.9528 167.898 86.8399 167.841 86.7145C167.784 86.5891 167.752 86.4536 167.748 86.3159C167.743 86.1781 167.765 86.0408 167.814 85.9118C167.862 85.7827 167.935 85.6645 168.029 85.5637H168.081Z" fill="#D5D5D5" fill-opacity="0.6"/>
<path d="M148.414 83.8632C148.613 83.6656 148.882 83.5547 149.162 83.5547C149.443 83.5547 149.712 83.6656 149.911 83.8632C150.012 83.9572 150.093 84.0701 150.15 84.1956C150.207 84.321 150.239 84.4564 150.244 84.5941C150.249 84.7319 150.226 84.8692 150.178 84.9982C150.129 85.1273 150.056 85.2456 149.962 85.3463C149.868 85.4471 149.755 85.5283 149.629 85.5854C149.504 85.6425 149.368 85.6743 149.231 85.6791C149.093 85.6838 148.955 85.6614 148.826 85.613C148.697 85.5647 148.579 85.4915 148.478 85.3975C148.366 85.3049 148.276 85.1901 148.212 85.0604C148.147 84.9307 148.111 84.789 148.105 84.6445C148.099 84.4999 148.124 84.3557 148.177 84.2212C148.23 84.0866 148.311 83.9646 148.414 83.8632Z" fill="#D5D5D5" fill-opacity="0.6"/>
<path d="M194.273 65.7967C194.472 65.5992 194.741 65.4883 195.022 65.4883C195.302 65.4883 195.571 65.5992 195.77 65.7967C195.915 65.9441 196.013 66.131 196.052 66.3338C196.091 66.5367 196.069 66.7465 195.989 66.937C195.909 67.1275 195.775 67.2901 195.603 67.4045C195.431 67.5189 195.228 67.5799 195.022 67.5799C194.815 67.5799 194.613 67.5189 194.441 67.4045C194.269 67.2901 194.134 67.1275 194.054 66.937C193.974 66.7465 193.952 66.5367 193.991 66.3338C194.03 66.131 194.128 65.9441 194.273 65.7967Z" fill="#D5D5D5" fill-opacity="0.6"/>
<path d="M181.847 101.951C181.945 101.854 182.06 101.777 182.188 101.724C182.315 101.671 182.451 101.644 182.589 101.644C182.727 101.644 182.864 101.671 182.991 101.724C183.118 101.777 183.234 101.854 183.331 101.951C183.529 102.15 183.64 102.419 183.64 102.699C183.64 102.98 183.529 103.249 183.331 103.447C183.234 103.545 183.118 103.622 182.991 103.675C182.864 103.728 182.727 103.755 182.589 103.755C182.451 103.755 182.315 103.728 182.188 103.675C182.06 103.622 181.945 103.545 181.847 103.447C181.649 103.249 181.538 102.98 181.538 102.699C181.538 102.419 181.649 102.15 181.847 101.951Z" fill="#D5D5D5" fill-opacity="0.6"/>
<path d="M170.501 91.9268C170.649 91.7777 170.838 91.6759 171.045 91.6344C171.251 91.5929 171.465 91.6135 171.659 91.6937C171.854 91.7738 172.02 91.9098 172.137 92.0844C172.254 92.2591 172.316 92.4646 172.316 92.6747C172.316 92.8849 172.254 93.0904 172.137 93.265C172.02 93.4397 171.854 93.5757 171.659 93.6558C171.465 93.736 171.251 93.7566 171.045 93.7151C170.838 93.6736 170.649 93.5718 170.501 93.4227C170.303 93.2239 170.192 92.955 170.192 92.6747C170.192 92.3945 170.303 92.1256 170.501 91.9268Z" fill="#D5D5D5" fill-opacity="0.6"/>
<path d="M274.873 65.49C275.072 65.2925 275.341 65.1816 275.621 65.1816C275.902 65.1816 276.171 65.2925 276.37 65.49C276.573 65.6799 276.693 65.9428 276.703 66.221C276.712 66.4991 276.611 66.7697 276.421 66.9731C276.231 67.1766 275.968 67.2963 275.689 67.3059C275.411 67.3154 275.14 67.2142 274.937 67.0243C274.825 66.9318 274.735 66.8169 274.67 66.6872C274.606 66.5576 274.57 66.4159 274.564 66.2713C274.558 66.1268 274.582 65.9826 274.635 65.848C274.689 65.7134 274.769 65.5915 274.873 65.49Z" fill="#D5D5D5" fill-opacity="0.6"/>
<path d="M260.209 43.1533C260.303 43.0517 260.416 42.9696 260.542 42.9117C260.668 42.8539 260.804 42.8213 260.942 42.816C261.081 42.8106 261.219 42.8326 261.349 42.8806C261.479 42.9286 261.598 43.0017 261.7 43.0957C261.801 43.1897 261.883 43.3029 261.941 43.4286C261.999 43.5544 262.032 43.6902 262.037 43.8286C262.042 43.9669 262.02 44.1049 261.972 44.2347C261.924 44.3646 261.851 44.4837 261.757 44.5853C261.66 44.6827 261.544 44.76 261.417 44.8127C261.289 44.8654 261.153 44.8926 261.015 44.8926C260.877 44.8926 260.741 44.8654 260.613 44.8127C260.486 44.76 260.37 44.6827 260.273 44.5853C260.079 44.4009 259.965 44.1489 259.953 43.8821C259.941 43.6152 260.033 43.3541 260.209 43.1533Z" fill="#D5D5D5" fill-opacity="0.6"/>
</g>
<defs>
<clipPath id="clip0_58_33446">
<rect width="295" height="109" fill="white" transform="matrix(-1 0 0 1 295 0)"/>
</clipPath>
</defs>
</svg>
