<svg width="274" height="101" viewBox="0 0 274 101" fill="none" xmlns="http://www.w3.org/2000/svg">
<g opacity="0.5">
<path d="M214.46 94.0574L138.6 83.8568C138.569 83.8512 138.542 83.8351 138.522 83.8112C138.502 83.7873 138.492 83.7573 138.493 83.7265C138.498 83.6981 138.512 83.6723 138.534 83.653C138.555 83.6337 138.583 83.622 138.611 83.6199L177.308 81.1912L214.388 93.7612C214.416 93.7668 214.44 93.7816 214.457 93.8033C214.475 93.8249 214.484 93.852 214.483 93.8797C214.483 93.9111 214.471 93.9412 214.449 93.9635C214.426 93.9857 214.396 93.9982 214.365 93.9982L214.46 94.0574ZM139.824 83.7857L213.259 93.6546L177.308 81.4755L139.824 83.7857Z" fill="#CCCCCC"/>
<path d="M136.175 97.8723L114.2 85.7998C114.176 85.7893 114.156 85.7702 114.145 85.7461C114.134 85.722 114.133 85.6947 114.141 85.6695C114.148 85.6465 114.162 85.6262 114.181 85.6114C114.2 85.5965 114.224 85.5879 114.248 85.5866L138.599 83.6199C138.63 83.608 138.664 83.608 138.695 83.6199C138.704 83.6361 138.709 83.6545 138.709 83.6732C138.709 83.6919 138.704 83.7103 138.695 83.7265L136.318 97.742C136.312 97.7601 136.303 97.7769 136.291 97.7913C136.279 97.8056 136.264 97.8171 136.246 97.8249L136.175 97.8723ZM114.664 85.788L136.056 97.5761L138.433 83.8687L114.664 85.788Z" fill="#CCCCCC"/>
<path d="M110.754 79.7695H110.682L93.6396 67.4245C93.6282 67.4047 93.6221 67.3823 93.6221 67.3594C93.6221 67.3365 93.6282 67.314 93.6396 67.2942C93.6519 67.2723 93.6689 67.2535 93.6895 67.2392C93.7101 67.2248 93.7337 67.2153 93.7585 67.2113L128.462 68.1591C128.486 68.1604 128.509 68.169 128.528 68.1838C128.547 68.1987 128.562 68.219 128.569 68.242C128.583 68.2607 128.591 68.2836 128.591 68.3072C128.591 68.3308 128.583 68.3537 128.569 68.3723L110.908 79.7577L110.754 79.7695ZM94.115 67.4601L110.754 79.5089L128.022 68.3842L94.115 67.4601Z" fill="#CCCCCC"/>
<path d="M149.355 75.8362C149.342 75.8425 149.328 75.8457 149.314 75.8457C149.299 75.8457 149.285 75.8425 149.272 75.8362L138.088 63.4201C138.072 63.3978 138.063 63.3708 138.063 63.3431C138.063 63.3154 138.072 63.2885 138.088 63.2661C138.109 63.2507 138.134 63.2424 138.16 63.2424C138.185 63.2424 138.211 63.2507 138.231 63.2661L159.481 73.1824C159.503 73.1935 159.521 73.2105 159.534 73.2314C159.546 73.2524 159.553 73.2764 159.552 73.3008C159.552 73.3272 159.543 73.3527 159.525 73.3724C159.508 73.392 159.483 73.4045 159.457 73.4075L149.415 75.8362H149.355ZM138.659 63.6452L149.355 75.5874L159.006 73.2179L138.659 63.6452Z" fill="#CCCCCC"/>
<path d="M50.7477 58.3495C50.7259 58.3517 50.704 58.3472 50.6849 58.3366C50.6657 58.326 50.6503 58.3099 50.6407 58.2903L39.3146 38.2919C39.3001 38.2732 39.2923 38.2503 39.2923 38.2267C39.2923 38.2031 39.3001 38.1802 39.3146 38.1615C39.3315 38.1481 39.3524 38.1407 39.374 38.1407C39.3956 38.1407 39.4166 38.1481 39.4334 38.1615L74.6597 49.8786C74.6828 49.8858 74.7032 49.8999 74.7181 49.9189C74.7329 49.938 74.7416 49.9611 74.7429 49.9852C74.741 50.0106 74.7322 50.035 74.7176 50.0558C74.7029 50.0766 74.683 50.0932 74.6597 50.1037L50.7715 58.3969L50.7477 58.3495ZM39.6711 38.4459L50.7952 58.0888L74.2675 49.9497L39.6711 38.4459Z" fill="#CCCCCC"/>
<path d="M91.9163 79.4851C91.8822 79.4763 91.8526 79.4552 91.8331 79.4259L78.1657 56.8448C78.1513 56.8262 78.1434 56.8032 78.1434 56.7796C78.1434 56.756 78.1513 56.7331 78.1657 56.7145C78.182 56.7051 78.2004 56.7002 78.2192 56.7002C78.238 56.7002 78.2564 56.7051 78.2727 56.7145L111.55 61.643C111.572 61.6465 111.593 61.6562 111.609 61.6708C111.626 61.6855 111.639 61.7046 111.645 61.7259C111.657 61.7435 111.663 61.7641 111.663 61.7852C111.663 61.8062 111.657 61.8269 111.645 61.8444L92.0233 79.497C92.0056 79.5027 91.987 79.5046 91.9685 79.5025C91.9501 79.5005 91.9323 79.4946 91.9163 79.4851ZM78.4985 56.9751L91.9401 79.1771L111.277 61.797L78.4985 56.9751Z" fill="#CCCCCC"/>
<path d="M1.23603 61.9984C1.20451 61.9984 1.17428 61.9859 1.15199 61.9637C1.1297 61.9415 1.11718 61.9114 1.11718 61.8799L0.867603 19.5848C0.86629 19.5617 0.872535 19.5388 0.885396 19.5196C0.898257 19.5004 0.917039 19.4858 0.938912 19.4782C0.957635 19.4638 0.980623 19.4559 1.00428 19.4559C1.02793 19.4559 1.05092 19.4638 1.06964 19.4782L37.4725 55.1625C37.4811 55.181 37.4855 55.2012 37.4855 55.2217C37.4855 55.2421 37.4811 55.2624 37.4725 55.2809C37.4696 55.304 37.4583 55.3251 37.4408 55.3404C37.4233 55.3557 37.4007 55.3641 37.3774 55.3639L1.24791 61.9866L1.23603 61.9984ZM1.1053 19.9047L1.4143 61.7377L37.1992 55.2335L1.1053 19.9047Z" fill="#CCCCCC"/>
<path d="M178.092 80.6818C177.906 80.4981 177.654 80.395 177.391 80.395C177.129 80.395 176.877 80.4981 176.69 80.6818C176.553 80.8198 176.46 80.995 176.423 81.1854C176.386 81.3759 176.406 81.5731 176.481 81.7522C176.556 81.9313 176.682 82.0842 176.844 82.1918C177.006 82.2994 177.197 82.3568 177.391 82.3568C177.586 82.3568 177.776 82.2994 177.938 82.1918C178.1 82.0842 178.227 81.9313 178.302 81.7522C178.377 81.5731 178.397 81.3759 178.359 81.1854C178.322 80.995 178.229 80.8198 178.092 80.6818Z" fill="#D5D5D5" fill-opacity="0.6"/>
<path d="M139.336 83.063C139.197 82.9225 139.019 82.8264 138.825 82.7869C138.631 82.7475 138.43 82.7664 138.247 82.8414C138.064 82.9163 137.907 83.0438 137.797 83.2078C137.686 83.3717 137.627 83.5647 137.627 83.7621C137.627 83.9594 137.686 84.1524 137.797 84.3163C137.907 84.4803 138.064 84.6078 138.247 84.6827C138.43 84.7576 138.631 84.7766 138.825 84.7371C139.019 84.6976 139.197 84.6015 139.336 84.461C139.521 84.2748 139.624 84.0237 139.624 83.7621C139.624 83.5004 139.521 83.2493 139.336 83.063Z" fill="#D5D5D5" fill-opacity="0.6"/>
<path d="M215.185 93.2637C215.005 93.0721 214.756 92.9594 214.493 92.9505C214.23 92.9416 213.974 93.0372 213.782 93.2163C213.59 93.3954 213.477 93.6434 213.468 93.9055C213.459 94.1677 213.555 94.4226 213.735 94.6143C213.923 94.7953 214.174 94.8964 214.436 94.8964C214.697 94.8964 214.949 94.7953 215.137 94.6143C215.314 94.4365 215.417 94.1987 215.426 93.9483C215.435 93.6979 215.349 93.4535 215.185 93.2637Z" fill="#D5D5D5" fill-opacity="0.6"/>
<path d="M139.336 83.063C139.197 82.9225 139.019 82.8264 138.825 82.7869C138.631 82.7475 138.43 82.7664 138.247 82.8414C138.064 82.9163 137.907 83.0438 137.797 83.2078C137.686 83.3717 137.627 83.5647 137.627 83.7621C137.627 83.9594 137.686 84.1524 137.797 84.3163C137.907 84.4803 138.064 84.6078 138.247 84.6827C138.43 84.7576 138.631 84.7766 138.825 84.7371C139.019 84.6976 139.197 84.6015 139.336 84.461C139.521 84.2748 139.624 84.0237 139.624 83.7621C139.624 83.5004 139.521 83.2493 139.336 83.063Z" fill="#D5D5D5" fill-opacity="0.6"/>
<path d="M94.4359 66.6545C94.2975 66.518 94.1218 66.4254 93.9307 66.3883C93.7396 66.3512 93.5418 66.3712 93.3622 66.446C93.1826 66.5207 93.0291 66.6468 92.9212 66.8082C92.8133 66.9697 92.7557 67.1594 92.7557 67.3535C92.7557 67.5475 92.8133 67.7372 92.9212 67.8987C93.0291 68.0602 93.1826 68.1862 93.3622 68.2609C93.5418 68.3357 93.7396 68.3557 93.9307 68.3186C94.1218 68.2815 94.2975 68.1889 94.4359 68.0525C94.5286 67.961 94.6022 67.8521 94.6524 67.7322C94.7027 67.6122 94.7285 67.4835 94.7285 67.3535C94.7285 67.2235 94.7027 67.0947 94.6524 66.9747C94.6022 66.8548 94.5286 66.7459 94.4359 66.6545Z" fill="#D5D5D5" fill-opacity="0.6"/>
<path d="M111.479 78.9757C111.292 78.7919 111.04 78.6888 110.777 78.6888C110.515 78.6888 110.263 78.7919 110.076 78.9757C109.981 79.0643 109.904 79.1708 109.85 79.2891C109.796 79.4073 109.766 79.535 109.762 79.6649C109.758 79.7947 109.779 79.9241 109.825 80.0457C109.87 80.1673 109.94 80.2787 110.029 80.3736C110.118 80.4685 110.224 80.5451 110.343 80.5988C110.462 80.6526 110.59 80.6825 110.72 80.6869C110.85 80.6913 110.98 80.6701 111.102 80.6245C111.224 80.5788 111.336 80.5097 111.431 80.421C111.533 80.3313 111.615 80.2218 111.673 80.0993C111.731 79.9768 111.763 79.8439 111.767 79.7086C111.771 79.5733 111.748 79.4385 111.699 79.3124C111.649 79.1864 111.574 79.0718 111.479 78.9757Z" fill="#D5D5D5" fill-opacity="0.6"/>
<path d="M129.139 67.6022C129.048 67.5098 128.938 67.4365 128.818 67.3864C128.698 67.3363 128.568 67.3105 128.438 67.3105C128.308 67.3105 128.179 67.3363 128.058 67.3864C127.938 67.4365 127.829 67.5098 127.737 67.6022C127.544 67.7806 127.43 68.0274 127.419 68.2891C127.408 68.5508 127.501 68.8063 127.677 69.0002C127.769 69.0926 127.878 69.166 127.999 69.2161C128.119 69.2661 128.248 69.2919 128.379 69.2919C128.509 69.2919 128.638 69.2661 128.759 69.2161C128.879 69.166 128.988 69.0926 129.08 69.0002C129.272 68.8219 129.387 68.5751 129.398 68.3134C129.409 68.0517 129.316 67.7962 129.139 67.6022Z" fill="#D5D5D5" fill-opacity="0.6"/>
<path d="M78.9858 77.9805C78.8474 77.844 78.6716 77.7514 78.4806 77.7143C78.2895 77.6772 78.0917 77.6973 77.9121 77.772C77.7324 77.8467 77.579 77.9728 77.4711 78.1343C77.3631 78.2958 77.3055 78.4855 77.3055 78.6795C77.3055 78.8736 77.3631 79.0633 77.4711 79.2247C77.579 79.3862 77.7324 79.5122 77.9121 79.587C78.0917 79.6617 78.2895 79.6818 78.4806 79.6447C78.6716 79.6076 78.8474 79.515 78.9858 79.3785C79.1701 79.1923 79.2735 78.9412 79.2735 78.6795C79.2735 78.4179 79.1701 78.1668 78.9858 77.9805Z" fill="#D5D5D5" fill-opacity="0.6"/>
<path d="M160.123 72.6137C159.934 72.4327 159.683 72.3315 159.421 72.3315C159.16 72.3315 158.909 72.4327 158.72 72.6137C158.628 72.7051 158.554 72.8139 158.504 72.9339C158.454 73.0539 158.428 73.1826 158.428 73.3127C158.428 73.4427 158.454 73.5714 158.504 73.6913C158.554 73.8113 158.628 73.9202 158.72 74.0116C158.809 74.1065 158.916 74.183 159.035 74.2368C159.153 74.2905 159.281 74.3205 159.412 74.3249C159.542 74.3293 159.672 74.3081 159.794 74.2625C159.916 74.2168 160.027 74.1477 160.123 74.059C160.218 73.9704 160.295 73.8638 160.349 73.7456C160.402 73.6273 160.432 73.4997 160.437 73.3699C160.441 73.24 160.42 73.1106 160.374 72.989C160.329 72.8674 160.259 72.7559 160.17 72.661L160.123 72.6137Z" fill="#D5D5D5" fill-opacity="0.6"/>
<path d="M138.944 62.6145C138.756 62.4335 138.505 62.3324 138.243 62.3324C137.981 62.3324 137.73 62.4335 137.542 62.6145C137.35 62.7936 137.236 63.0415 137.228 63.3037C137.219 63.5658 137.315 63.8208 137.494 64.0125C137.674 64.2042 137.923 64.3168 138.186 64.3257C138.449 64.3346 138.704 64.239 138.897 64.0599C138.998 63.9702 139.081 63.8607 139.138 63.7382C139.196 63.6157 139.228 63.4827 139.233 63.3474C139.237 63.2121 139.214 63.0773 139.164 62.9513C139.115 62.8253 139.04 62.7107 138.944 62.6145Z" fill="#D5D5D5" fill-opacity="0.6"/>
<path d="M150.08 75.0424C149.942 74.9059 149.766 74.8133 149.575 74.7762C149.384 74.7391 149.186 74.7592 149.006 74.8339C148.827 74.9087 148.673 75.0347 148.565 75.1962C148.457 75.3577 148.4 75.5474 148.4 75.7414C148.4 75.9354 148.457 76.1251 148.565 76.2866C148.673 76.4481 148.827 76.5742 149.006 76.6489C149.186 76.7236 149.384 76.7437 149.575 76.7066C149.766 76.6695 149.942 76.5769 150.08 76.4404C150.173 76.3489 150.246 76.2401 150.297 76.1201C150.347 76.0001 150.373 75.8714 150.373 75.7414C150.373 75.6114 150.347 75.4827 150.297 75.3627C150.246 75.2427 150.173 75.1338 150.08 75.0424Z" fill="#D5D5D5" fill-opacity="0.6"/>
<path d="M34.6915 68.9647C34.5032 68.7837 34.2518 68.6826 33.9903 68.6826C33.7287 68.6826 33.4774 68.7837 33.2891 68.9647C33.0966 69.143 32.9824 69.3898 32.9713 69.6515C32.9602 69.9133 33.053 70.1688 33.2297 70.3627C33.3214 70.4551 33.4306 70.5285 33.551 70.5786C33.6713 70.6286 33.8004 70.6544 33.9309 70.6544C34.0613 70.6544 34.1904 70.6286 34.3108 70.5786C34.4311 70.5285 34.5403 70.4551 34.6321 70.3627C34.8245 70.1844 34.9387 69.9376 34.9498 69.6759C34.961 69.4142 34.8681 69.1586 34.6915 68.9647Z" fill="#D5D5D5" fill-opacity="0.6"/>
<path d="M49.6068 72.0923C49.4684 71.9559 49.2926 71.8632 49.1015 71.8261C48.9105 71.789 48.7127 71.8091 48.533 71.8838C48.3534 71.9586 48.2 72.0846 48.092 72.2461C47.9841 72.4076 47.9265 72.5973 47.9265 72.7913C47.9265 72.9854 47.9841 73.1751 48.092 73.3366C48.2 73.498 48.3534 73.6241 48.533 73.6988C48.7127 73.7735 48.9105 73.7936 49.1015 73.7565C49.2926 73.7194 49.4684 73.6268 49.6068 73.4903C49.6995 73.3989 49.7731 73.29 49.8233 73.17C49.8735 73.05 49.8994 72.9213 49.8994 72.7913C49.8994 72.6613 49.8735 72.5326 49.8233 72.4126C49.7731 72.2926 49.6995 72.1838 49.6068 72.0923Z" fill="#D5D5D5" fill-opacity="0.6"/>
<path d="M46.3028 61.7851C46.1145 61.6042 45.8632 61.5031 45.6016 61.5031C45.3401 61.5031 45.0887 61.6042 44.9004 61.7851C44.7079 61.9635 44.5937 62.2103 44.5826 62.472C44.5715 62.7337 44.6643 62.9892 44.841 63.1831C44.9327 63.2755 45.0419 63.3489 45.1623 63.399C45.2826 63.4491 45.4118 63.4749 45.5422 63.4749C45.6726 63.4749 45.8017 63.4491 45.9221 63.399C46.0424 63.3489 46.1517 63.2755 46.2434 63.1831C46.4359 63.0048 46.55 62.758 46.5612 62.4963C46.5723 62.2346 46.4795 61.9791 46.3028 61.7851Z" fill="#D5D5D5" fill-opacity="0.6"/>
<path d="M40.1347 37.5692C39.9558 37.3773 39.7082 37.2634 39.4457 37.2524C39.1831 37.2413 38.9268 37.3338 38.7323 37.5099C38.5507 37.6976 38.4493 37.9482 38.4493 38.2089C38.4493 38.4697 38.5507 38.7202 38.7323 38.9079C38.9112 39.0998 39.1587 39.2136 39.4213 39.2247C39.6838 39.2358 39.9401 39.1432 40.1347 38.9671C40.2274 38.8757 40.301 38.7668 40.3512 38.6469C40.4014 38.5269 40.4273 38.3982 40.4273 38.2681C40.4273 38.1381 40.4014 38.0094 40.3512 37.8895C40.301 37.7695 40.2274 37.6606 40.1347 37.5692Z" fill="#D5D5D5" fill-opacity="0.6"/>
<path d="M74.636 50.9567C75.1874 50.9567 75.6343 50.5111 75.6343 49.9615C75.6343 49.4119 75.1874 48.9663 74.636 48.9663C74.0847 48.9663 73.6377 49.4119 73.6377 49.9615C73.6377 50.5111 74.0847 50.9567 74.636 50.9567Z" fill="#D5D5D5" fill-opacity="0.6"/>
<path d="M51.4727 57.5676C51.3336 57.427 51.1558 57.3309 50.9618 57.2915C50.7677 57.252 50.5663 57.2709 50.3831 57.3458C50.2 57.4208 50.0433 57.5483 49.933 57.7123C49.8227 57.8762 49.7638 58.0691 49.7638 58.2665C49.7638 58.4639 49.8227 58.6569 49.933 58.8208C50.0433 58.9847 50.2 59.1123 50.3831 59.1872C50.5663 59.2622 50.7677 59.2811 50.9618 59.2416C51.1558 59.2021 51.3336 59.106 51.4727 58.9655C51.6571 58.7793 51.7604 58.5282 51.7604 58.2665C51.7604 58.0049 51.6571 57.7538 51.4727 57.5676Z" fill="#D5D5D5" fill-opacity="0.6"/>
<path d="M78.9977 56.1103C78.8188 55.9184 78.5712 55.8046 78.3087 55.7935C78.0462 55.7824 77.7898 55.8749 77.5953 56.051C77.5026 56.1425 77.429 56.2513 77.3788 56.3713C77.3285 56.4913 77.3027 56.62 77.3027 56.75C77.3027 56.88 77.3285 57.0088 77.3788 57.1287C77.429 57.2487 77.5026 57.3576 77.5953 57.449C77.7742 57.6409 78.0217 57.7547 78.2843 57.7658C78.5468 57.7769 78.8032 57.6844 78.9977 57.5083C79.0904 57.4168 79.164 57.308 79.2142 57.188C79.2645 57.068 79.2903 56.9393 79.2903 56.8093C79.2903 56.6793 79.2645 56.5505 79.2142 56.4306C79.164 56.3106 79.0904 56.2017 78.9977 56.1103Z" fill="#D5D5D5" fill-opacity="0.6"/>
<path d="M112.275 61.0506C112.183 60.9582 112.074 60.8848 111.954 60.8348C111.833 60.7847 111.704 60.7589 111.574 60.7589C111.443 60.7589 111.314 60.7847 111.194 60.8348C111.073 60.8848 110.964 60.9582 110.872 61.0506C110.777 61.1393 110.701 61.2458 110.647 61.364C110.593 61.4823 110.563 61.61 110.558 61.7398C110.554 61.8696 110.575 61.999 110.621 62.1206C110.667 62.2422 110.736 62.3537 110.825 62.4486C110.914 62.5435 111.021 62.62 111.139 62.6738C111.258 62.7275 111.386 62.7574 111.516 62.7618C111.646 62.7662 111.776 62.745 111.898 62.6994C112.02 62.6538 112.132 62.5847 112.227 62.496C112.328 62.4053 112.408 62.2955 112.465 62.1731C112.522 62.0507 112.554 61.9181 112.558 61.7833C112.562 61.6485 112.54 61.5142 112.491 61.3883C112.442 61.2625 112.369 61.1476 112.275 61.0506Z" fill="#D5D5D5" fill-opacity="0.6"/>
<path d="M92.6413 78.6914C92.56 78.5791 92.4558 78.4851 92.3356 78.4157C92.2154 78.3464 92.0818 78.3031 91.9436 78.2887C91.8054 78.2744 91.6657 78.2893 91.5337 78.3325C91.4017 78.3757 91.2804 78.4462 91.1776 78.5394C91.0748 78.6326 90.993 78.7464 90.9374 78.8734C90.8818 79.0003 90.8538 79.1375 90.8551 79.276C90.8564 79.4145 90.887 79.5512 90.945 79.677C91.0029 79.8029 91.0869 79.9151 91.1914 80.0064C91.3797 80.1874 91.631 80.2885 91.8926 80.2885C92.1541 80.2885 92.4055 80.1874 92.5938 80.0064C92.7609 79.8305 92.858 79.5999 92.8667 79.3578C92.8755 79.1157 92.7953 78.8788 92.6413 78.6914Z" fill="#D5D5D5" fill-opacity="0.6"/>
<path d="M71.6885 67.5192C71.5017 67.3354 71.2498 67.2324 70.9874 67.2324C70.7249 67.2324 70.473 67.3354 70.2862 67.5192C70.1934 67.6106 70.1199 67.7195 70.0696 67.8395C70.0194 67.9595 69.9935 68.0882 69.9935 68.2182C69.9935 68.3482 70.0194 68.4769 70.0696 68.5969C70.1199 68.7169 70.1934 68.8258 70.2862 68.9172C70.465 69.1091 70.7126 69.2229 70.9751 69.234C71.2377 69.2451 71.494 69.1525 71.6885 68.9764C71.7906 68.8843 71.8721 68.7718 71.9279 68.6463C71.9837 68.5208 72.0125 68.3851 72.0125 68.2478C72.0125 68.1106 71.9837 67.9748 71.9279 67.8493C71.8721 67.7239 71.7906 67.6114 71.6885 67.5192Z" fill="#D5D5D5" fill-opacity="0.6"/>
<path d="M23.3771 80.8365C23.2387 80.7 23.0629 80.6074 22.8719 80.5703C22.6808 80.5332 22.483 80.5533 22.3034 80.628C22.1237 80.7027 21.9703 80.8288 21.8624 80.9902C21.7544 81.1517 21.6968 81.3414 21.6968 81.5355C21.6968 81.7295 21.7544 81.9192 21.8624 82.0807C21.9703 82.2422 22.1237 82.3682 22.3034 82.443C22.483 82.5177 22.6808 82.5378 22.8719 82.5007C23.0629 82.4636 23.2387 82.3709 23.3771 82.2345C23.5614 82.0482 23.6648 81.7971 23.6648 81.5355C23.6648 81.2738 23.5614 81.0227 23.3771 80.8365Z" fill="#D5D5D5" fill-opacity="0.6"/>
<path d="M1.96099 61.2046C1.82191 61.0641 1.64406 60.968 1.45004 60.9286C1.25603 60.8891 1.05462 60.908 0.871426 60.9829C0.688233 61.0579 0.531531 61.1854 0.421246 61.3494C0.310961 61.5133 0.252075 61.7062 0.252075 61.9036C0.252075 62.101 0.310961 62.2939 0.421246 62.4579C0.531531 62.6218 0.688233 62.7494 0.871426 62.8243C1.05462 62.8993 1.25603 62.9182 1.45004 62.8787C1.64406 62.8392 1.82191 62.7431 1.96099 62.6026C2.14534 62.4164 2.24871 62.1653 2.24871 61.9036C2.24871 61.642 2.14534 61.3909 1.96099 61.2046Z" fill="#D5D5D5" fill-opacity="0.6"/>
<path d="M1.71141 18.945C1.61968 18.8526 1.51048 18.7792 1.39012 18.7292C1.26976 18.6791 1.14063 18.6533 1.01021 18.6533C0.879793 18.6533 0.750669 18.6791 0.630309 18.7292C0.50995 18.7792 0.400746 18.8526 0.309015 18.945C0.124664 19.1313 0.0213013 19.3824 0.0213013 19.644C0.0213013 19.9057 0.124664 20.1568 0.309015 20.343C0.497298 20.524 0.748658 20.6251 1.01021 20.6251C1.27177 20.6251 1.52313 20.524 1.71141 20.343C1.80412 20.2516 1.87772 20.1427 1.92794 20.0227C1.97817 19.9028 2.00404 19.774 2.00404 19.644C2.00404 19.514 1.97817 19.3853 1.92794 19.2653C1.87772 19.1453 1.80412 19.0365 1.71141 18.945Z" fill="#D5D5D5" fill-opacity="0.6"/>
<path d="M38.1143 54.6412C37.9812 54.4951 37.8076 54.3918 37.6154 54.3443C37.4233 54.2968 37.2214 54.3073 37.0353 54.3745C36.8492 54.4417 36.6873 54.5626 36.5702 54.7217C36.4531 54.8808 36.3862 55.071 36.3778 55.2681C36.3694 55.4653 36.42 55.6604 36.5232 55.8288C36.6263 55.9973 36.7773 56.1313 36.9571 56.2139C37.1368 56.2966 37.3372 56.3241 37.5326 56.293C37.7281 56.2619 37.9099 56.1735 38.0548 56.0392C38.2473 55.8609 38.3615 55.6141 38.3726 55.3524C38.3838 55.0907 38.2909 54.8351 38.1143 54.6412Z" fill="#D5D5D5" fill-opacity="0.6"/>
<path d="M68.135 56.4065C68.6864 56.4065 69.1333 55.9609 69.1333 55.4113C69.1333 54.8617 68.6864 54.4161 68.135 54.4161C67.5837 54.4161 67.1367 54.8617 67.1367 55.4113C67.1367 55.9609 67.5837 56.4065 68.135 56.4065Z" fill="#D5D5D5" fill-opacity="0.6"/>
<path d="M53.2791 48.836C53.1874 48.7436 53.0782 48.6702 52.9579 48.6202C52.8375 48.5701 52.7084 48.5443 52.5779 48.5443C52.4475 48.5443 52.3184 48.5701 52.198 48.6202C52.0777 48.6702 51.9685 48.7436 51.8767 48.836C51.6952 49.0237 51.5938 49.2743 51.5938 49.535C51.5938 49.7957 51.6952 50.0463 51.8767 50.234C51.9657 50.3289 52.0726 50.4054 52.1912 50.4592C52.3098 50.5129 52.4379 50.5428 52.5681 50.5472C52.6983 50.5516 52.8281 50.5304 52.9501 50.4848C53.0721 50.4392 53.1839 50.3701 53.2791 50.2814C53.3743 50.1927 53.4511 50.0862 53.505 49.968C53.5589 49.8497 53.5889 49.722 53.5934 49.5922C53.5978 49.4624 53.5765 49.333 53.5307 49.2114C53.485 49.0898 53.4156 48.9783 53.3267 48.8834L53.2791 48.836Z" fill="#D5D5D5" fill-opacity="0.6"/>
<path d="M71.6885 67.5192C71.5017 67.3354 71.2498 67.2324 70.9874 67.2324C70.7249 67.2324 70.473 67.3354 70.2862 67.5192C70.1934 67.6106 70.1199 67.7195 70.0696 67.8395C70.0194 67.9595 69.9935 68.0882 69.9935 68.2182C69.9935 68.3482 70.0194 68.4769 70.0696 68.5969C70.1199 68.7169 70.1934 68.8258 70.2862 68.9172C70.465 69.1091 70.7126 69.2229 70.9751 69.234C71.2377 69.2451 71.494 69.1525 71.6885 68.9764C71.7906 68.8843 71.8721 68.7718 71.9279 68.6463C71.9837 68.5208 72.0125 68.3851 72.0125 68.2478C72.0125 68.1106 71.9837 67.9748 71.9279 67.8493C71.8721 67.7239 71.7906 67.6114 71.6885 67.5192Z" fill="#D5D5D5" fill-opacity="0.6"/>
<path d="M104.312 95.408C104.289 95.4085 104.266 95.4034 104.245 95.3931C104.225 95.3828 104.207 95.3676 104.193 95.3488C104.171 95.3199 104.159 95.2845 104.159 95.2481C104.159 95.2117 104.171 95.1763 104.193 95.1474L117.1 79.8406C117.135 79.8297 117.172 79.8297 117.207 79.8406L135.414 78.2649C135.449 78.2618 135.484 78.2705 135.513 78.2895C135.542 78.3085 135.564 78.3367 135.575 78.3696C135.586 78.4025 135.585 78.4381 135.573 78.4707C135.562 78.5033 135.539 78.531 135.509 78.5492L104.383 95.408H104.312ZM117.302 80.0894L104.954 94.7209L134.666 78.5848L117.302 80.0894Z" fill="#CCCCCC"/>
<path d="M64.3319 93.1096C64.3131 93.1175 64.2929 93.1215 64.2725 93.1215C64.2521 93.1215 64.2319 93.1175 64.2131 93.1096C64.1909 93.0807 64.1789 93.0453 64.1789 93.0089C64.1789 92.9725 64.1909 92.9372 64.2131 92.9082L92.7364 61.5719L116.732 53.5631C116.767 53.5523 116.804 53.5535 116.839 53.5664C116.873 53.5792 116.902 53.603 116.922 53.6342C116.944 53.6631 116.956 53.6985 116.956 53.7349C116.956 53.7713 116.944 53.8067 116.922 53.8356L64.4032 93.0385C64.3889 93.0701 64.3636 93.0954 64.3319 93.1096ZM92.9265 61.7615L65.5917 91.8538L116.042 54.0607L92.9265 61.7615Z" fill="#CCCCCC"/>
<path d="M117.884 79.2838C117.799 79.1881 117.695 79.1105 117.579 79.0556C117.462 79.0007 117.336 78.9695 117.208 78.964C117.079 78.9585 116.951 78.9787 116.83 79.0235C116.71 79.0682 116.599 79.1366 116.506 79.2246C116.322 79.4088 116.219 79.6579 116.219 79.9176C116.219 80.1773 116.322 80.4265 116.506 80.6107C116.593 80.7041 116.698 80.7793 116.815 80.8322C116.931 80.8851 117.057 80.9146 117.185 80.919C117.313 80.9234 117.441 80.9026 117.561 80.8579C117.681 80.8131 117.791 80.7452 117.884 80.6581C117.978 80.571 118.054 80.4663 118.107 80.3501C118.16 80.2339 118.189 80.1084 118.194 79.9807C118.198 79.8531 118.177 79.7259 118.132 79.6063C118.087 79.4867 118.019 79.3772 117.932 79.2838H117.884Z" fill="#D5D5D5" fill-opacity="0.6"/>
<path d="M136.151 77.708C135.966 77.525 135.717 77.4222 135.456 77.4222C135.195 77.4222 134.946 77.525 134.761 77.708C134.667 77.7951 134.592 77.8998 134.539 78.016C134.485 78.1322 134.456 78.2577 134.451 78.3853C134.447 78.513 134.468 78.6402 134.513 78.7598C134.558 78.8794 134.626 78.989 134.713 79.0823C134.801 79.1757 134.906 79.2509 135.022 79.3038C135.139 79.3567 135.265 79.3862 135.393 79.3906C135.521 79.395 135.648 79.3742 135.768 79.3295C135.888 79.2847 135.998 79.2168 136.092 79.1297C136.195 79.044 136.279 78.9376 136.339 78.8174C136.399 78.6972 136.432 78.5659 136.438 78.432C136.443 78.298 136.421 78.1644 136.372 78.0397C136.322 77.915 136.247 77.802 136.151 77.708Z" fill="#D5D5D5" fill-opacity="0.6"/>
<path d="M93.5565 60.9677C93.3717 60.7846 93.1217 60.6819 92.8612 60.6819C92.6007 60.6819 92.3508 60.7846 92.1659 60.9677C92.0314 61.1042 91.9403 61.2773 91.9041 61.4653C91.8679 61.6533 91.8883 61.8477 91.9625 62.0242C92.0368 62.2007 92.1617 62.3514 92.3216 62.4574C92.4815 62.5634 92.6692 62.6199 92.8612 62.6199C93.0532 62.6199 93.2409 62.5634 93.4008 62.4574C93.5607 62.3514 93.6856 62.2007 93.7599 62.0242C93.8342 61.8477 93.8545 61.6533 93.8183 61.4653C93.7821 61.2773 93.691 61.1042 93.5565 60.9677Z" fill="#D5D5D5" fill-opacity="0.6"/>
<path d="M65.045 92.2922C64.9545 92.2019 64.847 92.1303 64.7288 92.0814C64.6105 92.0326 64.4837 92.0074 64.3557 92.0074C64.2277 92.0074 64.1009 92.0326 63.9826 92.0814C63.8643 92.1303 63.7569 92.2019 63.6664 92.2922C63.4828 92.4764 63.3797 92.7255 63.3797 92.9852C63.3797 93.2449 63.4828 93.4941 63.6664 93.6783C63.7569 93.7686 63.8643 93.8402 63.9826 93.889C64.1009 93.9379 64.2277 93.9631 64.3557 93.9631C64.4837 93.9631 64.6105 93.9379 64.7288 93.889C64.847 93.8402 64.9545 93.7686 65.045 93.6783C65.2286 93.4941 65.3317 93.2449 65.3317 92.9852C65.3317 92.7255 65.2286 92.4764 65.045 92.2922Z" fill="#D5D5D5" fill-opacity="0.6"/>
<path d="M117.552 52.9589C117.414 52.8207 117.238 52.7264 117.047 52.6879C116.855 52.6495 116.657 52.6686 116.476 52.7428C116.295 52.8171 116.141 52.9431 116.032 53.1049C115.924 53.2668 115.866 53.4572 115.866 53.6519C115.866 53.8467 115.924 54.037 116.032 54.1989C116.141 54.3607 116.295 54.4868 116.476 54.561C116.657 54.6352 116.855 54.6543 117.047 54.6159C117.238 54.5774 117.414 54.4831 117.552 54.345C117.735 54.1608 117.838 53.9116 117.838 53.6519C117.838 53.3922 117.735 53.1431 117.552 52.9589Z" fill="#D5D5D5" fill-opacity="0.6"/>
<path d="M18.6946 60.6834C18.5098 60.5003 18.2599 60.3976 17.9994 60.3976C17.7389 60.3976 17.4889 60.5003 17.3041 60.6834C17.115 60.8593 17.0038 61.103 16.9948 61.3607C16.9859 61.6184 17.0801 61.8691 17.2566 62.0577C17.4331 62.2462 17.6775 62.3571 17.9361 62.366C18.1946 62.3748 18.4461 62.281 18.6352 62.1051C18.7386 62.0193 18.8228 61.9129 18.8824 61.7927C18.942 61.6726 18.9757 61.5413 18.9813 61.4073C18.9869 61.2734 18.9643 61.1398 18.9149 61.0151C18.8655 60.8904 18.7905 60.7774 18.6946 60.6834Z" fill="#D5D5D5" fill-opacity="0.6"/>
<path d="M32.3145 39.986C32.2271 39.8919 32.122 39.8158 32.0051 39.7622C31.8882 39.7086 31.7619 39.6784 31.6333 39.6735C31.5047 39.6685 31.3764 39.6889 31.2558 39.7333C31.1351 39.7778 31.0244 39.8455 30.9299 39.9327C30.8355 40.0198 30.7592 40.1246 30.7055 40.2411C30.6517 40.3576 30.6214 40.4836 30.6165 40.6117C30.6115 40.7399 30.6319 40.8678 30.6765 40.9881C30.7211 41.1084 30.7891 41.2188 30.8765 41.3129C30.967 41.4032 31.0744 41.4748 31.1927 41.5236C31.311 41.5725 31.4377 41.5976 31.5658 41.5976C31.6938 41.5976 31.8206 41.5725 31.9389 41.5236C32.0571 41.4748 32.1646 41.4032 32.2551 41.3129C32.4347 41.142 32.5412 40.9086 32.5523 40.6613C32.5634 40.4141 32.4782 40.1721 32.3145 39.986Z" fill="#D5D5D5" fill-opacity="0.6"/>
</g>
</svg>
