<svg width="339" height="125" viewBox="0 0 339 125" fill="none" xmlns="http://www.w3.org/2000/svg">
<g opacity="0.5" clip-path="url(#clip0_64_34868)">
<path d="M139.451 123.944L153.214 118.812C153.248 118.799 153.276 118.774 153.292 118.741C153.308 118.709 153.312 118.672 153.302 118.636C153.293 118.604 153.274 118.575 153.248 118.554C153.221 118.533 153.189 118.521 153.155 118.519L130.629 119.458C130.599 119.459 130.57 119.47 130.546 119.488C130.523 119.507 130.505 119.532 130.496 119.56C130.487 119.593 130.491 119.629 130.508 119.659C130.524 119.689 130.552 119.711 130.584 119.722L139.407 123.944H139.451ZM152.288 118.842L139.451 123.636L131.276 119.707L152.288 118.842Z" fill="#CCCCCC"/>
<path d="M73.665 116.408L167.521 103.783C167.559 103.776 167.593 103.756 167.617 103.727C167.641 103.697 167.654 103.66 167.653 103.622C167.647 103.587 167.629 103.555 167.602 103.531C167.576 103.507 167.542 103.493 167.506 103.49L119.63 100.484L73.7532 116.041C73.7195 116.048 73.6892 116.066 73.6677 116.093C73.6462 116.12 73.6348 116.153 73.6355 116.188C73.6355 116.227 73.651 116.264 73.6786 116.291C73.7062 116.319 73.7436 116.334 73.7826 116.334L73.665 116.408ZM166.007 103.695L75.1501 115.909L119.63 100.836L166.007 103.695Z" fill="#CCCCCC"/>
<path d="M170.521 121.129L197.709 106.188C197.739 106.175 197.763 106.151 197.776 106.121C197.79 106.092 197.792 106.058 197.782 106.027C197.773 105.998 197.756 105.973 197.732 105.955C197.708 105.936 197.68 105.926 197.65 105.924L167.521 103.49C167.483 103.475 167.441 103.475 167.403 103.49C167.392 103.51 167.386 103.533 167.386 103.556C167.386 103.579 167.392 103.602 167.403 103.622L170.344 120.968C170.351 120.99 170.362 121.011 170.377 121.029C170.392 121.046 170.411 121.061 170.432 121.07L170.521 121.129ZM197.135 106.173L170.668 120.762L167.727 103.798L197.135 106.173Z" fill="#CCCCCC"/>
<path d="M201.973 98.7246H202.061L223.147 83.4462C223.161 83.4216 223.168 83.3938 223.168 83.3655C223.168 83.3372 223.161 83.3094 223.147 83.2849C223.131 83.2578 223.11 83.2345 223.085 83.2168C223.059 83.199 223.03 83.1872 223 83.1823L180.064 84.3552C180.034 84.3569 180.005 84.3675 179.981 84.3859C179.958 84.4042 179.94 84.4294 179.931 84.4579C179.913 84.481 179.904 84.5093 179.904 84.5385C179.904 84.5677 179.913 84.5961 179.931 84.6192L201.782 98.7099L201.973 98.7246ZM222.558 83.4902L201.973 98.402L180.608 84.6338L222.558 83.4902Z" fill="#CCCCCC"/>
<path d="M154.214 93.8566C154.23 93.8644 154.247 93.8684 154.265 93.8684C154.283 93.8684 154.301 93.8644 154.317 93.8566L168.153 78.4902C168.174 78.4625 168.185 78.4292 168.185 78.3949C168.185 78.3606 168.174 78.3272 168.153 78.2996C168.128 78.2805 168.097 78.2703 168.065 78.2703C168.033 78.2703 168.002 78.2805 167.977 78.2996L141.686 90.5722C141.659 90.5859 141.636 90.607 141.621 90.6329C141.605 90.6588 141.597 90.6886 141.598 90.7188C141.598 90.7514 141.609 90.7829 141.631 90.8073C141.653 90.8317 141.683 90.8471 141.715 90.8508L154.14 93.8566H154.214ZM167.448 78.7688L154.214 93.5487L142.274 90.6161L167.448 78.7688Z" fill="#CCCCCC"/>
<path d="M278.522 90.2204L296.961 86.3494C296.99 86.3458 297.016 86.3319 297.035 86.3103C297.054 86.2887 297.064 86.2609 297.064 86.2322C297.077 86.2099 297.084 86.1846 297.084 86.1589C297.084 86.1331 297.077 86.1078 297.064 86.0855L282.727 77.2C282.707 77.1897 282.684 77.1843 282.661 77.1843C282.638 77.1843 282.616 77.1897 282.595 77.2C282.574 77.2063 282.555 77.2176 282.54 77.233C282.525 77.2483 282.513 77.2672 282.507 77.288L278.434 89.9711C278.428 90.0001 278.428 90.0301 278.434 90.0591C278.434 90.098 278.449 90.1353 278.477 90.1628C278.505 90.1903 278.542 90.2057 278.581 90.2057L278.522 90.2204ZM296.564 86.1442L278.743 89.8831L282.698 77.5372L296.564 86.1442Z" fill="#CCCCCC"/>
<path d="M276.214 72.2147C276.241 72.2174 276.268 72.2118 276.291 72.1987C276.315 72.1856 276.334 72.1656 276.346 72.1414L290.359 47.3909C290.377 47.3678 290.387 47.3394 290.387 47.3102C290.387 47.281 290.377 47.2527 290.359 47.2296C290.338 47.2129 290.312 47.2039 290.285 47.2039C290.259 47.2039 290.233 47.2129 290.212 47.2296L246.629 61.7309C246.6 61.7398 246.575 61.7572 246.557 61.7808C246.538 61.8044 246.528 61.833 246.526 61.8629C246.529 61.8943 246.539 61.9244 246.557 61.9502C246.576 61.976 246.6 61.9965 246.629 62.0095L276.184 72.2733L276.214 72.2147ZM289.918 47.5815L276.155 71.8921L247.114 61.8189L289.918 47.5815Z" fill="#CCCCCC"/>
<path d="M225.279 98.3728C225.321 98.3619 225.358 98.3358 225.382 98.2995L242.291 70.3526C242.309 70.3295 242.319 70.3011 242.319 70.2719C242.319 70.2427 242.309 70.2144 242.291 70.1913C242.271 70.1797 242.248 70.1736 242.225 70.1736C242.202 70.1736 242.179 70.1797 242.159 70.1913L200.988 76.2909C200.96 76.2953 200.935 76.3072 200.914 76.3254C200.893 76.3435 200.878 76.3671 200.87 76.3936C200.855 76.4153 200.848 76.4407 200.848 76.4668C200.848 76.4929 200.855 76.5185 200.87 76.5402L225.146 98.3874C225.168 98.3945 225.191 98.3968 225.214 98.3943C225.237 98.3918 225.259 98.3844 225.279 98.3728ZM241.88 70.5138L225.249 97.9915L201.326 76.4815L241.88 70.5138Z" fill="#CCCCCC"/>
<path d="M337.471 76.7307C337.51 76.7307 337.547 76.7152 337.575 76.6877C337.602 76.6602 337.618 76.6229 337.618 76.5841L337.927 24.2386C337.928 24.21 337.921 24.1817 337.905 24.1579C337.889 24.1341 337.865 24.1161 337.838 24.1066C337.815 24.0888 337.787 24.0791 337.758 24.0791C337.728 24.0791 337.7 24.0888 337.677 24.1066L292.638 68.2703C292.627 68.2934 292.622 68.3183 292.622 68.3436C292.622 68.3689 292.627 68.394 292.638 68.417C292.642 68.4455 292.656 68.4717 292.677 68.4906C292.699 68.5095 292.727 68.5199 292.756 68.5196L337.456 76.716L337.471 76.7307ZM337.633 24.6345L337.25 76.4081L292.976 68.3583L337.633 24.6345Z" fill="#CCCCCC"/>
<path d="M138.539 122.933C138.653 122.818 138.788 122.727 138.937 122.665C139.086 122.603 139.246 122.572 139.407 122.572C139.568 122.572 139.728 122.603 139.877 122.665C140.026 122.727 140.161 122.818 140.274 122.933C140.513 123.153 140.654 123.459 140.668 123.783C140.681 124.107 140.566 124.423 140.348 124.663C140.234 124.777 140.099 124.868 139.95 124.93C139.802 124.992 139.642 125.024 139.48 125.024C139.319 125.024 139.159 124.992 139.01 124.93C138.861 124.868 138.726 124.777 138.613 124.663C138.375 124.442 138.233 124.137 138.22 123.813C138.206 123.489 138.321 123.173 138.539 122.933Z" fill="#D5D5D5" fill-opacity="0.6"/>
<path d="M118.659 99.8538C118.891 99.6263 119.202 99.4988 119.527 99.4988C119.852 99.4988 120.163 99.6263 120.394 99.8538C120.564 100.024 120.679 100.241 120.725 100.477C120.771 100.713 120.746 100.957 120.653 101.178C120.56 101.4 120.404 101.589 120.204 101.723C120.003 101.856 119.768 101.927 119.527 101.927C119.286 101.927 119.051 101.856 118.85 101.723C118.65 101.589 118.493 101.4 118.401 101.178C118.308 100.957 118.283 100.713 118.329 100.477C118.375 100.241 118.49 100.024 118.659 99.8538Z" fill="#D5D5D5" fill-opacity="0.6"/>
<path d="M166.609 102.801C166.782 102.627 167.002 102.508 167.242 102.459C167.482 102.41 167.731 102.434 167.957 102.526C168.184 102.619 168.378 102.777 168.514 102.98C168.651 103.183 168.724 103.422 168.724 103.666C168.724 103.91 168.651 104.149 168.514 104.352C168.378 104.555 168.184 104.713 167.957 104.805C167.731 104.898 167.482 104.922 167.242 104.873C167.002 104.824 166.782 104.705 166.609 104.531C166.381 104.3 166.253 103.99 166.253 103.666C166.253 103.342 166.381 103.031 166.609 102.801Z" fill="#D5D5D5" fill-opacity="0.6"/>
<path d="M72.768 115.425C72.9903 115.188 73.2979 115.049 73.6233 115.038C73.9487 115.027 74.2652 115.145 74.5031 115.367C74.7409 115.588 74.8808 115.895 74.8918 116.22C74.9028 116.544 74.7842 116.86 74.5619 117.097C74.3289 117.321 74.0179 117.446 73.6943 117.446C73.3707 117.446 73.0597 117.321 72.8268 117.097C72.6078 116.877 72.4801 116.582 72.4692 116.273C72.4583 115.963 72.565 115.66 72.768 115.425Z" fill="#D5D5D5" fill-opacity="0.6"/>
<path d="M166.609 102.801C166.782 102.627 167.002 102.508 167.242 102.459C167.482 102.41 167.731 102.434 167.957 102.526C168.184 102.619 168.378 102.777 168.514 102.98C168.651 103.183 168.724 103.422 168.724 103.666C168.724 103.91 168.651 104.149 168.514 104.352C168.378 104.555 168.184 104.713 167.957 104.805C167.731 104.898 167.482 104.922 167.242 104.873C167.002 104.824 166.782 104.705 166.609 104.531C166.381 104.3 166.253 103.99 166.253 103.666C166.253 103.342 166.381 103.031 166.609 102.801Z" fill="#D5D5D5" fill-opacity="0.6"/>
<path d="M222.161 82.4932C222.333 82.3242 222.55 82.2096 222.786 82.1637C223.023 82.1178 223.268 82.1426 223.49 82.2351C223.712 82.3276 223.902 82.4836 224.035 82.6835C224.169 82.8833 224.24 83.1181 224.24 83.3582C224.24 83.5984 224.169 83.8332 224.035 84.033C223.902 84.2329 223.712 84.3889 223.49 84.4813C223.268 84.5738 223.023 84.5987 222.786 84.5528C222.55 84.5068 222.333 84.3922 222.161 84.2233C222.047 84.1102 221.956 83.9754 221.893 83.8269C221.831 83.6784 221.799 83.5191 221.799 83.3582C221.799 83.1973 221.831 83.038 221.893 82.8895C221.956 82.741 222.047 82.6063 222.161 82.4932Z" fill="#D5D5D5" fill-opacity="0.6"/>
<path d="M201.076 97.7422C201.307 97.5147 201.619 97.3872 201.943 97.3872C202.268 97.3872 202.58 97.5147 202.811 97.7422C202.929 97.8519 203.024 97.9837 203.09 98.1301C203.157 98.2764 203.194 98.4345 203.2 98.5951C203.205 98.7558 203.179 98.9159 203.122 99.0665C203.066 99.217 202.98 99.3549 202.87 99.4724C202.76 99.5898 202.627 99.6845 202.481 99.751C202.334 99.8176 202.175 99.8546 202.014 99.86C201.853 99.8654 201.693 99.8392 201.542 99.7828C201.391 99.7263 201.252 99.6408 201.135 99.531C201.009 99.42 200.907 99.2845 200.836 99.1329C200.764 98.9812 200.724 98.8167 200.719 98.6492C200.713 98.4818 200.742 98.315 200.804 98.159C200.865 98.003 200.958 97.8612 201.076 97.7422Z" fill="#D5D5D5" fill-opacity="0.6"/>
<path d="M179.225 83.6662C179.339 83.5518 179.474 83.461 179.623 83.3991C179.772 83.3371 179.932 83.3052 180.093 83.3052C180.254 83.3052 180.414 83.3371 180.563 83.3991C180.712 83.461 180.847 83.5518 180.961 83.6662C181.199 83.8869 181.34 84.1923 181.354 84.5162C181.368 84.8401 181.253 85.1564 181.034 85.3964C180.921 85.5107 180.785 85.6015 180.637 85.6635C180.488 85.7255 180.328 85.7574 180.167 85.7574C180.005 85.7574 179.845 85.7255 179.697 85.6635C179.548 85.6015 179.413 85.5107 179.299 85.3964C179.061 85.1757 178.92 84.8703 178.906 84.5464C178.892 84.2225 179.007 83.9062 179.225 83.6662Z" fill="#D5D5D5" fill-opacity="0.6"/>
<path d="M140.892 89.8684C141.125 89.6445 141.436 89.5193 141.76 89.5193C142.083 89.5193 142.394 89.6445 142.627 89.8684C142.742 89.9816 142.833 90.1163 142.895 90.2648C142.957 90.4133 142.989 90.5726 142.989 90.7335C142.989 90.8944 142.957 91.0537 142.895 91.2022C142.833 91.3507 142.742 91.4854 142.627 91.5986C142.517 91.7161 142.385 91.8107 142.238 91.8773C142.091 91.9438 141.933 91.9808 141.772 91.9863C141.611 91.9917 141.45 91.9655 141.299 91.909C141.148 91.8526 141.01 91.767 140.892 91.6573C140.774 91.5475 140.679 91.4157 140.613 91.2693C140.546 91.123 140.509 90.965 140.503 90.8043C140.498 90.6437 140.524 90.4835 140.581 90.333C140.637 90.1824 140.723 90.0445 140.833 89.9271L140.892 89.8684Z" fill="#D5D5D5" fill-opacity="0.6"/>
<path d="M167.095 77.4932C167.328 77.2692 167.639 77.144 167.962 77.144C168.286 77.144 168.597 77.2692 168.83 77.4932C169.068 77.7149 169.207 78.0216 169.218 78.3461C169.23 78.6706 169.111 78.9862 168.889 79.2234C168.666 79.4606 168.359 79.6 168.033 79.611C167.708 79.622 167.391 79.5037 167.153 79.282C167.028 79.171 166.926 79.0355 166.854 78.8839C166.783 78.7323 166.743 78.5677 166.738 78.4002C166.732 78.2328 166.761 78.066 166.822 77.91C166.884 77.7541 166.976 77.6122 167.095 77.4932Z" fill="#D5D5D5" fill-opacity="0.6"/>
<path d="M153.317 92.8743C153.488 92.7053 153.706 92.5907 153.942 92.5448C154.178 92.4989 154.423 92.5238 154.645 92.6162C154.868 92.7087 155.057 92.8647 155.191 93.0646C155.325 93.2644 155.396 93.4992 155.396 93.7393C155.396 93.9795 155.325 94.2143 155.191 94.4141C155.057 94.614 154.868 94.77 154.645 94.8625C154.423 94.955 154.178 94.9798 153.942 94.9339C153.706 94.888 153.488 94.7733 153.317 94.6044C153.202 94.4913 153.111 94.3566 153.049 94.2081C152.987 94.0596 152.955 93.9002 152.955 93.7393C152.955 93.5784 152.987 93.4192 153.049 93.2707C153.111 93.1222 153.202 92.9874 153.317 92.8743Z" fill="#D5D5D5" fill-opacity="0.6"/>
<path d="M296.079 85.3524C296.312 85.1284 296.623 85.0033 296.946 85.0033C297.27 85.0033 297.581 85.1284 297.814 85.3524C298.052 85.5731 298.193 85.8786 298.207 86.2025C298.221 86.5264 298.106 86.8426 297.887 87.0826C297.774 87.197 297.639 87.2878 297.49 87.3498C297.341 87.4117 297.181 87.4436 297.02 87.4436C296.858 87.4436 296.699 87.4117 296.55 87.3498C296.401 87.2878 296.266 87.197 296.152 87.0826C295.914 86.8619 295.773 86.5565 295.759 86.2326C295.745 85.9087 295.86 85.5924 296.079 85.3524Z" fill="#D5D5D5" fill-opacity="0.6"/>
<path d="M277.625 89.2233C277.796 89.0544 278.014 88.9397 278.25 88.8938C278.487 88.8479 278.731 88.8727 278.954 88.9652C279.176 89.0577 279.366 89.2137 279.499 89.4136C279.633 89.6134 279.704 89.8482 279.704 90.0883C279.704 90.3285 279.633 90.5633 279.499 90.7631C279.366 90.963 279.176 91.119 278.954 91.2114C278.731 91.3039 278.487 91.3288 278.25 91.2829C278.014 91.237 277.796 91.1223 277.625 90.9534C277.51 90.8403 277.419 90.7055 277.357 90.557C277.295 90.4085 277.263 90.2493 277.263 90.0883C277.263 89.9274 277.295 89.7681 277.357 89.6196C277.419 89.4711 277.51 89.3364 277.625 89.2233Z" fill="#D5D5D5" fill-opacity="0.6"/>
<path d="M281.713 76.4668C281.946 76.2428 282.257 76.1177 282.58 76.1177C282.904 76.1177 283.215 76.2428 283.448 76.4668C283.686 76.6875 283.827 76.9929 283.841 77.3168C283.855 77.6407 283.74 77.957 283.522 78.197C283.408 78.3113 283.273 78.4022 283.124 78.4641C282.975 78.5261 282.815 78.558 282.654 78.558C282.493 78.558 282.333 78.5261 282.184 78.4641C282.035 78.4022 281.9 78.3113 281.786 78.197C281.548 77.9763 281.407 77.6709 281.393 77.347C281.38 77.0231 281.494 76.7068 281.713 76.4668Z" fill="#D5D5D5" fill-opacity="0.6"/>
<path d="M289.344 46.4964C289.566 46.259 289.872 46.1181 290.197 46.1044C290.522 46.0907 290.839 46.2052 291.079 46.4232C291.304 46.6554 291.43 46.9656 291.43 47.2882C291.43 47.6109 291.304 47.921 291.079 48.1533C290.858 48.3908 290.552 48.5317 290.227 48.5454C289.902 48.5591 289.585 48.4446 289.344 48.2266C289.23 48.1135 289.139 47.9787 289.076 47.8303C289.014 47.6818 288.982 47.5224 288.982 47.3615C288.982 47.2006 289.014 47.0413 289.076 46.8929C289.139 46.7444 289.23 46.6096 289.344 46.4964Z" fill="#D5D5D5" fill-opacity="0.6"/>
<path d="M246.658 63.0651C245.976 63.0651 245.423 62.5137 245.423 61.8335C245.423 61.1532 245.976 60.6018 246.658 60.6018C247.341 60.6018 247.894 61.1532 247.894 61.8335C247.894 62.5137 247.341 63.0651 246.658 63.0651Z" fill="#D5D5D5" fill-opacity="0.6"/>
<path d="M275.317 71.2469C275.489 71.0731 275.709 70.9541 275.949 70.9053C276.189 70.8564 276.438 70.8798 276.665 70.9726C276.891 71.0653 277.085 71.2232 277.222 71.4261C277.358 71.629 277.431 71.8677 277.431 72.112C277.431 72.3563 277.358 72.5951 277.222 72.798C277.085 73.0009 276.891 73.1588 276.665 73.2515C276.438 73.3442 276.189 73.3677 275.949 73.3188C275.709 73.2699 275.489 73.151 275.317 72.9771C275.089 72.7466 274.961 72.4358 274.961 72.112C274.961 71.7882 275.089 71.4774 275.317 71.2469Z" fill="#D5D5D5" fill-opacity="0.6"/>
<path d="M241.262 69.4434C241.483 69.206 241.79 69.0651 242.114 69.0514C242.439 69.0377 242.756 69.1522 242.997 69.3701C243.112 69.4833 243.203 69.618 243.265 69.7665C243.327 69.915 243.359 70.0743 243.359 70.2352C243.359 70.3961 243.327 70.5554 243.265 70.7039C243.203 70.8524 243.112 70.9871 242.997 71.1003C242.776 71.3378 242.469 71.4787 242.145 71.4924C241.82 71.5061 241.503 71.3916 241.262 71.1736C241.147 71.0605 241.056 70.9257 240.994 70.7772C240.932 70.6287 240.9 70.4695 240.9 70.3086C240.9 70.1477 240.932 69.9883 240.994 69.8398C241.056 69.6913 241.147 69.5566 241.262 69.4434Z" fill="#D5D5D5" fill-opacity="0.6"/>
<path d="M200.091 75.5578C200.204 75.4434 200.339 75.3526 200.488 75.2907C200.637 75.2287 200.797 75.1968 200.958 75.1968C201.12 75.1968 201.279 75.2287 201.428 75.2907C201.577 75.3526 201.712 75.4434 201.826 75.5578C201.943 75.6675 202.038 75.7994 202.105 75.9457C202.172 76.0921 202.209 76.2501 202.214 76.4108C202.22 76.5714 202.194 76.7316 202.137 76.8821C202.08 77.0326 201.995 77.1705 201.885 77.288C201.774 77.4054 201.642 77.5001 201.495 77.5667C201.349 77.6332 201.19 77.6702 201.029 77.6757C200.868 77.6811 200.707 77.6548 200.556 77.5984C200.406 77.5419 200.267 77.4564 200.149 77.3466C200.025 77.2344 199.925 77.0986 199.855 76.947C199.785 76.7955 199.746 76.6315 199.74 76.4646C199.735 76.2978 199.763 76.1315 199.823 75.9758C199.883 75.82 199.974 75.6778 200.091 75.5578Z" fill="#D5D5D5" fill-opacity="0.6"/>
<path d="M224.382 97.3903C224.482 97.2513 224.611 97.1351 224.76 97.0492C224.909 96.9634 225.074 96.9098 225.245 96.892C225.416 96.8743 225.589 96.8928 225.752 96.9462C225.915 96.9997 226.066 97.087 226.193 97.2023C226.32 97.3177 226.421 97.4585 226.49 97.6156C226.559 97.7727 226.593 97.9425 226.592 98.1139C226.59 98.2853 226.552 98.4544 226.481 98.6102C226.409 98.766 226.305 98.9049 226.176 99.0179C225.943 99.2418 225.632 99.367 225.308 99.367C224.984 99.367 224.673 99.2418 224.441 99.0179C224.234 98.8002 224.114 98.5148 224.103 98.2152C224.092 97.9155 224.191 97.6223 224.382 97.3903Z" fill="#D5D5D5" fill-opacity="0.6"/>
<path d="M313.324 100.048C313.555 99.8207 313.867 99.6932 314.191 99.6932C314.516 99.6932 314.828 99.8207 315.059 100.048C315.174 100.161 315.265 100.296 315.327 100.445C315.389 100.593 315.421 100.752 315.421 100.913C315.421 101.074 315.389 101.233 315.327 101.382C315.265 101.53 315.174 101.665 315.059 101.778C314.838 102.016 314.531 102.157 314.207 102.17C313.882 102.184 313.565 102.07 313.324 101.852C313.198 101.738 313.097 101.598 313.028 101.443C312.959 101.288 312.923 101.12 312.923 100.95C312.923 100.78 312.959 100.612 313.028 100.457C313.097 100.301 313.198 100.162 313.324 100.048Z" fill="#D5D5D5" fill-opacity="0.6"/>
<path d="M315.606 86.2322C315.777 86.0633 315.994 85.9486 316.231 85.9027C316.467 85.8568 316.712 85.8817 316.934 85.9742C317.157 86.0666 317.346 86.2226 317.48 86.4225C317.613 86.6223 317.685 86.8571 317.685 87.0972C317.685 87.3374 317.613 87.5722 317.48 87.772C317.346 87.9719 317.157 88.1279 316.934 88.2204C316.712 88.3129 316.467 88.3377 316.231 88.2918C315.994 88.2459 315.777 88.1312 315.606 87.9623C315.378 87.7318 315.25 87.4211 315.25 87.0972C315.25 86.7734 315.378 86.4627 315.606 86.2322Z" fill="#D5D5D5" fill-opacity="0.6"/>
<path d="M336.574 75.7484C336.746 75.5745 336.966 75.4556 337.206 75.4067C337.446 75.3579 337.695 75.3813 337.922 75.474C338.149 75.5668 338.342 75.7246 338.479 75.9275C338.615 76.1304 338.688 76.3692 338.688 76.6135C338.688 76.8578 338.615 77.0966 338.479 77.2995C338.342 77.5024 338.149 77.6602 337.922 77.753C337.695 77.8457 337.446 77.8691 337.206 77.8203C336.966 77.7714 336.746 77.6525 336.574 77.4786C336.346 77.2481 336.218 76.9373 336.218 76.6135C336.218 76.2897 336.346 75.9789 336.574 75.7484Z" fill="#D5D5D5" fill-opacity="0.6"/>
<path d="M336.883 23.4468C336.996 23.3325 337.131 23.2417 337.28 23.1797C337.429 23.1177 337.589 23.0858 337.75 23.0858C337.912 23.0858 338.071 23.1177 338.22 23.1797C338.369 23.2417 338.504 23.3325 338.618 23.4468C338.846 23.6773 338.974 23.9881 338.974 24.3119C338.974 24.6357 338.846 24.9466 338.618 25.1771C338.385 25.401 338.074 25.5262 337.75 25.5262C337.427 25.5262 337.116 25.401 336.883 25.1771C336.768 25.0639 336.677 24.9291 336.615 24.7806C336.553 24.6321 336.521 24.4728 336.521 24.3119C336.521 24.151 336.553 23.9917 336.615 23.8432C336.677 23.6948 336.768 23.56 336.883 23.4468Z" fill="#D5D5D5" fill-opacity="0.6"/>
<path d="M291.844 67.6252C292.009 67.4444 292.223 67.3165 292.461 67.2578C292.699 67.199 292.949 67.212 293.179 67.2952C293.409 67.3783 293.61 67.5279 293.754 67.7248C293.899 67.9217 293.982 68.1571 293.992 68.4011C294.003 68.6451 293.94 68.8866 293.813 69.0951C293.685 69.3035 293.498 69.4694 293.276 69.5716C293.053 69.6739 292.805 69.708 292.564 69.6695C292.322 69.631 292.097 69.5216 291.918 69.3554C291.679 69.1347 291.538 68.8293 291.524 68.5054C291.511 68.1815 291.625 67.8652 291.844 67.6252Z" fill="#D5D5D5" fill-opacity="0.6"/>
<path d="M254.702 69.81C254.019 69.81 253.466 69.2586 253.466 68.5783C253.466 67.8981 254.019 67.3467 254.702 67.3467C255.384 67.3467 255.937 67.8981 255.937 68.5783C255.937 69.2586 255.384 69.81 254.702 69.81Z" fill="#D5D5D5" fill-opacity="0.6"/>
<path d="M273.082 60.4406C273.195 60.3262 273.33 60.2354 273.479 60.1735C273.628 60.1115 273.788 60.0796 273.949 60.0796C274.111 60.0796 274.27 60.1115 274.419 60.1735C274.568 60.2354 274.703 60.3262 274.817 60.4406C275.041 60.6729 275.167 60.983 275.167 61.3057C275.167 61.6284 275.041 61.9385 274.817 62.1708C274.707 62.2882 274.574 62.3829 274.428 62.4495C274.281 62.516 274.122 62.553 273.961 62.5585C273.8 62.5639 273.64 62.5376 273.489 62.4812C273.338 62.4247 273.199 62.3392 273.082 62.2294C272.964 62.1197 272.869 61.9879 272.802 61.8415C272.735 61.6952 272.698 61.5371 272.693 61.3765C272.687 61.2158 272.714 61.0557 272.77 60.9052C272.827 60.7546 272.913 60.6167 273.023 60.4993L273.082 60.4406Z" fill="#D5D5D5" fill-opacity="0.6"/>
<path d="M209.942 118.079C209.971 118.08 209.999 118.073 210.025 118.061C210.051 118.048 210.073 118.029 210.089 118.006C210.117 117.97 210.132 117.926 210.132 117.881C210.132 117.836 210.117 117.792 210.089 117.757L194.121 98.8126C194.078 98.799 194.031 98.799 193.988 98.8126L171.462 96.8624C171.419 96.8586 171.376 96.8694 171.34 96.8929C171.304 96.9164 171.277 96.9513 171.263 96.992C171.25 97.0327 171.25 97.0768 171.265 97.1172C171.28 97.1575 171.308 97.1917 171.344 97.2143L209.854 118.079H209.942ZM193.871 99.1205L209.148 117.229L172.388 97.2583L193.871 99.1205Z" fill="#CCCCCC"/>
<path d="M193.15 98.1236C193.256 98.0052 193.385 97.9091 193.529 97.8411C193.673 97.7732 193.829 97.7346 193.988 97.7278C194.147 97.721 194.305 97.746 194.454 97.8013C194.604 97.8567 194.74 97.9414 194.856 98.0502C195.083 98.2782 195.211 98.5866 195.211 98.908C195.211 99.2294 195.083 99.5378 194.856 99.7658C194.748 99.8813 194.618 99.9745 194.474 100.04C194.329 100.105 194.174 100.142 194.015 100.147C193.857 100.153 193.699 100.127 193.551 100.072C193.402 100.016 193.266 99.9322 193.15 99.8244C193.034 99.7166 192.941 99.5871 192.875 99.4432C192.81 99.2994 192.773 99.144 192.768 98.9861C192.762 98.8282 192.788 98.6707 192.843 98.5227C192.899 98.3747 192.983 98.2391 193.091 98.1236H193.15Z" fill="#D5D5D5" fill-opacity="0.6"/>
<path d="M170.55 96.1734C170.779 95.9468 171.088 95.8197 171.41 95.8197C171.733 95.8197 172.042 95.9468 172.27 96.1734C172.386 96.2812 172.48 96.4107 172.545 96.5546C172.611 96.6984 172.648 96.8537 172.653 97.0117C172.659 97.1696 172.633 97.3271 172.577 97.4751C172.522 97.6231 172.437 97.7587 172.329 97.8742C172.221 97.9898 172.091 98.0829 171.947 98.1484C171.803 98.2139 171.647 98.2504 171.489 98.2558C171.33 98.2613 171.172 98.2355 171.024 98.1801C170.876 98.1247 170.739 98.0407 170.624 97.9329C170.496 97.8268 170.392 97.6951 170.318 97.5464C170.244 97.3977 170.202 97.2352 170.195 97.0694C170.189 96.9036 170.217 96.7383 170.278 96.5839C170.339 96.4296 170.432 96.2897 170.55 96.1734Z" fill="#D5D5D5" fill-opacity="0.6"/>
<path d="M223.25 75.455C223.478 75.2285 223.787 75.1013 224.11 75.1013C224.432 75.1013 224.741 75.2285 224.97 75.455C225.136 75.624 225.249 75.8383 225.294 76.0709C225.339 76.3035 225.313 76.5442 225.222 76.7626C225.13 76.9811 224.975 77.1676 224.777 77.2987C224.58 77.4299 224.347 77.4999 224.11 77.4999C223.872 77.4999 223.64 77.4299 223.442 77.2987C223.244 77.1676 223.09 76.9811 222.998 76.7626C222.906 76.5442 222.881 76.3035 222.926 76.0709C222.97 75.8383 223.083 75.624 223.25 75.455Z" fill="#D5D5D5" fill-opacity="0.6"/>
<path d="M208.97 116.917C209.082 116.805 209.215 116.716 209.361 116.656C209.508 116.596 209.665 116.564 209.823 116.564C209.981 116.564 210.138 116.596 210.284 116.656C210.431 116.716 210.564 116.805 210.676 116.917C210.903 117.145 211.03 117.453 211.03 117.775C211.03 118.096 210.903 118.404 210.676 118.632C210.564 118.744 210.431 118.833 210.284 118.893C210.138 118.954 209.981 118.985 209.823 118.985C209.665 118.985 209.508 118.954 209.361 118.893C209.215 118.833 209.082 118.744 208.97 118.632C208.743 118.404 208.615 118.096 208.615 117.775C208.615 117.453 208.743 117.145 208.97 116.917Z" fill="#D5D5D5" fill-opacity="0.6"/>
<path d="M195.932 105.421C196.102 105.25 196.319 105.133 196.556 105.085C196.793 105.038 197.039 105.061 197.263 105.153C197.486 105.245 197.677 105.401 197.812 105.601C197.946 105.802 198.018 106.037 198.018 106.278C198.018 106.519 197.946 106.755 197.812 106.955C197.677 107.156 197.486 107.312 197.263 107.404C197.039 107.495 196.793 107.519 196.556 107.471C196.319 107.424 196.102 107.307 195.932 107.136C195.704 106.908 195.577 106.6 195.577 106.278C195.577 105.957 195.704 105.649 195.932 105.421Z" fill="#D5D5D5" fill-opacity="0.6"/>
<path d="M315.87 75.1032C316.099 74.8767 316.408 74.7495 316.731 74.7495C317.053 74.7495 317.362 74.8767 317.591 75.1032C317.825 75.321 317.962 75.6225 317.974 75.9415C317.985 76.2604 317.868 76.5707 317.65 76.8041C317.431 77.0374 317.129 77.1746 316.809 77.1856C316.489 77.1966 316.178 77.0805 315.944 76.8627C315.816 76.7566 315.712 76.6249 315.638 76.4762C315.564 76.3275 315.523 76.165 315.516 75.9992C315.509 75.8334 315.537 75.6681 315.598 75.5137C315.659 75.3594 315.752 75.2196 315.87 75.1032Z" fill="#D5D5D5" fill-opacity="0.6"/>
<path d="M299.02 49.4877C299.128 49.3712 299.258 49.277 299.402 49.2107C299.547 49.1443 299.703 49.107 299.862 49.1009C300.021 49.0947 300.18 49.1199 300.33 49.175C300.479 49.23 300.616 49.3138 300.733 49.4217C300.849 49.5295 300.944 49.6592 301.01 49.8034C301.077 49.9476 301.114 50.1035 301.12 50.2621C301.127 50.4207 301.101 50.579 301.046 50.7279C300.991 50.8768 300.907 51.0134 300.799 51.1299C300.687 51.2416 300.554 51.3302 300.408 51.3907C300.261 51.4512 300.104 51.4823 299.946 51.4823C299.788 51.4823 299.631 51.4512 299.484 51.3907C299.338 51.3302 299.205 51.2416 299.093 51.1299C298.871 50.9184 298.739 50.6295 298.725 50.3235C298.712 50.0175 298.817 49.718 299.02 49.4877Z" fill="#D5D5D5" fill-opacity="0.6"/>
</g>
<defs>
<clipPath id="clip0_64_34868">
<rect width="339" height="125" fill="white" transform="matrix(-1 0 0 1 339 0)"/>
</clipPath>
</defs>
</svg>
