<svg width="410" height="151" viewBox="0 0 410 151" fill="none" xmlns="http://www.w3.org/2000/svg">
<g opacity="0.5" clip-path="url(#clip0_29_31801)">
<path d="M320.907 140.62L207.393 125.37C207.348 125.362 207.307 125.338 207.278 125.302C207.248 125.266 207.233 125.221 207.233 125.175C207.241 125.133 207.263 125.094 207.295 125.065C207.327 125.036 207.368 125.019 207.411 125.016L265.315 121.385L320.8 140.178C320.841 140.186 320.877 140.208 320.903 140.241C320.929 140.273 320.943 140.313 320.942 140.355C320.942 140.402 320.924 140.447 320.89 140.48C320.857 140.513 320.812 140.532 320.764 140.532L320.907 140.62ZM209.225 125.264L319.111 140.018L265.315 121.81L209.225 125.264Z" fill="#CCCCCC"/>
<path d="M203.766 146.324L170.884 128.275C170.847 128.259 170.818 128.231 170.801 128.195C170.785 128.159 170.782 128.118 170.795 128.08C170.805 128.046 170.827 128.015 170.855 127.993C170.884 127.971 170.918 127.958 170.955 127.956L207.393 125.016C207.439 124.998 207.49 124.998 207.536 125.016C207.55 125.04 207.557 125.068 207.557 125.096C207.557 125.124 207.55 125.151 207.536 125.175L203.979 146.129C203.971 146.156 203.958 146.181 203.939 146.203C203.921 146.224 203.898 146.241 203.872 146.253L203.766 146.324ZM171.577 128.257L203.588 145.881L207.144 125.388L171.577 128.257Z" fill="#CCCCCC"/>
<path d="M165.726 119.259H165.62L140.118 100.803C140.101 100.773 140.091 100.74 140.091 100.706C140.091 100.671 140.101 100.638 140.118 100.608C140.136 100.576 140.162 100.547 140.192 100.526C140.223 100.504 140.258 100.49 140.296 100.484L192.224 101.901C192.26 101.903 192.295 101.916 192.323 101.938C192.352 101.96 192.373 101.991 192.384 102.025C192.406 102.053 192.417 102.087 192.417 102.123C192.417 102.158 192.406 102.192 192.384 102.22L165.957 119.242L165.726 119.259ZM140.829 100.856L165.726 118.87L191.566 102.238L140.829 100.856Z" fill="#CCCCCC"/>
<path d="M223.488 113.379C223.468 113.388 223.447 113.393 223.425 113.393C223.404 113.393 223.383 113.388 223.363 113.379L206.629 94.8162C206.604 94.7828 206.591 94.7425 206.591 94.7011C206.591 94.6597 206.604 94.6193 206.629 94.5859C206.66 94.5629 206.697 94.5505 206.735 94.5505C206.774 94.5505 206.811 94.5629 206.842 94.5859L238.639 109.411C238.672 109.428 238.699 109.453 238.718 109.485C238.737 109.516 238.747 109.552 238.746 109.588C238.746 109.628 238.732 109.666 238.706 109.695C238.679 109.725 238.643 109.743 238.604 109.748L223.577 113.379H223.488ZM207.482 95.1528L223.488 113.007L237.928 109.464L207.482 95.1528Z" fill="#CCCCCC"/>
<path d="M75.9364 87.2353C75.9038 87.2386 75.871 87.2319 75.8424 87.2161C75.8138 87.2003 75.7907 87.1761 75.7763 87.1468L58.8285 57.2482C58.8068 57.2203 58.7951 57.186 58.7951 57.1508C58.7951 57.1155 58.8068 57.0813 58.8285 57.0534C58.8537 57.0332 58.8851 57.0223 58.9174 57.0223C58.9497 57.0223 58.9811 57.0332 59.0063 57.0534L111.717 74.571C111.752 74.5817 111.782 74.6027 111.804 74.6312C111.827 74.6597 111.84 74.6943 111.842 74.7304C111.839 74.7683 111.826 74.8047 111.804 74.8359C111.782 74.867 111.752 74.8918 111.717 74.9075L75.9719 87.3062L75.9364 87.2353ZM59.362 57.4785L76.0075 86.8457L111.13 74.6772L59.362 57.4785Z" fill="#CCCCCC"/>
<path d="M137.539 118.834C137.488 118.821 137.444 118.79 137.415 118.746L116.963 84.9859C116.942 84.958 116.93 84.9237 116.93 84.8884C116.93 84.8532 116.942 84.8189 116.963 84.791C116.988 84.777 117.015 84.7697 117.043 84.7697C117.071 84.7697 117.099 84.777 117.123 84.791L166.918 92.1594C166.951 92.1646 166.982 92.1791 167.007 92.201C167.032 92.2229 167.05 92.2515 167.06 92.2834C167.078 92.3096 167.087 92.3404 167.087 92.3719C167.087 92.4034 167.078 92.4343 167.06 92.4605L137.699 118.852C137.673 118.861 137.645 118.863 137.617 118.86C137.59 118.857 137.563 118.848 137.539 118.834ZM117.461 85.1807L137.575 118.374L166.509 92.3896L117.461 85.1807Z" fill="#CCCCCC"/>
<path d="M1.84952 92.6907C1.80236 92.6907 1.75713 92.672 1.72378 92.6388C1.69042 92.6056 1.67169 92.5606 1.67169 92.5136L1.29823 29.2802C1.29627 29.2457 1.30561 29.2115 1.32485 29.1828C1.3441 29.154 1.3722 29.1323 1.40493 29.1208C1.43295 29.0993 1.46735 29.0876 1.50274 29.0876C1.53814 29.0876 1.57254 29.0993 1.60055 29.1208L56.072 82.4706C56.0848 82.4984 56.0914 82.5286 56.0914 82.5592C56.0914 82.5897 56.0848 82.62 56.072 82.6478C56.0676 82.6822 56.0508 82.7138 56.0245 82.7367C55.9983 82.7595 55.9646 82.772 55.9297 82.7718L1.86731 92.673L1.84952 92.6907ZM1.6539 29.7584L2.11628 92.301L55.663 82.5769L1.6539 29.7584Z" fill="#CCCCCC"/>
<path d="M242.445 148.503C242.308 148.364 242.144 148.255 241.964 148.18C241.784 148.105 241.591 148.066 241.396 148.066C241.201 148.066 241.007 148.105 240.827 148.18C240.647 148.255 240.484 148.364 240.347 148.503C240.059 148.769 239.888 149.138 239.871 149.529C239.854 149.921 239.993 150.303 240.258 150.593C240.395 150.731 240.558 150.84 240.738 150.915C240.919 150.99 241.112 151.029 241.307 151.029C241.502 151.029 241.695 150.99 241.875 150.915C242.055 150.84 242.219 150.731 242.356 150.593C242.644 150.326 242.815 149.957 242.832 149.566C242.848 149.174 242.709 148.792 242.445 148.503Z" fill="#D5D5D5" fill-opacity="0.6"/>
<path d="M266.489 120.623C266.209 120.349 265.832 120.194 265.439 120.194C265.047 120.194 264.67 120.349 264.39 120.623C264.185 120.829 264.046 121.091 263.991 121.376C263.935 121.661 263.965 121.956 264.077 122.223C264.189 122.491 264.379 122.72 264.621 122.881C264.863 123.042 265.148 123.127 265.439 123.127C265.731 123.127 266.015 123.042 266.258 122.881C266.5 122.72 266.689 122.491 266.802 122.223C266.914 121.956 266.944 121.661 266.888 121.376C266.833 121.091 266.694 120.829 266.489 120.623Z" fill="#D5D5D5" fill-opacity="0.6"/>
<path d="M208.496 124.183C208.288 123.973 208.022 123.83 207.731 123.771C207.441 123.712 207.14 123.74 206.866 123.852C206.591 123.964 206.357 124.155 206.192 124.4C206.027 124.645 205.939 124.933 205.939 125.228C205.939 125.524 206.027 125.812 206.192 126.057C206.357 126.302 206.591 126.493 206.866 126.605C207.14 126.717 207.441 126.745 207.731 126.686C208.022 126.627 208.288 126.484 208.496 126.273C208.772 125.995 208.927 125.62 208.927 125.228C208.927 124.837 208.772 124.462 208.496 124.183Z" fill="#D5D5D5" fill-opacity="0.6"/>
<path d="M321.992 139.434C321.723 139.147 321.351 138.979 320.957 138.966C320.563 138.952 320.181 139.095 319.893 139.363C319.605 139.631 319.436 140.001 319.423 140.393C319.41 140.785 319.553 141.166 319.822 141.453C320.104 141.724 320.48 141.875 320.871 141.875C321.263 141.875 321.639 141.724 321.92 141.453C322.185 141.187 322.34 140.832 322.353 140.457C322.366 140.083 322.237 139.718 321.992 139.434Z" fill="#D5D5D5" fill-opacity="0.6"/>
<path d="M208.496 124.183C208.288 123.973 208.022 123.83 207.731 123.771C207.441 123.712 207.14 123.74 206.866 123.852C206.591 123.964 206.357 124.155 206.192 124.4C206.027 124.645 205.939 124.933 205.939 125.228C205.939 125.524 206.027 125.812 206.192 126.057C206.357 126.302 206.591 126.493 206.866 126.605C207.14 126.717 207.441 126.745 207.731 126.686C208.022 126.627 208.288 126.484 208.496 126.273C208.772 125.995 208.927 125.62 208.927 125.228C208.927 124.837 208.772 124.462 208.496 124.183Z" fill="#D5D5D5" fill-opacity="0.6"/>
<path d="M141.309 99.6517C141.102 99.4477 140.839 99.3092 140.553 99.2537C140.267 99.1983 139.971 99.2283 139.703 99.34C139.434 99.4517 139.204 99.6402 139.043 99.8816C138.881 100.123 138.795 100.407 138.795 100.697C138.795 100.987 138.881 101.27 139.043 101.512C139.204 101.753 139.434 101.942 139.703 102.053C139.971 102.165 140.267 102.195 140.553 102.14C140.839 102.084 141.102 101.946 141.309 101.742C141.448 101.605 141.558 101.442 141.633 101.263C141.708 101.084 141.747 100.891 141.747 100.697C141.747 100.502 141.708 100.31 141.633 100.131C141.558 99.9512 141.448 99.7885 141.309 99.6517Z" fill="#D5D5D5" fill-opacity="0.6"/>
<path d="M166.811 118.073C166.531 117.798 166.155 117.644 165.762 117.644C165.369 117.644 164.992 117.798 164.713 118.073C164.57 118.205 164.455 118.364 164.375 118.541C164.294 118.718 164.249 118.909 164.242 119.103C164.236 119.297 164.268 119.49 164.336 119.672C164.405 119.854 164.508 120.021 164.641 120.163C164.775 120.304 164.934 120.419 165.112 120.499C165.289 120.58 165.481 120.624 165.676 120.631C165.871 120.637 166.065 120.606 166.248 120.538C166.43 120.469 166.597 120.366 166.74 120.233C166.892 120.099 167.015 119.936 167.102 119.752C167.188 119.569 167.236 119.371 167.243 119.168C167.249 118.966 167.214 118.764 167.14 118.576C167.066 118.388 166.954 118.216 166.811 118.073Z" fill="#D5D5D5" fill-opacity="0.6"/>
<path d="M193.238 101.069C193.1 100.931 192.937 100.821 192.757 100.746C192.577 100.671 192.383 100.633 192.188 100.633C191.993 100.633 191.8 100.671 191.62 100.746C191.44 100.821 191.276 100.931 191.139 101.069C190.851 101.335 190.68 101.704 190.664 102.096C190.647 102.487 190.786 102.869 191.05 103.159C191.187 103.297 191.351 103.407 191.531 103.481C191.711 103.556 191.904 103.595 192.099 103.595C192.295 103.595 192.488 103.556 192.668 103.481C192.848 103.407 193.011 103.297 193.149 103.159C193.437 102.892 193.608 102.523 193.624 102.132C193.641 101.741 193.502 101.359 193.238 101.069Z" fill="#D5D5D5" fill-opacity="0.6"/>
<path d="M118.19 116.585C117.983 116.381 117.72 116.242 117.434 116.187C117.149 116.131 116.853 116.161 116.584 116.273C116.315 116.385 116.085 116.573 115.924 116.815C115.762 117.056 115.676 117.34 115.676 117.63C115.676 117.92 115.762 118.204 115.924 118.445C116.085 118.686 116.315 118.875 116.584 118.987C116.853 119.098 117.149 119.128 117.434 119.073C117.72 119.017 117.983 118.879 118.19 118.675C118.466 118.396 118.621 118.021 118.621 117.63C118.621 117.239 118.466 116.863 118.19 116.585Z" fill="#D5D5D5" fill-opacity="0.6"/>
<path d="M239.6 108.561C239.318 108.29 238.942 108.139 238.55 108.139C238.159 108.139 237.783 108.29 237.501 108.561C237.362 108.698 237.252 108.86 237.177 109.04C237.102 109.219 237.063 109.412 237.063 109.606C237.063 109.8 237.102 109.993 237.177 110.172C237.252 110.352 237.362 110.514 237.501 110.651C237.634 110.793 237.794 110.907 237.972 110.988C238.149 111.068 238.341 111.113 238.536 111.119C238.731 111.126 238.925 111.094 239.107 111.026C239.29 110.958 239.457 110.855 239.6 110.722C239.742 110.589 239.857 110.43 239.938 110.253C240.018 110.077 240.063 109.886 240.07 109.692C240.076 109.498 240.045 109.304 239.976 109.122C239.908 108.94 239.804 108.774 239.671 108.632L239.6 108.561Z" fill="#D5D5D5" fill-opacity="0.6"/>
<path d="M207.909 93.6118C207.627 93.3412 207.251 93.19 206.86 93.19C206.469 93.19 206.092 93.3412 205.811 93.6118C205.523 93.8796 205.354 94.2501 205.34 94.6421C205.327 95.0341 205.471 95.4153 205.74 95.7018C206.008 95.9884 206.38 96.1568 206.774 96.1701C207.168 96.1834 207.55 96.0405 207.838 95.7727C207.99 95.6385 208.113 95.4749 208.2 95.2917C208.286 95.1086 208.334 94.9097 208.341 94.7075C208.347 94.5052 208.313 94.3037 208.238 94.1153C208.164 93.9269 208.052 93.7556 207.909 93.6118Z" fill="#D5D5D5" fill-opacity="0.6"/>
<path d="M224.572 112.192C224.365 111.988 224.102 111.85 223.816 111.794C223.531 111.739 223.235 111.769 222.966 111.88C222.697 111.992 222.467 112.181 222.306 112.422C222.144 112.663 222.058 112.947 222.058 113.237C222.058 113.527 222.144 113.811 222.306 114.052C222.467 114.294 222.697 114.482 222.966 114.594C223.235 114.706 223.531 114.736 223.816 114.68C224.102 114.625 224.365 114.486 224.572 114.282C224.711 114.145 224.821 113.983 224.896 113.803C224.972 113.624 225.01 113.432 225.01 113.237C225.01 113.043 224.972 112.85 224.896 112.671C224.821 112.492 224.711 112.329 224.572 112.192Z" fill="#D5D5D5" fill-opacity="0.6"/>
<path d="M51.9106 103.106C51.6289 102.835 51.2527 102.684 50.8614 102.684C50.47 102.684 50.0939 102.835 49.8121 103.106C49.5241 103.372 49.3533 103.741 49.3366 104.133C49.32 104.524 49.4589 104.906 49.7232 105.196C49.8605 105.334 50.0239 105.444 50.204 105.518C50.3841 105.593 50.5773 105.632 50.7724 105.632C50.9676 105.632 51.1608 105.593 51.3409 105.518C51.521 105.444 51.6844 105.334 51.8217 105.196C52.1097 104.929 52.2806 104.56 52.2972 104.169C52.3139 103.778 52.1749 103.396 51.9106 103.106Z" fill="#D5D5D5" fill-opacity="0.6"/>
<path d="M74.2291 107.782C74.0221 107.578 73.7591 107.439 73.4732 107.384C73.1873 107.328 72.8913 107.358 72.6225 107.47C72.3537 107.582 72.1241 107.77 71.9626 108.012C71.8011 108.253 71.7149 108.537 71.7149 108.827C71.7149 109.117 71.8011 109.4 71.9626 109.642C72.1241 109.883 72.3537 110.072 72.6225 110.183C72.8913 110.295 73.1873 110.325 73.4732 110.27C73.7591 110.214 74.0221 110.076 74.2291 109.872C74.3679 109.735 74.478 109.572 74.5531 109.393C74.6283 109.214 74.667 109.021 74.667 108.827C74.667 108.632 74.6283 108.44 74.5531 108.261C74.478 108.081 74.3679 107.918 74.2291 107.782Z" fill="#D5D5D5" fill-opacity="0.6"/>
<path d="M69.2852 92.3719C69.0035 92.1013 68.6274 91.9501 68.236 91.9501C67.8446 91.9501 67.4685 92.1013 67.1868 92.3719C66.8987 92.6385 66.7279 93.0075 66.7112 93.3987C66.6946 93.79 66.8335 94.172 67.0978 94.4619C67.2351 94.6001 67.3985 94.7098 67.5786 94.7847C67.7587 94.8595 67.9519 94.8981 68.1471 94.8981C68.3422 94.8981 68.5354 94.8595 68.7155 94.7847C68.8956 94.7098 69.0591 94.6001 69.1963 94.4619C69.4843 94.1953 69.6552 93.8264 69.6718 93.4351C69.6885 93.0438 69.5496 92.6618 69.2852 92.3719Z" fill="#D5D5D5" fill-opacity="0.6"/>
<path d="M60.0555 56.1677C59.7878 55.8808 59.4174 55.7107 59.0245 55.6941C58.6317 55.6775 58.2481 55.8159 57.957 56.0792C57.6854 56.3598 57.5336 56.7344 57.5336 57.1242C57.5336 57.514 57.6854 57.8886 57.957 58.1692C58.2247 58.4561 58.5952 58.6263 58.988 58.6428C59.3809 58.6594 59.7644 58.521 60.0555 58.2578C60.1942 58.121 60.3044 57.9583 60.3795 57.7789C60.4547 57.5996 60.4934 57.4071 60.4934 57.2127C60.4934 57.0184 60.4547 56.8259 60.3795 56.6466C60.3044 56.4672 60.1942 56.3044 60.0555 56.1677Z" fill="#D5D5D5" fill-opacity="0.6"/>
<path d="M111.682 76.1827C112.507 76.1827 113.175 75.5166 113.175 74.6949C113.175 73.8732 112.507 73.207 111.682 73.207C110.857 73.207 110.188 73.8732 110.188 74.6949C110.188 75.5166 110.857 76.1827 111.682 76.1827Z" fill="#D5D5D5" fill-opacity="0.6"/>
<path d="M77.0212 86.0663C76.8131 85.8562 76.5469 85.7126 76.2566 85.6535C75.9663 85.5945 75.6649 85.6228 75.3908 85.7348C75.1167 85.8469 74.8822 86.0376 74.7172 86.2827C74.5522 86.5278 74.4641 86.8162 74.4641 87.1113C74.4641 87.4064 74.5522 87.6949 74.7172 87.94C74.8822 88.1851 75.1167 88.3758 75.3908 88.4878C75.6649 88.5998 75.9663 88.6281 76.2566 88.5691C76.5469 88.5101 76.8131 88.3664 77.0212 88.1563C77.297 87.8779 77.4517 87.5025 77.4517 87.1113C77.4517 86.7202 77.297 86.3447 77.0212 86.0663Z" fill="#D5D5D5" fill-opacity="0.6"/>
<path d="M118.208 83.8876C117.941 83.6007 117.57 83.4306 117.177 83.414C116.784 83.3974 116.401 83.5357 116.11 83.799C115.971 83.9357 115.861 84.0985 115.786 84.2779C115.711 84.4573 115.672 84.6497 115.672 84.844C115.672 85.0384 115.711 85.2309 115.786 85.4103C115.861 85.5896 115.971 85.7524 116.11 85.8891C116.377 86.1759 116.748 86.3461 117.141 86.3627C117.534 86.3793 117.917 86.2409 118.208 85.9777C118.347 85.841 118.457 85.6782 118.532 85.4988C118.607 85.3194 118.646 85.127 118.646 84.9326C118.646 84.7383 118.607 84.5458 118.532 84.3664C118.457 84.187 118.347 84.0243 118.208 83.8876Z" fill="#D5D5D5" fill-opacity="0.6"/>
<path d="M168.003 91.2738C167.865 91.1356 167.702 91.0259 167.522 90.9511C167.342 90.8762 167.148 90.8376 166.953 90.8376C166.758 90.8376 166.565 90.8762 166.385 90.9511C166.205 91.0259 166.041 91.1356 165.904 91.2738C165.762 91.4063 165.647 91.5656 165.566 91.7423C165.485 91.9191 165.441 92.1101 165.434 92.3041C165.427 92.4982 165.459 92.6917 165.528 92.8735C165.596 93.0553 165.7 93.2219 165.833 93.3638C165.966 93.5057 166.126 93.6201 166.303 93.7005C166.481 93.7808 166.673 93.8256 166.867 93.8321C167.062 93.8387 167.257 93.807 167.439 93.7388C167.622 93.6706 167.789 93.5673 167.931 93.4347C168.081 93.2991 168.202 93.135 168.287 92.952C168.372 92.7689 168.42 92.5708 168.426 92.3692C168.433 92.1677 168.399 91.9669 168.326 91.7787C168.253 91.5905 168.143 91.4188 168.003 91.2738Z" fill="#D5D5D5" fill-opacity="0.6"/>
<path d="M138.624 117.647C138.502 117.48 138.346 117.339 138.166 117.235C137.986 117.132 137.787 117.067 137.58 117.045C137.373 117.024 137.164 117.046 136.967 117.111C136.769 117.176 136.587 117.281 136.434 117.42C136.28 117.56 136.157 117.73 136.074 117.92C135.991 118.109 135.949 118.314 135.951 118.521C135.953 118.729 135.999 118.933 136.086 119.121C136.172 119.309 136.298 119.477 136.454 119.613C136.736 119.884 137.112 120.035 137.504 120.035C137.895 120.035 138.271 119.884 138.553 119.613C138.803 119.351 138.948 119.006 138.961 118.644C138.974 118.282 138.854 117.928 138.624 117.647Z" fill="#D5D5D5" fill-opacity="0.6"/>
<path d="M107.271 100.945C106.992 100.67 106.615 100.516 106.222 100.516C105.829 100.516 105.452 100.67 105.173 100.945C105.034 101.081 104.924 101.244 104.849 101.423C104.774 101.603 104.735 101.795 104.735 101.99C104.735 102.184 104.774 102.376 104.849 102.556C104.924 102.735 105.034 102.898 105.173 103.035C105.44 103.322 105.811 103.492 106.204 103.508C106.597 103.525 106.98 103.387 107.271 103.123C107.424 102.985 107.546 102.817 107.629 102.63C107.713 102.442 107.756 102.239 107.756 102.034C107.756 101.829 107.713 101.626 107.629 101.438C107.546 101.251 107.424 101.082 107.271 100.945Z" fill="#D5D5D5" fill-opacity="0.6"/>
<path d="M28.2938 104.168C28.0868 103.964 27.8238 103.826 27.5379 103.77C27.252 103.715 26.956 103.745 26.6872 103.857C26.4184 103.968 26.1888 104.157 26.0273 104.398C25.8658 104.64 25.7796 104.923 25.7796 105.213C25.7796 105.504 25.8658 105.787 26.0273 106.029C26.1888 106.27 26.4184 106.458 26.6872 106.57C26.956 106.682 27.252 106.712 27.5379 106.656C27.8238 106.601 28.0868 106.462 28.2938 106.258C28.5697 105.98 28.7243 105.605 28.7243 105.213C28.7243 104.822 28.5697 104.447 28.2938 104.168Z" fill="#D5D5D5" fill-opacity="0.6"/>
<path d="M2.93434 91.504C2.72622 91.294 2.46009 91.1503 2.16977 91.0913C1.87946 91.0323 1.57808 91.0606 1.30396 91.1726C1.02984 91.2846 0.795362 91.4753 0.630337 91.7204C0.465312 91.9655 0.377197 92.2539 0.377197 92.5491C0.377197 92.8442 0.465312 93.1326 0.630337 93.3777C0.795362 93.6228 1.02984 93.8135 1.30396 93.9255C1.57808 94.0376 1.87946 94.0659 2.16977 94.0068C2.46009 93.9478 2.72622 93.8041 2.93434 93.5941C3.21019 93.3157 3.36486 92.9402 3.36486 92.5491C3.36486 92.1579 3.21019 91.7825 2.93434 91.504Z" fill="#D5D5D5" fill-opacity="0.6"/>
<path d="M2.56086 28.3237C2.4236 28.1856 2.26019 28.0759 2.08009 28.001C1.89999 27.9262 1.70677 27.8876 1.51162 27.8876C1.31646 27.8876 1.12325 27.9262 0.94315 28.001C0.76305 28.0759 0.599642 28.1856 0.462381 28.3237C0.186527 28.6022 0.0318604 28.9776 0.0318604 29.3688C0.0318604 29.7599 0.186527 30.1354 0.462381 30.4138C0.744119 30.6844 1.12024 30.8356 1.51162 30.8356C1.903 30.8356 2.27912 30.6844 2.56086 30.4138C2.69958 30.2771 2.80971 30.1144 2.88487 29.935C2.96003 29.7556 2.99872 29.5631 2.99872 29.3688C2.99872 29.1744 2.96003 28.982 2.88487 28.8026C2.80971 28.6232 2.69958 28.4605 2.56086 28.3237Z" fill="#D5D5D5" fill-opacity="0.6"/>
<path d="M57.0323 81.6914C56.8332 81.473 56.5734 81.3184 56.2859 81.2475C55.9984 81.1765 55.6963 81.1922 55.4178 81.2926C55.1393 81.3931 54.8971 81.5737 54.7219 81.8116C54.5467 82.0495 54.4465 82.3339 54.434 82.6286C54.4214 82.9233 54.4971 83.2151 54.6515 83.4669C54.8058 83.7187 55.0318 83.9191 55.3008 84.0426C55.5697 84.1662 55.8695 84.2073 56.162 84.1608C56.4545 84.1143 56.7265 83.9822 56.9434 83.7814C57.2314 83.5148 57.4023 83.1459 57.4189 82.7546C57.4356 82.3633 57.2967 81.9813 57.0323 81.6914Z" fill="#D5D5D5" fill-opacity="0.6"/>
<path d="M101.954 84.3305C102.779 84.3305 103.448 83.6643 103.448 82.8426C103.448 82.0209 102.779 81.3548 101.954 81.3548C101.129 81.3548 100.46 82.0209 100.46 82.8426C100.46 83.6643 101.129 84.3305 101.954 84.3305Z" fill="#D5D5D5" fill-opacity="0.6"/>
<path d="M79.7243 73.0122C79.587 72.8741 79.4236 72.7644 79.2435 72.6895C79.0634 72.6147 78.8702 72.5761 78.675 72.5761C78.4799 72.5761 78.2867 72.6147 78.1066 72.6895C77.9265 72.7644 77.7631 72.8741 77.6258 73.0122C77.3541 73.2928 77.2023 73.6674 77.2023 74.0572C77.2023 74.4471 77.3541 74.8217 77.6258 75.1023C77.7589 75.2442 77.9188 75.3586 78.0963 75.4389C78.2738 75.5193 78.4654 75.564 78.6603 75.5706C78.8552 75.5772 79.0494 75.5454 79.232 75.4772C79.4145 75.409 79.5818 75.3057 79.7243 75.1731C79.8667 75.0406 79.9816 74.8813 80.0622 74.7045C80.1429 74.5278 80.1878 74.3368 80.1944 74.1428C80.201 73.9487 80.1692 73.7552 80.1007 73.5734C80.0323 73.3916 79.9285 73.225 79.7954 73.0831L79.7243 73.0122Z" fill="#D5D5D5" fill-opacity="0.6"/>
<path d="M107.271 100.945C106.992 100.67 106.615 100.516 106.222 100.516C105.829 100.516 105.452 100.67 105.173 100.945C105.034 101.081 104.924 101.244 104.849 101.423C104.774 101.603 104.735 101.795 104.735 101.99C104.735 102.184 104.774 102.376 104.849 102.556C104.924 102.735 105.034 102.898 105.173 103.035C105.44 103.322 105.811 103.492 106.204 103.508C106.597 103.525 106.98 103.387 107.271 103.123C107.424 102.985 107.546 102.817 107.629 102.63C107.713 102.442 107.756 102.239 107.756 102.034C107.756 101.829 107.713 101.626 107.629 101.438C107.546 101.251 107.424 101.082 107.271 100.945Z" fill="#D5D5D5" fill-opacity="0.6"/>
<path d="M156.087 142.64C156.053 142.64 156.019 142.633 155.988 142.617C155.957 142.602 155.93 142.579 155.91 142.551C155.876 142.508 155.858 142.455 155.858 142.401C155.858 142.346 155.876 142.293 155.91 142.25L175.223 119.366C175.275 119.349 175.331 119.349 175.383 119.366L202.627 117.01C202.679 117.005 202.731 117.018 202.775 117.047C202.818 117.075 202.851 117.117 202.867 117.166C202.884 117.216 202.883 117.269 202.865 117.318C202.848 117.366 202.814 117.408 202.77 117.435L156.194 142.64H156.087ZM175.525 119.738L157.048 141.612L201.507 117.488L175.525 119.738Z" fill="#CCCCCC"/>
<path d="M176.396 118.533C176.268 118.39 176.113 118.274 175.939 118.192C175.765 118.11 175.576 118.063 175.384 118.055C175.191 118.047 174.999 118.077 174.819 118.144C174.639 118.211 174.474 118.313 174.333 118.445C174.059 118.72 173.905 119.093 173.905 119.481C173.905 119.869 174.059 120.242 174.333 120.517C174.464 120.657 174.621 120.769 174.796 120.848C174.97 120.927 175.159 120.971 175.35 120.978C175.542 120.984 175.733 120.953 175.912 120.887C176.092 120.82 176.256 120.718 176.396 120.588C176.537 120.458 176.65 120.301 176.729 120.127C176.808 119.954 176.853 119.766 176.859 119.575C176.866 119.384 176.835 119.194 176.767 119.015C176.7 118.837 176.598 118.673 176.468 118.533H176.396Z" fill="#D5D5D5" fill-opacity="0.6"/>
<path d="M203.73 116.177C203.453 115.904 203.079 115.75 202.69 115.75C202.3 115.75 201.926 115.904 201.649 116.177C201.509 116.308 201.396 116.464 201.317 116.638C201.237 116.812 201.193 116.999 201.186 117.19C201.18 117.381 201.211 117.571 201.278 117.75C201.345 117.929 201.447 118.093 201.578 118.232C201.709 118.372 201.866 118.484 202.04 118.563C202.215 118.642 202.403 118.686 202.595 118.693C202.786 118.7 202.977 118.669 203.157 118.602C203.336 118.535 203.501 118.433 203.641 118.303C203.796 118.175 203.922 118.016 204.011 117.836C204.1 117.656 204.151 117.46 204.159 117.26C204.167 117.06 204.133 116.86 204.06 116.673C203.986 116.487 203.873 116.318 203.73 116.177Z" fill="#D5D5D5" fill-opacity="0.6"/>
<path d="M139.993 91.1497C139.717 90.876 139.343 90.7224 138.953 90.7224C138.563 90.7224 138.189 90.876 137.913 91.1497C137.711 91.3538 137.575 91.6126 137.521 91.8937C137.467 92.1747 137.497 92.4654 137.608 92.7293C137.719 92.9932 137.906 93.2185 138.145 93.3769C138.385 93.5353 138.666 93.6199 138.953 93.6199C139.24 93.6199 139.521 93.5353 139.76 93.3769C140 93.2185 140.186 92.9932 140.298 92.7293C140.409 92.4654 140.439 92.1747 140.385 91.8937C140.331 91.6126 140.195 91.3538 139.993 91.1497Z" fill="#D5D5D5" fill-opacity="0.6"/>
<path d="M97.3301 137.981C97.1947 137.846 97.0339 137.739 96.8569 137.666C96.6799 137.593 96.4902 137.556 96.2987 137.556C96.1071 137.556 95.9174 137.593 95.7404 137.666C95.5634 137.739 95.4026 137.846 95.2672 137.981C94.9925 138.257 94.8383 138.629 94.8383 139.018C94.8383 139.406 94.9925 139.778 95.2672 140.054C95.4026 140.189 95.5634 140.296 95.7404 140.369C95.9174 140.442 96.1071 140.479 96.2987 140.479C96.4902 140.479 96.6799 140.442 96.8569 140.369C97.0339 140.296 97.1947 140.189 97.3301 140.054C97.6049 139.778 97.7591 139.406 97.7591 139.018C97.7591 138.629 97.6049 138.257 97.3301 137.981Z" fill="#D5D5D5" fill-opacity="0.6"/>
<path d="M175.899 79.1762C175.692 78.9696 175.429 78.8286 175.143 78.7711C174.856 78.7136 174.559 78.7422 174.289 78.8532C174.018 78.9642 173.787 79.1526 173.625 79.3945C173.462 79.6365 173.375 79.9212 173.375 80.2123C173.375 80.5035 173.462 80.7881 173.625 81.0301C173.787 81.272 174.018 81.4605 174.289 81.5715C174.559 81.6824 174.856 81.711 175.143 81.6535C175.429 81.596 175.692 81.455 175.899 81.2485C176.173 80.9731 176.327 80.6006 176.327 80.2123C176.327 79.8241 176.173 79.4516 175.899 79.1762Z" fill="#D5D5D5" fill-opacity="0.6"/>
<path d="M27.9738 90.7247C27.6972 90.451 27.3232 90.2974 26.9334 90.2974C26.5436 90.2974 26.1696 90.451 25.8931 90.7247C25.6101 90.9877 25.4436 91.352 25.4303 91.7373C25.4169 92.1226 25.5578 92.4975 25.8219 92.7793C26.086 93.0612 26.4518 93.2269 26.8386 93.2402C27.2255 93.2535 27.6018 93.1132 27.8848 92.8502C28.0395 92.722 28.1655 92.5629 28.2547 92.3833C28.3439 92.2036 28.3943 92.0073 28.4027 91.807C28.4111 91.6068 28.3772 91.407 28.3033 91.2206C28.2295 91.0342 28.1172 90.8652 27.9738 90.7247Z" fill="#D5D5D5" fill-opacity="0.6"/>
<path d="M48.3539 59.7811C48.2231 59.6404 48.0658 59.5266 47.8909 59.4465C47.716 59.3663 47.5269 59.3212 47.3346 59.3138C47.1422 59.3064 46.9502 59.3369 46.7696 59.4033C46.589 59.4698 46.4234 59.5711 46.2821 59.7013C46.1408 59.8316 46.0266 59.9883 45.9462 60.1625C45.8657 60.3367 45.8204 60.525 45.813 60.7166C45.8056 60.9082 45.8361 61.0994 45.9028 61.2793C45.9696 61.4591 46.0713 61.6241 46.2021 61.7649C46.3375 61.8998 46.4983 62.0069 46.6753 62.0799C46.8522 62.153 47.0419 62.1906 47.2335 62.1906C47.4251 62.1906 47.6148 62.153 47.7918 62.0799C47.9687 62.0069 48.1295 61.8998 48.265 61.7649C48.5338 61.5094 48.6931 61.1604 48.7097 60.7907C48.7263 60.4211 48.5988 60.0593 48.3539 59.7811Z" fill="#D5D5D5" fill-opacity="0.6"/>
</g>
<defs>
<clipPath id="clip0_29_31801">
<rect width="410" height="151" fill="white"/>
</clipPath>
</defs>
</svg>
