<svg class="fade" width="138" height="112" viewBox="0 0 138 112" fill="none" xmlns="http://www.w3.org/2000/svg">
<g filter="url(#filter0_d_56_33436)">
<path d="M74.2 83.3L73.4929 82.5929L73.4929 82.5929L74.2 83.3ZM24.7 83.3L23.9855 83.9996L23.9929 84.0071L24.0004 84.0145L24.7 83.3ZM24.7 20.8L23.9929 20.0929L23.9929 20.0929L24.7 20.8ZM74.2 20.8L73.4855 21.4996L73.4929 21.5071L73.5004 21.5145L74.2 20.8ZM62 36C62 33.8459 61.4608 32.0466 60.2071 30.7929C58.9534 29.5392 57.1541 29 55 29V31C56.8459 31 58.0466 31.4608 58.7929 32.2071C59.5392 32.9534 60 34.1541 60 36H62ZM55 29H44V31H55V29ZM44 29C41.8459 29 40.0466 29.5392 38.7929 30.7929C37.5392 32.0466 37 33.8459 37 36H39C39 34.1541 39.4608 32.9534 40.2071 32.2071C40.9534 31.4608 42.1541 31 44 31V29ZM37 36V68H39V36H37ZM37 68C37 70.1541 37.5392 71.9534 38.7929 73.2071C40.0466 74.4608 41.8459 75 44 75V73C42.1541 73 40.9534 72.5392 40.2071 71.7929C39.4608 71.0466 39 69.8459 39 68H37ZM44 75H55V73H44V75ZM55 75C57.1541 75 58.9534 74.4608 60.2071 73.2071C61.4608 71.9534 62 70.1541 62 68H60C60 69.8459 59.5392 71.0466 58.7929 71.7929C58.0466 72.5392 56.8459 73 55 73V75ZM62 68V36H60V68H62ZM78 68C78 74.8763 76.4246 79.6611 73.4929 82.5929L74.9071 84.0071C78.3754 80.5389 80 75.1237 80 68H78ZM73.4929 82.5929C70.6311 85.4547 65.8835 87 59 87V89C66.1165 89 71.5023 87.412 74.9071 84.0071L73.4929 82.5929ZM59 87H40V89H59V87ZM40 87C33.1189 87 28.3309 85.4557 25.3996 82.5855L24.0004 84.0145C27.4691 87.4109 32.8811 89 40 89V87ZM25.4145 82.6004C22.5443 79.6691 21 74.8811 21 68H19C19 75.1189 20.5891 80.5309 23.9855 83.9996L25.4145 82.6004ZM21 68V36H19V68H21ZM21 36C21 29.1165 22.5453 24.3689 25.4071 21.5071L23.9929 20.0929C20.588 23.4977 19 28.8835 19 36H21ZM25.4071 21.5071C28.3389 18.5754 33.1237 17 40 17V15C32.8763 15 27.4611 16.6246 23.9929 20.0929L25.4071 21.5071ZM40 17H59V15H40V17ZM59 17C65.8787 17 70.6231 18.5763 73.4855 21.4996L74.9145 20.1004C71.5102 16.6236 66.1213 15 59 15V17ZM73.5004 21.5145C76.4237 24.3769 78 29.1213 78 36H80C80 28.8787 78.3763 23.4898 74.8996 20.0855L73.5004 21.5145ZM78 36V68H80V36H78ZM99.4922 87H98.4922V88H99.4922V87ZM99.4922 32.5H100.492V31.0934L99.1637 31.5555L99.4922 32.5ZM87.9922 36.5L87.0751 36.8987L87.4449 37.7491L88.3207 37.4445L87.9922 36.5ZM82.9922 25L82.5953 24.0821L81.6756 24.4798L82.0751 25.3987L82.9922 25ZM101.492 17V16H101.285L101.095 16.0821L101.492 17ZM117.492 17H118.492V16H117.492V17ZM117.492 87V88H118.492V87H117.492ZM100.492 87V32.5H98.4922V87H100.492ZM99.1637 31.5555L87.6637 35.5555L88.3207 37.4445L99.8207 33.4445L99.1637 31.5555ZM88.9093 36.1013L83.9093 24.6013L82.0751 25.3987L87.0751 36.8987L88.9093 36.1013ZM83.3891 25.9179L101.889 17.9179L101.095 16.0821L82.5953 24.0821L83.3891 25.9179ZM101.492 18H117.492V16H101.492V18ZM116.492 17V87H118.492V17H116.492ZM117.492 86H99.4922V88H117.492V86Z" fill="white" fill-opacity="0.05"/>
</g>
<defs>
<filter id="filter0_d_56_33436" x="0" y="0" width="137.492" height="112" filterUnits="userSpaceOnUse" color-interpolation-filters="sRGB">
<feFlood flood-opacity="0" result="BackgroundImageFix"/>
<feColorMatrix in="SourceAlpha" type="matrix" values="0 0 0 0 0 0 0 0 0 0 0 0 0 0 0 0 0 0 127 0" result="hardAlpha"/>
<feOffset dy="4"/>
<feGaussianBlur stdDeviation="10"/>
<feComposite in2="hardAlpha" operator="out"/>
<feColorMatrix type="matrix" values="0 0 0 0 1 0 0 0 0 1 0 0 0 0 1 0 0 0 1 0"/>
<feBlend mode="normal" in2="BackgroundImageFix" result="effect1_dropShadow_56_33436"/>
<feBlend mode="normal" in="SourceGraphic" in2="effect1_dropShadow_56_33436" result="shape"/>
</filter>
</defs>
</svg>
