<svg class="fade" width="159" height="112" viewBox="0 0 159 112" fill="none" xmlns="http://www.w3.org/2000/svg">
<g filter="url(#filter0_d_57_33441)">
<path d="M74.2 83.3L73.4929 82.5929H73.4929L74.2 83.3ZM24.7 83.3L23.9855 83.9996L23.9929 84.0071L24.0004 84.0145L24.7 83.3ZM24.7 20.8L23.9929 20.0929H23.9929L24.7 20.8ZM74.2 20.8L73.4855 21.4996L73.4929 21.5071L73.5004 21.5145L74.2 20.8ZM62 36C62 33.8459 61.4608 32.0466 60.2071 30.7929C58.9534 29.5392 57.1541 29 55 29V31C56.8459 31 58.0466 31.4608 58.7929 32.2071C59.5392 32.9534 60 34.1541 60 36H62ZM55 29H44V31H55V29ZM44 29C41.8459 29 40.0466 29.5392 38.7929 30.7929C37.5392 32.0466 37 33.8459 37 36H39C39 34.1541 39.4608 32.9534 40.2071 32.2071C40.9534 31.4608 42.1541 31 44 31V29ZM37 36V68H39V36H37ZM37 68C37 70.1541 37.5392 71.9534 38.7929 73.2071C40.0466 74.4608 41.8459 75 44 75V73C42.1541 73 40.9534 72.5392 40.2071 71.7929C39.4608 71.0466 39 69.8459 39 68H37ZM44 75H55V73H44V75ZM55 75C57.1541 75 58.9534 74.4608 60.2071 73.2071C61.4608 71.9534 62 70.1541 62 68H60C60 69.8459 59.5392 71.0466 58.7929 71.7929C58.0466 72.5392 56.8459 73 55 73V75ZM62 68V36H60V68H62ZM78 68C78 74.8763 76.4246 79.6611 73.4929 82.5929L74.9071 84.0071C78.3754 80.5389 80 75.1237 80 68H78ZM73.4929 82.5929C70.6311 85.4547 65.8835 87 59 87V89C66.1165 89 71.5023 87.4119 74.9071 84.0071L73.4929 82.5929ZM59 87H40V89H59V87ZM40 87C33.1189 87 28.3309 85.4557 25.3996 82.5855L24.0004 84.0145C27.4691 87.4109 32.8811 89 40 89V87ZM25.4145 82.6004C22.5443 79.6691 21 74.8811 21 68H19C19 75.1189 20.5891 80.5309 23.9855 83.9996L25.4145 82.6004ZM21 68V36H19V68H21ZM21 36C21 29.1165 22.5453 24.3689 25.4071 21.5071L23.9929 20.0929C20.588 23.4977 19 28.8835 19 36H21ZM25.4071 21.5071C28.3389 18.5753 33.1237 17 40 17V15C32.8763 15 27.4611 16.6246 23.9929 20.0929L25.4071 21.5071ZM40 17H59V15H40V17ZM59 17C65.8787 17 70.6231 18.5763 73.4855 21.4996L74.9145 20.1004C71.5102 16.6236 66.1213 15 59 15V17ZM73.5004 21.5145C76.4237 24.3769 78 29.1213 78 36H80C80 28.8787 78.3764 23.4898 74.8996 20.0855L73.5004 21.5145ZM78 36V68H80V36H78ZM131.792 53.7L131.14 52.9422L131.139 52.9432L131.792 53.7ZM126.992 57.5L127.577 58.3112L127.582 58.3074L126.992 57.5ZM105.492 73L104.907 72.1888L102.395 74H105.492V73ZM138.992 73H139.992V72H138.992V73ZM138.992 87V88H139.992V87H138.992ZM84.9922 87H83.9922V88H84.9922V87ZM84.9922 68L84.4067 67.1893L83.9922 67.4887V68H84.9922ZM120.992 42L121.578 42.8107L121.992 42.5113V42H120.992ZM86.9922 31H85.9922V32H86.9922V31ZM86.9922 17V16H85.9922V17H86.9922ZM134.192 21.8L133.478 22.4996L133.485 22.5071L133.493 22.5145L134.192 21.8ZM137.992 39C137.992 44.3392 135.748 48.9738 131.14 52.9422L132.445 54.4578C137.436 50.1596 139.992 44.9942 139.992 39H137.992ZM131.139 52.9432C129.694 54.1904 128.116 55.4403 126.402 56.6926L127.582 58.3074C129.335 57.0264 130.957 55.743 132.446 54.4568L131.139 52.9432ZM126.407 56.6888L104.907 72.1888L106.077 73.8112L127.577 58.3112L126.407 56.6888ZM105.492 74H138.992V72H105.492V74ZM137.992 73V87H139.992V73H137.992ZM138.992 86H84.9922V88H138.992V86ZM85.9922 87V68H83.9922V87H85.9922ZM85.5777 68.8107L121.578 42.8107L120.407 41.1893L84.4067 67.1893L85.5777 68.8107ZM121.992 42V37H119.992V42H121.992ZM121.992 37C121.992 34.8459 121.453 33.0466 120.199 31.7929C118.946 30.5392 117.146 30 114.992 30V32C116.838 32 118.039 32.4608 118.785 33.2071C119.531 33.9534 119.992 35.1541 119.992 37H121.992ZM114.992 30H86.9922V32H114.992V30ZM87.9922 31V17H85.9922V31H87.9922ZM86.9922 18H118.992V16H86.9922V18ZM118.992 18C125.871 18 130.615 19.5763 133.478 22.4996L134.907 21.1004C131.502 17.6237 126.113 16 118.992 16V18ZM133.493 22.5145C136.416 25.3769 137.992 30.1213 137.992 37H139.992C139.992 29.8787 138.369 24.4898 134.892 21.0855L133.493 22.5145ZM137.992 37V39H139.992V37H137.992Z" fill="white" fill-opacity="0.05"/>
</g>
<defs>
<filter id="filter0_d_57_33441" x="0" y="0" width="158.992" height="112" filterUnits="userSpaceOnUse" color-interpolation-filters="sRGB">
<feFlood flood-opacity="0" result="BackgroundImageFix"/>
<feColorMatrix in="SourceAlpha" type="matrix" values="0 0 0 0 0 0 0 0 0 0 0 0 0 0 0 0 0 0 127 0" result="hardAlpha"/>
<feOffset dy="4"/>
<feGaussianBlur stdDeviation="10"/>
<feComposite in2="hardAlpha" operator="out"/>
<feColorMatrix type="matrix" values="0 0 0 0 1 0 0 0 0 1 0 0 0 0 1 0 0 0 1 0"/>
<feBlend mode="normal" in2="BackgroundImageFix" result="effect1_dropShadow_57_33441"/>
<feBlend mode="normal" in="SourceGraphic" in2="effect1_dropShadow_57_33441" result="shape"/>
</filter>
</defs>
</svg>
