<svg width="161" height="112" viewBox="0 0 161 112" fill="none" xmlns="http://www.w3.org/2000/svg">
<g filter="url(#filter0_d_64_34916)">
<path d="M74.2 83.3L73.4929 82.5929H73.4929L74.2 83.3ZM24.7 83.3L23.9855 83.9996L23.9929 84.0071L24.0004 84.0145L24.7 83.3ZM24.7 20.8L23.9929 20.0929H23.9929L24.7 20.8ZM74.2 20.8L73.4855 21.4996L73.4929 21.5071L73.5004 21.5145L74.2 20.8ZM62 36C62 33.8459 61.4608 32.0466 60.2071 30.7929C58.9534 29.5392 57.1541 29 55 29V31C56.8459 31 58.0466 31.4608 58.7929 32.2071C59.5392 32.9534 60 34.1541 60 36H62ZM55 29H44V31H55V29ZM44 29C41.8459 29 40.0466 29.5392 38.7929 30.7929C37.5392 32.0466 37 33.8459 37 36H39C39 34.1541 39.4608 32.9534 40.2071 32.2071C40.9534 31.4608 42.1541 31 44 31V29ZM37 36V68H39V36H37ZM37 68C37 70.1541 37.5392 71.9534 38.7929 73.2071C40.0466 74.4608 41.8459 75 44 75V73C42.1541 73 40.9534 72.5392 40.2071 71.7929C39.4608 71.0466 39 69.8459 39 68H37ZM44 75H55V73H44V75ZM55 75C57.1541 75 58.9534 74.4608 60.2071 73.2071C61.4608 71.9534 62 70.1541 62 68H60C60 69.8459 59.5392 71.0466 58.7929 71.7929C58.0466 72.5392 56.8459 73 55 73V75ZM62 68V36H60V68H62ZM78 68C78 74.8763 76.4246 79.6611 73.4929 82.5929L74.9071 84.0071C78.3754 80.5389 80 75.1237 80 68H78ZM73.4929 82.5929C70.6311 85.4547 65.8835 87 59 87V89C66.1165 89 71.5023 87.4119 74.9071 84.0071L73.4929 82.5929ZM59 87H40V89H59V87ZM40 87C33.1189 87 28.3309 85.4557 25.3996 82.5855L24.0004 84.0145C27.4691 87.4109 32.8811 89 40 89V87ZM25.4145 82.6004C22.5443 79.6691 21 74.8811 21 68H19C19 75.1189 20.5891 80.5309 23.9855 83.9996L25.4145 82.6004ZM21 68V36H19V68H21ZM21 36C21 29.1165 22.5453 24.3689 25.4071 21.5071L23.9929 20.0929C20.588 23.4977 19 28.8835 19 36H21ZM25.4071 21.5071C28.3389 18.5753 33.1237 17 40 17V15C32.8763 15 27.4611 16.6246 23.9929 20.0929L25.4071 21.5071ZM40 17H59V15H40V17ZM59 17C65.8787 17 70.6231 18.5763 73.4855 21.4996L74.9145 20.1004C71.5102 16.6236 66.1213 15 59 15V17ZM73.5004 21.5145C76.4237 24.3769 78 29.1213 78 36H80C80 28.8787 78.3764 23.4898 74.8996 20.0855L73.5004 21.5145ZM78 36V68H80V36H78ZM84.9922 86H83.9922V86.9063L84.8941 86.9952L84.9922 86ZM84.9922 72.5L85.0599 71.5023L83.9922 71.4298V72.5H84.9922ZM121.592 72.7L120.885 71.9929L121.592 72.7ZM87.9922 58H86.9922V59H87.9922V58ZM87.9922 17V16H86.9922V17H87.9922ZM135.992 17H136.992V16H135.992V17ZM135.992 31V32H136.992V31H135.992ZM105.992 31V30H104.992V31H105.992ZM105.992 44H104.992V45H105.992V44ZM136.392 48.5L135.693 49.2149L135.701 49.2226L136.392 48.5ZM136.392 83.4L135.685 82.6929L136.392 83.4ZM121.992 87C110.898 87 98.5978 86.3356 85.0902 85.0048L84.8941 86.9952C98.4532 88.3311 110.82 89 121.992 89V87ZM85.9922 86V72.5H83.9922V86H85.9922ZM84.9245 73.4977C99.6624 74.498 110.69 75 117.992 75V73C110.761 73 99.7887 72.502 85.0599 71.5023L84.9245 73.4977ZM117.992 75C119.72 75 121.201 74.5058 122.299 73.4071L120.885 71.9929C120.25 72.6276 119.331 73 117.992 73V75ZM122.299 73.4071C123.451 72.2558 123.992 70.7522 123.992 69H121.992C121.992 70.3145 121.6 71.2775 120.885 71.9929L122.299 73.4071ZM123.992 69V64H121.992V69H123.992ZM123.992 64C123.992 61.8459 123.453 60.0466 122.199 58.7929C120.946 57.5392 119.146 57 116.992 57V59C118.838 59 120.039 59.4608 120.785 60.2071C121.531 60.9534 121.992 62.1541 121.992 64H123.992ZM116.992 57H87.9922V59H116.992V57ZM88.9922 58V17H86.9922V58H88.9922ZM87.9922 18H135.992V16H87.9922V18ZM134.992 17V31H136.992V17H134.992ZM135.992 30H105.992V32H135.992V30ZM104.992 31V44H106.992V31H104.992ZM105.992 45H121.992V43H105.992V45ZM121.992 45C128.398 45 132.891 46.4737 135.693 49.2148L137.091 47.7852C133.76 44.5263 128.653 43 121.992 43V45ZM135.701 49.2226C138.498 51.8985 139.992 56.0874 139.992 62H141.992C141.992 55.7793 140.419 50.9682 137.083 47.7774L135.701 49.2226ZM139.992 62V69H141.992V62H139.992ZM139.992 69C139.992 75.4006 138.488 79.8903 135.685 82.6929L137.099 84.1071C140.43 80.7764 141.992 75.666 141.992 69H139.992ZM135.685 82.6929C132.882 85.4955 128.393 87 121.992 87V89C128.658 89 133.769 87.4378 137.099 84.1071L135.685 82.6929Z" fill="white" fill-opacity="0.05"/>
</g>
<defs>
<filter id="filter0_d_64_34916" x="0" y="0" width="160.992" height="112" filterUnits="userSpaceOnUse" color-interpolation-filters="sRGB">
<feFlood flood-opacity="0" result="BackgroundImageFix"/>
<feColorMatrix in="SourceAlpha" type="matrix" values="0 0 0 0 0 0 0 0 0 0 0 0 0 0 0 0 0 0 127 0" result="hardAlpha"/>
<feOffset dy="4"/>
<feGaussianBlur stdDeviation="10"/>
<feComposite in2="hardAlpha" operator="out"/>
<feColorMatrix type="matrix" values="0 0 0 0 1 0 0 0 0 1 0 0 0 0 1 0 0 0 1 0"/>
<feBlend mode="normal" in2="BackgroundImageFix" result="effect1_dropShadow_64_34916"/>
<feBlend mode="normal" in="SourceGraphic" in2="effect1_dropShadow_64_34916" result="shape"/>
</filter>
</defs>
</svg>
