<svg width="34" height="37" viewBox="0 0 34 37" fill="none" xmlns="http://www.w3.org/2000/svg">
<path d="M13.2493 11.3822C15.249 9.10203 13.0787 6.11221 11.7585 4.08235C11.0184 2.89243 9.92822 1.22248 8.3982 1.01265C6.86817 0.802809 5.61836 2.47304 4.65846 3.36314C3.52279 4.37202 2.60459 5.60168 1.95999 6.9772C1.31539 8.35272 0.957931 9.84526 0.909313 11.3635C0.909351 11.7235 0.909414 12.3035 0.909357 11.7735C1.13543 15.4145 2.35302 18.9242 4.4304 21.923C6.4792 25.119 8.937 28.0335 11.7413 30.5924C14.5116 33.0521 17.6319 35.2617 21.3319 36.0613C22.9986 36.4355 24.7287 36.4245 26.3905 36.0293C28.0523 35.634 29.6019 34.8648 30.9217 33.7803C31.9216 32.9701 33.7315 31.7801 33.8113 30.3901C33.8912 29 32.761 27.85 31.811 27.0001C29.7408 25.1604 26.7105 22.0908 23.9107 24.3311C22.8108 25.2212 21.6609 26.8813 20.191 27.1215C18.721 27.3616 17.3309 26.3017 16.2908 25.4718C13.8312 23.4794 11.7916 21.0188 10.29 18.2324C9.70986 17.0225 9.1897 15.4725 10.0396 14.2324C10.8894 12.9923 12.3094 12.4923 13.2493 11.3822Z" fill="url(#paint0_linear_305_5952)"/>
<defs>
<linearGradient id="paint0_linear_305_5952" x1="22.9188" y1="7.2511" x2="11.9815" y2="32.2823" gradientUnits="userSpaceOnUse">
<stop stop-color="#CCFF00"/>
<stop offset="1" stop-color="#CCFF00"/>
</linearGradient>
</defs>
</svg>
