<svg width="1078" height="476" viewBox="0 0 1078 476" fill="none" xmlns="http://www.w3.org/2000/svg">
<path d="M82.7246 246.541V428.347H141.526C176.221 428.347 201.657 424.964 217.834 418.197C233.694 411.655 247.251 400.557 256.787 386.31C267.294 371.091 272.413 352.804 271.334 334.349C270.254 315.894 263.037 298.327 250.827 284.433C235.719 268.002 215.817 256.735 193.941 252.227C177.764 248.365 149.632 246.417 109.544 246.381L82.7246 246.541ZM82.7246 47.0368V198.87H109.864C142.856 198.87 167.122 195.806 182.66 189.676C197.616 183.991 210.468 173.864 219.484 160.659C228.437 147.834 233.195 132.556 233.107 116.922C233.551 107.221 231.719 97.5504 227.755 88.6829C223.791 79.8153 217.806 71.9962 210.278 65.8499C195.094 53.5205 170.9 47.338 137.694 47.3026L82.7246 47.0368ZM36.2158 0.641846H129.819C167.423 0.641846 196.354 5.10597 216.61 14.0342C236.367 22.575 253.066 36.8988 264.503 55.1148C276.305 73.5591 282.48 95.0337 282.276 116.922C282.517 137.15 277.198 157.058 266.897 174.477C255.958 192.38 240.289 206.925 221.612 216.514C242.24 222.783 261.539 232.78 278.551 246.009C291.743 257.236 302.298 271.225 309.468 286.984C316.929 303.307 320.707 321.069 320.537 339.012C320.842 357.139 317.274 375.124 310.071 391.766C302.868 408.407 292.195 423.324 278.764 435.522C250.88 461.882 213.488 475.044 166.589 475.008H36.2158V0.641846Z" fill="white" fill-opacity="0.1"/>
<path fill-rule="evenodd" clip-rule="evenodd" d="M455.118 0.641846H407.704V474.742H455.118V0.641846Z" fill="white" fill-opacity="0.1"/>
<path d="M542.297 474.739L610.251 0.638672H621.479L810.175 389.655L997.807 0.638672H1009.67L1078 474.739H1031.49L984.61 135.678L816.721 474.739H804.588L634.73 133.127L588.114 474.739H542.297Z" fill="white" fill-opacity="0.1"/>
<path d="M589.486 0H578.099L508.602 474.738H522.916L589.486 0Z" fill="white" fill-opacity="0.1"/>
<path fill-rule="evenodd" clip-rule="evenodd" d="M0 0.374268H13.197V475.006H0V0.374268Z" fill="white" fill-opacity="0.1"/>
<path fill-rule="evenodd" clip-rule="evenodd" d="M374.979 0.375977H388.176V475.008H374.979V0.375977Z" fill="white" fill-opacity="0.1"/>
</svg>
