<svg width="602" height="270" viewBox="0 0 602 270" fill="none" xmlns="http://www.w3.org/2000/svg">
<path d="M66.4154 248.152C67.7081 247.795 68.8422 247.013 69.6338 245.932C70.4253 244.851 70.8277 243.534 70.7758 242.196C70.7758 237.889 67.3933 235.552 61.7986 235.552H50.9458V261.552H62.52C68.9322 261.552 72.1384 259.07 72.1384 254.684C72.1384 251.081 70.0864 248.856 66.3994 248.152H66.4154ZM61.7344 237.185C66.2391 237.185 68.836 238.93 68.836 242.34C68.836 245.75 66.2391 247.559 61.7344 247.559H52.9015V237.105L61.7344 237.185ZM62.52 259.855H52.9015V249.096H62.52C67.5055 249.096 70.2147 250.697 70.2147 254.46C70.2147 258.222 67.5055 259.855 62.52 259.855Z" fill="white"/>
<path d="M93.7958 242.084V252.41C93.7958 257.021 91.0866 259.967 86.6942 259.967C82.6224 259.967 80.2819 257.661 80.2819 253.274V242.068H78.4224V253.403C78.4224 258.83 81.6285 261.616 86.5339 261.616C88.0466 261.701 89.5509 261.338 90.8574 260.572C92.1638 259.805 93.2141 258.67 93.8759 257.309V261.455H95.6553V242.084H93.7958Z" fill="white"/>
<path d="M105.643 246.31V242.084H103.863V261.472H105.803V251.354C105.803 246.551 108.368 243.701 112.696 243.701H113.129V241.892C111.592 241.757 110.052 242.106 108.724 242.89C107.395 243.674 106.346 244.853 105.723 246.262L105.643 246.31Z" fill="white"/>
<path d="M134.93 251.706C134.93 245.942 130.986 241.94 125.664 241.94C120.342 241.94 116.366 246.022 116.366 251.786C116.332 253.1 116.569 254.408 117.062 255.627C117.554 256.847 118.292 257.952 119.23 258.875C120.168 259.798 121.285 260.519 122.513 260.994C123.742 261.468 125.054 261.685 126.37 261.632C127.755 261.677 129.133 261.414 130.403 260.86C131.673 260.306 132.804 259.476 133.712 258.43L132.638 257.197C131.542 258.4 130.116 259.255 128.537 259.655C126.959 260.055 125.298 259.982 123.76 259.447C122.222 258.911 120.876 257.935 119.89 256.642C118.903 255.348 118.319 253.793 118.21 252.17H134.898C134.898 251.994 134.898 251.802 134.898 251.658L134.93 251.706ZM125.664 243.573C127.609 243.543 129.486 244.285 130.883 245.635C132.281 246.986 133.085 248.835 133.119 250.777H118.226C118.241 249.817 118.445 248.868 118.826 247.986C119.208 247.104 119.76 246.305 120.451 245.636C121.142 244.967 121.958 244.441 122.852 244.087C123.747 243.733 124.702 243.558 125.664 243.573Z" fill="white"/>
<path d="M147.017 241.94C144.181 241.896 141.424 242.867 139.242 244.677L140.172 246.022C142.03 244.413 144.414 243.542 146.873 243.573C150.672 243.573 152.644 245.494 152.644 249.112V250.713H145.975C140.573 250.713 138.713 253.211 138.713 256.14C138.713 259.454 141.358 261.68 145.719 261.68C147.104 261.79 148.493 261.511 149.728 260.874C150.963 260.238 151.995 259.269 152.708 258.077V261.52H154.488V249.224C154.488 244.421 151.826 241.988 147.017 241.988V241.94ZM145.975 260.111C142.545 260.111 140.573 258.51 140.573 256.012C140.573 253.787 141.984 252.106 146.007 252.106H152.644V255.756C152.148 257.101 151.231 258.25 150.03 259.034C148.829 259.818 147.408 260.196 145.975 260.111Z" fill="white"/>
<path d="M177.636 242.084V252.41C177.636 257.021 174.91 259.967 170.518 259.967C166.462 259.967 164.106 257.661 164.106 253.274V242.068H162.246V253.403C162.246 258.83 165.452 261.616 170.358 261.616C171.869 261.704 173.372 261.342 174.677 260.576C175.981 259.809 177.028 258.672 177.684 257.309V261.455H179.543V242.084H177.636Z" fill="white"/>
<path d="M198.247 261.47H200.139V235.47H198.247V261.47Z" fill="white"/>
<path d="M218.59 241.94C217.023 241.831 215.458 242.184 214.09 242.955C212.722 243.726 211.611 244.882 210.895 246.279V242.084H209.1V261.472H210.959V251.146C210.959 246.535 213.748 243.605 218.333 243.605C222.277 243.605 224.617 245.911 224.617 250.297V261.504H226.477V250.169C226.477 244.758 223.271 241.972 218.59 241.972V241.94Z" fill="white"/>
<path d="M240.316 235.344C241.419 235.318 242.492 235.7 243.33 236.416L244.067 235.007C242.985 234.138 241.624 233.689 240.236 233.743C239.515 233.677 238.788 233.77 238.107 234.015C237.426 234.26 236.807 234.651 236.293 235.161C235.78 235.67 235.384 236.286 235.135 236.965C234.885 237.644 234.788 238.369 234.85 239.09V242.068H231.275V243.669H234.85V261.456H236.709V243.685H242.881V242.084H236.661V239.25C236.661 236.688 237.896 235.36 240.316 235.36V235.344Z" fill="white"/>
<path d="M254.258 261.63C256.213 261.658 258.134 261.105 259.774 260.041C261.414 258.977 262.7 257.449 263.468 255.653C264.237 253.856 264.453 251.872 264.089 249.953C263.725 248.034 262.797 246.266 261.424 244.874C260.052 243.483 258.295 242.531 256.379 242.139C254.463 241.747 252.473 241.934 250.663 242.674C248.853 243.415 247.305 244.677 246.215 246.299C245.125 247.921 244.543 249.83 244.543 251.784C244.485 253.08 244.696 254.374 245.161 255.585C245.627 256.797 246.338 257.899 247.25 258.823C248.162 259.747 249.255 260.473 250.461 260.956C251.667 261.439 252.959 261.669 254.258 261.63ZM254.258 260.029C252.619 260.109 250.994 259.697 249.592 258.845C248.19 257.994 247.076 256.742 246.393 255.252C245.711 253.762 245.491 252.102 245.762 250.486C246.033 248.87 246.783 247.373 247.915 246.187C249.047 245 250.509 244.18 252.112 243.832C253.715 243.484 255.386 243.623 256.909 244.233C258.432 244.842 259.738 245.893 260.656 247.251C261.575 248.608 262.066 250.209 262.065 251.848C262.131 252.907 261.977 253.968 261.614 254.965C261.25 255.962 260.684 256.874 259.951 257.642C259.218 258.41 258.334 259.018 257.354 259.429C256.374 259.84 255.32 260.044 254.258 260.029Z" fill="white"/>
<path d="M272.004 246.311V242.085H270.225V261.473H272.069V251.354C272.069 246.552 274.634 243.702 278.962 243.702H279.411V241.893C277.873 241.753 276.331 242.1 275.001 242.885C273.672 243.669 272.624 244.851 272.004 246.263V246.311Z" fill="white"/>
<path d="M309.051 241.939C307.424 241.85 305.808 242.247 304.409 243.08C303.01 243.912 301.891 245.143 301.196 246.614C300.711 245.15 299.746 243.893 298.458 243.045C297.169 242.196 295.632 241.807 294.094 241.939C292.564 241.835 291.037 242.189 289.709 242.956C288.381 243.723 287.312 244.868 286.64 246.245V242.083H284.86V261.471H286.72V251.144C286.72 246.534 289.445 243.604 293.838 243.604C297.637 243.604 299.897 245.909 299.897 250.296V261.503H301.757V251.176C301.757 246.566 304.482 243.636 308.874 243.636C312.658 243.636 314.934 245.941 314.934 250.328V261.535H316.793V250.2C316.793 244.789 313.748 242.003 309.051 242.003V241.939Z" fill="white"/>
<path d="M331.338 241.94C328.502 241.896 325.745 242.867 323.563 244.677L324.493 246.022C326.344 244.413 328.724 243.541 331.178 243.573C334.977 243.573 336.949 245.494 336.949 249.112V250.713H330.232C324.83 250.713 322.97 253.211 322.97 256.14C322.97 259.454 325.615 261.68 329.96 261.68C331.347 261.791 332.739 261.512 333.977 260.876C335.214 260.239 336.249 259.27 336.965 258.077V261.52H338.744V249.224C338.744 244.421 336.067 241.988 331.274 241.988L331.338 241.94ZM330.232 260.111C326.802 260.111 324.83 258.51 324.83 256.012C324.83 253.787 326.24 252.106 330.264 252.106H336.885V255.756C336.394 257.101 335.481 258.251 334.282 259.036C333.083 259.82 331.663 260.197 330.232 260.111Z" fill="white"/>
<path d="M355.881 258.958C355.043 259.675 353.97 260.057 352.867 260.031C350.479 260.031 349.261 258.654 349.261 256.172V243.685H355.432V242.084H349.261V237.841H347.401V242.084H343.826V243.685H347.401V256.349C347.326 257.059 347.41 257.778 347.648 258.452C347.887 259.126 348.272 259.739 348.778 260.245C349.283 260.751 349.895 261.139 350.569 261.378C351.244 261.618 351.963 261.705 352.675 261.632C354.13 261.677 355.55 261.187 356.667 260.255L355.881 258.958Z" fill="white"/>
<path d="M363.03 237.361C363.324 237.342 363.606 237.238 363.841 237.061C364.076 236.884 364.254 236.642 364.353 236.365C364.452 236.088 364.468 235.788 364.398 235.502C364.328 235.216 364.176 234.957 363.96 234.757C363.745 234.557 363.475 234.424 363.185 234.375C362.894 234.326 362.596 234.363 362.326 234.482C362.057 234.601 361.828 234.796 361.668 235.043C361.509 235.29 361.425 235.578 361.427 235.872C361.427 236.077 361.469 236.281 361.55 236.469C361.632 236.657 361.752 236.827 361.903 236.967C362.053 237.106 362.231 237.214 362.425 237.282C362.619 237.349 362.825 237.376 363.03 237.361ZM362.101 261.472H363.896V242.084H362.052V261.472H362.101Z" fill="white"/>
<path d="M379.718 261.632C381.674 261.66 383.594 261.107 385.234 260.043C386.875 258.979 388.161 257.451 388.929 255.655C389.697 253.858 389.913 251.874 389.549 249.955C389.185 248.036 388.258 246.268 386.885 244.876C385.512 243.485 383.756 242.533 381.84 242.141C379.923 241.749 377.934 241.936 376.124 242.676C374.314 243.417 372.766 244.679 371.676 246.301C370.586 247.923 370.004 249.832 370.004 251.786C369.948 253.081 370.16 254.375 370.627 255.585C371.094 256.795 371.805 257.896 372.716 258.82C373.628 259.743 374.72 260.47 375.924 260.953C377.129 261.437 378.42 261.668 379.718 261.632ZM379.718 260.031C378.08 260.108 376.456 259.693 375.057 258.839C373.657 257.986 372.545 256.733 371.865 255.243C371.185 253.752 370.967 252.092 371.241 250.477C371.514 248.862 372.265 247.366 373.398 246.182C374.531 244.997 375.993 244.179 377.595 243.832C379.198 243.485 380.868 243.626 382.39 244.236C383.912 244.846 385.217 245.897 386.135 247.254C387.053 248.611 387.543 250.212 387.541 251.85C387.608 252.91 387.454 253.973 387.089 254.971C386.724 255.969 386.157 256.881 385.422 257.65C384.687 258.418 383.801 259.026 382.82 259.436C381.838 259.846 380.782 260.048 379.718 260.031Z" fill="white"/>
<path d="M405.181 241.941C403.611 241.829 402.042 242.18 400.671 242.951C399.3 243.723 398.187 244.881 397.47 246.28V242.085H395.69V261.473H397.566V251.147C397.566 246.536 400.355 243.606 404.94 243.606C408.884 243.606 411.224 245.912 411.224 250.298V261.505H413.084V250.17C413.084 244.759 409.878 241.973 405.197 241.973L405.181 241.941Z" fill="white"/>
<path d="M458.109 261.472L458.061 235.472H456.506L444.852 255.564L433.197 235.472H431.594V261.472H433.454V239.298L444.371 258.03H445.3L456.201 239.218L456.249 261.472H458.109Z" fill="white"/>
<path d="M474.515 261.63C476.471 261.658 478.391 261.105 480.031 260.041C481.671 258.977 482.957 257.449 483.726 255.653C484.494 253.856 484.71 251.872 484.346 249.953C483.982 248.034 483.055 246.266 481.682 244.874C480.309 243.483 478.553 242.531 476.636 242.139C474.72 241.747 472.73 241.934 470.921 242.674C469.111 243.415 467.562 244.677 466.472 246.299C465.383 247.921 464.801 249.83 464.8 251.784C464.742 253.08 464.953 254.374 465.419 255.585C465.885 256.797 466.596 257.899 467.507 258.823C468.419 259.747 469.512 260.473 470.718 260.956C471.924 261.439 473.216 261.669 474.515 261.63ZM474.515 260.029C472.876 260.109 471.251 259.697 469.849 258.845C468.448 257.994 467.333 256.742 466.651 255.252C465.968 253.762 465.748 252.102 466.019 250.486C466.291 248.87 467.041 247.373 468.173 246.187C469.305 245 470.766 244.18 472.37 243.832C473.973 243.484 475.644 243.623 477.167 244.233C478.69 244.842 479.995 245.893 480.914 247.251C481.833 248.608 482.323 250.209 482.322 251.848C482.388 252.907 482.235 253.968 481.871 254.965C481.507 255.962 480.941 256.874 480.208 257.642C479.475 258.41 478.591 259.018 477.611 259.429C476.632 259.84 475.577 260.044 474.515 260.029Z" fill="white"/>
<path d="M505.864 233.903V246.551C505.108 245.114 503.963 243.918 502.561 243.097C501.158 242.277 499.554 241.865 497.929 241.908C495.314 241.908 492.807 242.945 490.958 244.792C489.109 246.638 488.07 249.142 488.07 251.754C488.07 254.365 489.109 256.869 490.958 258.716C492.807 260.562 495.314 261.6 497.929 261.6C499.578 261.66 501.209 261.248 502.629 260.411C504.05 259.574 505.201 258.347 505.945 256.877V261.44H507.756V233.903H505.864ZM498.041 259.967C496.403 260.044 494.78 259.628 493.38 258.775C491.98 257.921 490.868 256.669 490.188 255.178C489.508 253.688 489.29 252.028 489.564 250.413C489.837 248.798 490.588 247.302 491.721 246.118C492.854 244.933 494.316 244.115 495.918 243.768C497.521 243.421 499.191 243.561 500.713 244.171C502.235 244.781 503.54 245.833 504.458 247.19C505.376 248.547 505.866 250.148 505.864 251.786C505.931 252.846 505.777 253.909 505.412 254.907C505.047 255.905 504.48 256.817 503.745 257.586C503.01 258.354 502.124 258.962 501.143 259.372C500.161 259.782 499.105 259.984 498.041 259.967Z" fill="white"/>
<path d="M532.336 251.705C532.336 245.941 528.392 241.939 523.07 241.939C517.748 241.939 513.772 246.021 513.772 251.785C513.724 253.103 513.95 254.417 514.438 255.643C514.925 256.869 515.663 257.981 516.604 258.907C517.544 259.833 518.668 260.553 519.903 261.022C521.137 261.491 522.456 261.699 523.775 261.631C525.16 261.677 526.538 261.413 527.809 260.859C529.079 260.305 530.209 259.475 531.117 258.429L530.027 257.196C528.931 258.399 527.505 259.254 525.927 259.654C524.348 260.054 522.687 259.981 521.149 259.446C519.612 258.91 518.266 257.934 517.279 256.641C516.292 255.347 515.708 253.792 515.6 252.169H532.303C532.303 251.993 532.303 251.801 532.303 251.657L532.336 251.705ZM523.07 243.572C525.013 243.546 526.888 244.289 528.284 245.639C529.681 246.989 530.486 248.836 530.524 250.776H515.632C515.646 249.816 515.85 248.867 516.232 247.985C516.614 247.103 517.166 246.304 517.856 245.635C518.547 244.966 519.363 244.44 520.258 244.086C521.152 243.732 522.108 243.557 523.07 243.572Z" fill="white"/>
<path d="M538.423 261.472H540.282V233.903H538.423V261.472Z" fill="white"/>
<path d="M549.393 237.36C549.793 237.36 550.176 237.201 550.459 236.919C550.741 236.637 550.9 236.254 550.9 235.855C550.9 235.456 550.741 235.073 550.459 234.791C550.176 234.509 549.793 234.35 549.393 234.35C548.982 234.371 548.594 234.548 548.311 234.846C548.027 235.144 547.87 235.54 547.87 235.951C547.872 236.149 547.913 236.344 547.991 236.526C548.069 236.708 548.181 236.872 548.323 237.011C548.464 237.149 548.631 237.258 548.815 237.332C548.999 237.405 549.195 237.442 549.393 237.44V237.36ZM548.463 261.471H550.323V242.083H548.463V261.471Z" fill="white"/>
<path d="M568.227 241.941C566.657 241.829 565.089 242.18 563.718 242.951C562.346 243.723 561.233 244.881 560.516 246.28V242.085H558.737V261.473H560.596V251.147C560.596 246.536 563.386 243.606 567.97 243.606C571.914 243.606 574.255 245.912 574.255 250.298V261.505H576.114V250.17C576.114 244.759 572.908 241.973 568.227 241.973V241.941Z" fill="white"/>
<path d="M599.836 242.084V246.55C599.033 245.116 597.846 243.932 596.408 243.132C594.97 242.332 593.337 241.947 591.693 242.02C590.455 242.02 589.229 242.263 588.085 242.736C586.942 243.209 585.903 243.903 585.027 244.777C584.152 245.651 583.458 246.689 582.984 247.831C582.51 248.973 582.267 250.197 582.267 251.433C582.267 252.67 582.51 253.894 582.984 255.036C583.458 256.178 584.152 257.216 585.027 258.09C585.903 258.964 586.942 259.658 588.085 260.131C589.229 260.604 590.455 260.847 591.693 260.847C593.303 260.898 594.897 260.515 596.308 259.737C597.719 258.96 598.893 257.817 599.708 256.429V259.63C599.708 264.786 597.287 267.171 592.109 267.171C589.228 267.244 586.424 266.232 584.254 264.337L583.244 265.762C585.713 267.876 588.893 268.975 592.142 268.836C598.393 268.836 601.552 265.906 601.552 259.406V242.084H599.836ZM591.821 259.102C590.299 259.052 588.825 258.555 587.584 257.675C586.343 256.794 585.388 255.568 584.84 254.149C584.291 252.731 584.172 251.182 584.499 249.697C584.825 248.211 585.582 246.855 586.675 245.796C587.768 244.737 589.149 244.023 590.646 243.742C592.142 243.461 593.689 243.627 595.092 244.218C596.495 244.808 597.693 245.799 598.537 247.065C599.38 248.331 599.832 249.817 599.836 251.337C599.87 252.387 599.683 253.431 599.289 254.404C598.895 255.378 598.301 256.258 597.547 256.989C596.792 257.72 595.893 258.285 594.907 258.649C593.921 259.013 592.87 259.167 591.821 259.102Z" fill="white"/>
<path d="M0 55.6664L144.949 3.20239V132.001L46.2325 198.682L0 55.6664Z" fill="black"/>
<path d="M219.509 210.576L147.852 143.623L49.6162 210.528L219.509 210.576Z" fill="#B02636"/>
<path d="M228.663 199.066L157.102 133.586V0L187.063 28.4494L228.663 199.066Z" fill="#5B5B5B"/>
<path d="M302.172 130.304V185.074H319.886C330.338 185.074 338.001 184.054 342.874 182.016C347.652 180.045 351.736 176.702 354.608 172.41C357.774 167.825 359.316 162.316 358.991 156.757C358.665 151.197 356.491 145.905 352.813 141.719C348.262 136.769 342.266 133.375 335.676 132.017C330.803 130.854 322.328 130.267 310.251 130.256L302.172 130.304ZM302.172 70.2036V115.944H310.348C320.287 115.944 327.597 115.02 332.278 113.174C336.783 111.461 340.655 108.41 343.371 104.433C346.068 100.569 347.501 95.9662 347.475 91.2565C347.609 88.3341 347.057 85.4209 345.862 82.7495C344.668 80.0781 342.865 77.7226 340.597 75.871C336.023 72.1568 328.735 70.2943 318.732 70.2836L302.172 70.2036ZM288.161 56.2271H316.359C327.687 56.2271 336.403 57.5719 342.505 60.2615C348.457 62.8344 353.488 67.1495 356.933 72.6371C360.488 78.1934 362.349 84.6627 362.287 91.2565C362.36 97.3504 360.757 103.347 357.654 108.595C354.359 113.988 349.638 118.37 344.012 121.259C350.226 123.147 356.04 126.159 361.165 130.144C365.139 133.526 368.319 137.74 370.479 142.488C372.726 147.405 373.864 152.756 373.813 158.161C373.905 163.622 372.83 169.04 370.66 174.053C368.49 179.067 365.275 183.561 361.229 187.235C352.829 195.176 341.565 199.141 327.436 199.13H288.161V56.2271Z" fill="white"/>
<path fill-rule="evenodd" clip-rule="evenodd" d="M414.356 56.2271H400.072V199.05H414.356V56.2271Z" fill="white"/>
<path d="M440.619 199.049L461.09 56.2261H464.472L521.317 173.418L577.841 56.2261H581.416L602 199.049H587.989L573.866 96.9069L523.289 199.049H519.634L468.464 96.1385L454.421 199.049H440.619Z" fill="white"/>
<g filter="url(#filter0_d_259_9484)">
<path d="M239.609 199.065H264.81L264.906 55.7132L199.036 31.8586L239.609 199.065Z" fill="#2B2B2B"/>
</g>
<path d="M66.4154 248.152C67.6815 247.761 68.7993 246.996 69.6215 245.958C70.4254 244.872 70.8378 243.546 70.7918 242.196C70.8383 241.246 70.6472 240.299 70.2358 239.441C69.8244 238.583 69.2056 237.841 68.4353 237.281C66.4718 236.022 64.1598 235.417 61.8306 235.552H50.9458V261.568H62.52C65.0435 261.744 67.5579 261.116 69.7017 259.775C70.5166 259.181 71.1675 258.392 71.5936 257.479C72.0198 256.566 72.2072 255.56 72.1384 254.556C72.1993 252.977 71.6741 251.432 70.6635 250.217C69.5235 249.066 68.0252 248.338 66.4154 248.152V248.152ZM61.7344 237.185C63.5811 237.067 65.4188 237.526 66.9925 238.498C67.5992 238.931 68.0863 239.511 68.4086 240.182C68.7309 240.854 68.878 241.596 68.836 242.34C68.8817 243.091 68.7367 243.841 68.4144 244.522C68.0921 245.202 67.603 245.79 66.9925 246.23C65.4188 247.203 63.5811 247.661 61.7344 247.543H52.9015V237.105L61.7344 237.185ZM62.52 259.855H52.9015V249.112H62.52C64.5182 248.982 66.5114 249.432 68.2589 250.409C68.9133 250.852 69.4387 251.46 69.7821 252.172C70.1256 252.883 70.2748 253.672 70.2147 254.459C70.2711 255.249 70.1204 256.039 69.7774 256.752C69.4344 257.465 68.911 258.077 68.2589 258.526C66.5179 259.521 64.522 259.984 62.52 259.855V259.855ZM93.8118 242.084V252.41C93.9143 254.423 93.2304 256.398 91.9042 257.918C91.2332 258.607 90.4231 259.146 89.5277 259.5C88.6323 259.853 87.6719 260.012 86.7103 259.967C85.8339 260.025 84.9548 259.904 84.1276 259.609C83.3003 259.314 82.5425 258.853 81.901 258.254C81.3182 257.57 80.8765 256.779 80.6014 255.924C80.3262 255.07 80.2231 254.169 80.298 253.275V242.068H78.5506V253.403C78.4283 254.494 78.5496 255.598 78.9059 256.637C79.2621 257.675 79.8445 258.622 80.6109 259.409C81.3774 260.196 82.309 260.804 83.3387 261.188C84.3684 261.572 85.4706 261.724 86.566 261.632C88.1327 261.667 89.6794 261.274 91.0385 260.495C92.3009 259.747 93.3026 258.629 93.908 257.293V261.456H95.7035V242.084H93.8118ZM105.803 246.31V242.084H103.975V261.488H105.803V251.354C105.684 249.316 106.33 247.306 107.614 245.718C108.262 245.035 109.05 244.501 109.925 244.153C110.799 243.804 111.74 243.65 112.68 243.701H113.129V241.892C111.517 241.84 109.92 242.227 108.512 243.012C107.262 243.753 106.284 244.876 105.723 246.214L105.803 246.31ZM134.979 251.706C135.007 249.946 134.593 248.206 133.776 246.647C133.001 245.213 131.855 244.013 130.458 243.173C128.998 242.33 127.335 241.904 125.649 241.94C123.959 241.904 122.293 242.342 120.84 243.205C119.422 244.039 118.267 245.254 117.505 246.711C116.688 248.276 116.275 250.021 116.303 251.786C116.266 253.567 116.709 255.325 117.585 256.877C118.422 258.344 119.648 259.552 121.128 260.367C122.557 261.115 124.132 261.542 125.744 261.62C127.355 261.697 128.964 261.423 130.458 260.815C131.702 260.31 132.803 259.507 133.664 258.478L132.59 257.245C131.893 258.16 130.978 258.886 129.929 259.358C128.811 259.82 127.612 260.054 126.402 260.047C124.964 260.066 123.544 259.73 122.266 259.07C121.056 258.45 120.041 257.508 119.333 256.349C118.601 255.128 118.203 253.737 118.178 252.314H134.898V251.786L134.979 251.706ZM125.713 243.573C126.995 243.535 128.265 243.839 129.391 244.452C130.518 245.065 131.461 245.966 132.125 247.063C132.802 248.188 133.183 249.466 133.231 250.777H118.227C118.304 249.461 118.694 248.182 119.365 247.047C119.989 245.974 120.892 245.089 121.978 244.485C123.107 243.868 124.377 243.553 125.665 243.573H125.713ZM147.114 241.972C145.657 241.967 144.209 242.211 142.834 242.692C141.547 243.127 140.359 243.813 139.339 244.71L140.269 246.054C141.143 245.269 142.161 244.66 143.267 244.261C144.452 243.824 145.706 243.601 146.97 243.605C148.531 243.493 150.074 243.999 151.266 245.014C151.78 245.565 152.174 246.217 152.425 246.927C152.676 247.638 152.778 248.393 152.725 249.144V250.745H146.024C144.06 250.574 142.099 251.107 140.493 252.25C139.931 252.731 139.483 253.331 139.184 254.007C138.884 254.683 138.74 255.418 138.762 256.156C138.738 256.928 138.897 257.694 139.226 258.392C139.554 259.09 140.044 259.701 140.653 260.175C142.13 261.259 143.938 261.796 145.767 261.696C147.25 261.731 148.718 261.407 150.047 260.751C151.193 260.151 152.135 259.226 152.757 258.094V261.552H154.552V249.24C154.619 248.254 154.481 247.264 154.147 246.333C153.814 245.401 153.291 244.549 152.612 243.829C151.07 242.525 149.082 241.871 147.066 242.004L147.114 241.972ZM146.072 260.143C144.656 260.226 143.252 259.837 142.08 259.038C141.623 258.688 141.256 258.234 141.01 257.713C140.765 257.192 140.648 256.62 140.67 256.044C140.647 255.503 140.751 254.963 140.974 254.468C141.196 253.974 141.531 253.538 141.952 253.195C143.18 252.394 144.642 252.027 146.104 252.154H152.725V255.788C152.232 257.096 151.341 258.216 150.176 258.99C148.953 259.769 147.522 260.16 146.072 260.111V260.143ZM177.781 242.116V252.442C177.886 254.459 177.195 256.436 175.857 257.95C175.186 258.639 174.376 259.178 173.48 259.532C172.585 259.885 171.625 260.044 170.663 259.999C169.802 260.053 168.938 259.928 168.127 259.634C167.316 259.339 166.575 258.88 165.95 258.286C165.368 257.602 164.927 256.81 164.651 255.956C164.376 255.101 164.273 254.201 164.347 253.307V242.1H162.487V253.435C162.414 254.545 162.568 255.659 162.94 256.707C163.312 257.756 163.894 258.718 164.651 259.535C165.451 260.267 166.389 260.831 167.41 261.194C168.432 261.557 169.516 261.711 170.599 261.648C172.166 261.683 173.712 261.29 175.071 260.511C176.326 259.758 177.321 258.641 177.925 257.309V261.472H179.544V242.084L177.781 242.116ZM200.32 235.504H198.428V261.52H200.32V235.472V235.504ZM218.675 241.908C217.029 241.866 215.402 242.264 213.962 243.06C212.661 243.8 211.616 244.917 210.964 246.262V242.068H209.185V261.472H211.044V251.129C210.993 250.129 211.141 249.129 211.479 248.187C211.818 247.244 212.34 246.378 213.016 245.638C213.724 244.94 214.57 244.397 215.501 244.044C216.431 243.691 217.425 243.536 218.418 243.589C219.267 243.541 220.116 243.669 220.913 243.964C221.71 244.258 222.438 244.714 223.051 245.302C224.222 246.685 224.798 248.475 224.654 250.281V261.488H226.514V250.153C226.589 249.046 226.441 247.936 226.077 246.888C225.714 245.84 225.142 244.876 224.398 244.053C223.629 243.33 222.721 242.77 221.729 242.407C220.737 242.043 219.682 241.885 218.627 241.94L218.675 241.908ZM240.461 235.344C241.566 235.302 242.645 235.686 243.474 236.416L244.212 235.008C243.733 234.564 243.157 234.24 242.528 234.063C241.834 233.842 241.109 233.734 240.38 233.743C239.654 233.698 238.927 233.803 238.243 234.051C237.559 234.298 236.933 234.684 236.405 235.184C235.921 235.708 235.548 236.324 235.305 236.995C235.063 237.666 234.957 238.378 234.994 239.09V242.068H231.419V243.669H234.994V261.472H236.854V243.685H243.025V242.084H236.806V239.25C236.806 236.657 238.024 235.36 240.461 235.36V235.344ZM254.455 261.616C256.195 261.64 257.909 261.204 259.425 260.351C260.881 259.518 262.083 258.307 262.903 256.845C263.734 255.282 264.169 253.539 264.169 251.77C264.169 250 263.734 248.258 262.903 246.695C262.092 245.226 260.888 244.012 259.425 243.189C257.9 242.359 256.192 241.924 254.455 241.924C252.719 241.924 251.01 242.359 249.486 243.189C248.019 244.007 246.813 245.222 246.007 246.695C245.176 248.258 244.742 250 244.742 251.77C244.742 253.539 245.176 255.282 246.007 256.845C246.823 258.31 248.026 259.523 249.486 260.351C251 261.207 252.716 261.644 254.455 261.616V261.616ZM254.455 260.015C253.048 260.036 251.661 259.671 250.448 258.958C249.27 258.265 248.305 257.263 247.658 256.06C246.963 254.761 246.61 253.307 246.632 251.834C246.612 250.356 246.965 248.897 247.658 247.591C248.31 246.392 249.273 245.391 250.448 244.693C251.666 243.993 253.05 243.634 254.455 243.653C255.856 243.632 257.235 243.992 258.447 244.693C259.628 245.382 260.594 246.385 261.236 247.591C261.937 248.894 262.29 250.355 262.262 251.834C262.292 253.308 261.939 254.764 261.236 256.06C260.598 257.27 259.632 258.274 258.447 258.958C257.24 259.672 255.858 260.038 254.455 260.015V260.015ZM272.089 246.359V242.132H270.31V261.536H272.169V251.354C272.049 249.313 272.701 247.301 273.997 245.718C274.639 245.033 275.424 244.497 276.297 244.148C277.169 243.8 278.108 243.647 279.046 243.701H279.495V241.892C277.883 241.84 276.287 242.227 274.878 243.012C273.628 243.753 272.65 244.876 272.089 246.214V246.359ZM309.2 241.988C307.51 241.95 305.843 242.388 304.391 243.253C303.048 244.044 301.988 245.237 301.361 246.663C300.921 245.228 299.991 243.992 298.732 243.173C297.386 242.344 295.824 241.932 294.243 241.988C292.653 241.945 291.08 242.332 289.691 243.109C288.425 243.858 287.418 244.975 286.805 246.31V242.148H285.026V261.552H286.885V251.209C286.784 249.201 287.468 247.232 288.793 245.718C289.464 245.029 290.274 244.489 291.17 244.136C292.065 243.783 293.025 243.624 293.987 243.669C294.811 243.623 295.636 243.752 296.407 244.047C297.178 244.343 297.877 244.797 298.46 245.382C299.611 246.776 300.185 248.558 300.063 250.361V261.568H301.922V251.225C301.812 249.216 302.497 247.244 303.83 245.734C304.501 245.045 305.311 244.505 306.206 244.152C307.102 243.799 308.062 243.64 309.024 243.685C309.848 243.639 310.673 243.768 311.444 244.063C312.214 244.359 312.914 244.813 313.496 245.398C314.648 246.792 315.221 248.574 315.099 250.377V261.584H316.975V250.249C317.05 249.146 316.907 248.039 316.552 246.993C316.197 245.946 315.638 244.979 314.907 244.149C314.158 243.426 313.267 242.864 312.291 242.501C311.314 242.137 310.273 241.979 309.232 242.036L309.2 241.988ZM331.531 241.988C330.073 241.983 328.626 242.227 327.251 242.708C325.959 243.143 324.766 243.829 323.74 244.726L324.67 246.07C325.549 245.292 326.565 244.683 327.667 244.277C328.853 243.842 330.107 243.62 331.371 243.621C332.933 243.505 334.477 244.012 335.667 245.03C336.187 245.578 336.587 246.228 336.84 246.94C337.094 247.651 337.197 248.407 337.142 249.16V250.761H330.489C328.525 250.59 326.564 251.123 324.958 252.266C324.391 252.772 323.939 253.395 323.635 254.091C323.33 254.788 323.179 255.542 323.193 256.302C323.207 257.061 323.384 257.809 323.714 258.494C324.043 259.18 324.517 259.785 325.103 260.271C326.583 261.346 328.388 261.883 330.216 261.792C331.699 261.831 333.169 261.507 334.497 260.847C335.65 260.253 336.599 259.327 337.222 258.19V261.648H339.001V249.336C339.072 248.349 338.936 247.358 338.602 246.427C338.268 245.495 337.743 244.643 337.061 243.925C335.527 242.619 333.542 241.964 331.531 242.1V241.988ZM330.489 260.159C329.073 260.242 327.669 259.853 326.497 259.054C326.037 258.707 325.667 258.253 325.422 257.731C325.176 257.21 325.061 256.636 325.086 256.06C325.064 255.519 325.168 254.979 325.391 254.484C325.613 253.99 325.948 253.554 326.369 253.211C327.596 252.407 329.059 252.041 330.521 252.17H337.142V255.804C336.645 257.11 335.754 258.228 334.593 259.006C333.369 259.783 331.939 260.174 330.489 260.127V260.159ZM355.897 259.006C355.068 259.737 353.989 260.121 352.884 260.079C352.391 260.115 351.897 260.047 351.432 259.879C350.968 259.711 350.545 259.446 350.191 259.102C349.529 258.293 349.203 257.262 349.277 256.221V243.733H355.449V242.132H349.277V237.889H347.417V242.132H343.842V243.733H347.417V256.397C347.342 257.107 347.426 257.826 347.665 258.5C347.903 259.174 348.289 259.787 348.794 260.293C349.299 260.799 349.911 261.187 350.586 261.426C351.26 261.666 351.979 261.753 352.691 261.68C353.448 261.685 354.201 261.566 354.92 261.328C355.574 261.116 356.175 260.767 356.683 260.303L355.897 259.006V259.006ZM362.23 261.536H364.089V242.084H362.23V261.488V261.536ZM363.159 237.409C363.36 237.412 363.558 237.374 363.743 237.297C363.928 237.219 364.095 237.105 364.233 236.961C364.38 236.824 364.495 236.657 364.572 236.472C364.65 236.287 364.687 236.088 364.682 235.888C364.689 235.69 364.652 235.493 364.575 235.31C364.497 235.128 364.381 234.964 364.233 234.831C364.092 234.692 363.924 234.582 363.74 234.508C363.555 234.434 363.358 234.397 363.159 234.399C362.952 234.397 362.746 234.437 362.555 234.517C362.363 234.598 362.191 234.717 362.048 234.867C361.905 235.018 361.794 235.196 361.724 235.391C361.653 235.586 361.623 235.793 361.636 236C361.63 236.197 361.665 236.393 361.739 236.575C361.814 236.757 361.926 236.921 362.069 237.057C362.213 237.198 362.383 237.309 362.57 237.383C362.758 237.457 362.958 237.493 363.159 237.489V237.409ZM379.895 261.68C381.635 261.708 383.351 261.271 384.865 260.415C386.324 259.587 387.528 258.374 388.344 256.909C389.174 255.346 389.609 253.603 389.609 251.834C389.609 250.064 389.174 248.322 388.344 246.759C387.537 245.286 386.332 244.071 384.865 243.253C383.34 242.423 381.632 241.988 379.895 241.988C378.159 241.988 376.451 242.423 374.926 243.253C373.463 244.076 372.258 245.29 371.447 246.759C370.616 248.322 370.182 250.064 370.182 251.834C370.182 253.603 370.616 255.346 371.447 256.909C372.268 258.371 373.47 259.582 374.926 260.415C376.441 261.27 378.156 261.707 379.895 261.68V261.68ZM379.895 260.079C378.493 260.102 377.111 259.736 375.904 259.022C374.719 258.338 373.752 257.334 373.114 256.124C372.412 254.828 372.058 253.372 372.088 251.898C372.061 250.419 372.414 248.958 373.114 247.655C373.756 246.449 374.722 245.446 375.904 244.758C377.115 244.056 378.495 243.696 379.895 243.717C381.301 243.698 382.685 244.057 383.903 244.758C385.077 245.455 386.041 246.456 386.692 247.655C387.393 248.958 387.746 250.419 387.718 251.898C387.748 253.372 387.395 254.828 386.692 256.124C386.046 257.327 385.081 258.329 383.903 259.022C382.689 259.735 381.303 260.1 379.895 260.079V260.079ZM405.24 242.052C403.599 242.009 401.977 242.407 400.543 243.205C399.238 243.939 398.192 245.057 397.545 246.407V242.212H395.75V261.616H397.561V251.274C397.51 250.273 397.658 249.273 397.996 248.331C398.335 247.388 398.857 246.522 399.533 245.782C400.242 245.086 401.089 244.544 402.019 244.191C402.949 243.838 403.942 243.682 404.935 243.733C405.784 243.683 406.634 243.81 407.431 244.105C408.229 244.4 408.956 244.856 409.568 245.446C410.739 246.83 411.315 248.619 411.171 250.425V261.632H413.031V250.297C413.106 249.19 412.958 248.08 412.594 247.032C412.231 245.984 411.659 245.02 410.915 244.197C410.147 243.472 409.239 242.911 408.247 242.548C407.255 242.185 406.199 242.027 405.144 242.084L405.24 242.052ZM458.141 261.6V235.584H456.538L444.884 255.692L433.246 235.584H431.642V261.6H433.502V239.298L444.403 258.03H445.333L456.234 239.218V261.488L458.141 261.6ZM474.589 261.744C476.328 261.768 478.043 261.332 479.558 260.479C481.014 259.647 482.217 258.435 483.037 256.973C483.868 255.41 484.302 253.667 484.302 251.898C484.302 250.128 483.868 248.386 483.037 246.823C482.226 245.354 481.021 244.14 479.558 243.317C478.033 242.487 476.325 242.052 474.589 242.052C472.852 242.052 471.144 242.487 469.619 243.317C468.152 244.135 466.947 245.35 466.14 246.823C465.31 248.386 464.875 250.128 464.875 251.898C464.875 253.667 465.31 255.41 466.14 256.973C466.956 258.438 468.16 259.651 469.619 260.479C471.133 261.335 472.849 261.772 474.589 261.744V261.744ZM474.589 260.143C473.181 260.164 471.795 259.799 470.581 259.086C469.403 258.393 468.438 257.391 467.792 256.189C467.089 254.892 466.736 253.436 466.766 251.962C466.738 250.483 467.091 249.022 467.792 247.719C468.443 246.52 469.407 245.519 470.581 244.822C471.799 244.121 473.183 243.762 474.589 243.781C475.989 243.76 477.369 244.12 478.58 244.822C479.762 245.51 480.728 246.513 481.37 247.719C482.07 249.022 482.423 250.483 482.396 251.962C482.426 253.436 482.072 254.892 481.37 256.189C480.732 257.398 479.765 258.402 478.58 259.086C477.373 259.801 475.991 260.166 474.589 260.143V260.143ZM505.848 234.079V246.551C505.109 245.141 504.001 243.957 502.642 243.125C501.222 242.301 499.603 241.88 497.961 241.908C496.246 241.878 494.553 242.303 493.056 243.141C491.602 243.965 490.408 245.18 489.609 246.647C488.788 248.221 488.358 249.97 488.358 251.746C488.358 253.521 488.788 255.271 489.609 256.845C490.418 258.3 491.61 259.507 493.056 260.335C494.549 261.187 496.242 261.624 497.961 261.6C499.62 261.624 501.255 261.198 502.69 260.367C504.079 259.543 505.193 258.329 505.897 256.877V261.456H507.724V233.903L505.848 234.079ZM498.026 260.127C496.624 260.156 495.242 259.796 494.034 259.086C492.848 258.398 491.877 257.395 491.228 256.189C490.565 254.875 490.219 253.425 490.219 251.954C490.219 250.483 490.565 249.033 491.228 247.719C491.882 246.516 492.852 245.514 494.034 244.822C495.245 244.12 496.625 243.76 498.026 243.781C499.431 243.762 500.815 244.121 502.033 244.822C503.207 245.519 504.171 246.52 504.823 247.719C505.496 249.029 505.848 250.481 505.848 251.954C505.848 253.427 505.496 254.878 504.823 256.189C504.176 257.391 503.211 258.393 502.033 259.086C500.818 259.794 499.432 260.154 498.026 260.127V260.127ZM532.379 251.882C532.41 250.12 531.991 248.378 531.161 246.823C530.397 245.387 529.255 244.186 527.859 243.349C526.398 242.508 524.735 242.082 523.049 242.116C521.359 242.08 519.693 242.518 518.24 243.381C516.819 244.21 515.662 245.426 514.906 246.887C514.083 248.451 513.664 250.195 513.687 251.962C513.656 253.744 514.105 255.503 514.986 257.053C515.822 258.52 517.048 259.728 518.529 260.543C519.958 261.291 521.533 261.718 523.144 261.796C524.755 261.873 526.364 261.599 527.859 260.991C529.1 260.482 530.2 259.68 531.065 258.654L529.991 257.421C529.296 258.261 528.411 258.925 527.41 259.358C526.291 259.818 525.093 260.052 523.883 260.047C522.44 260.064 521.015 259.728 519.731 259.07C518.529 258.445 517.52 257.504 516.813 256.349C516.081 255.128 515.683 253.737 515.659 252.314H532.379V251.786V251.882ZM523.114 243.749C524.403 243.729 525.675 244.049 526.801 244.677C527.888 245.285 528.795 246.169 529.43 247.239C530.119 248.359 530.506 249.639 530.552 250.953H515.675C515.747 249.638 516.132 248.36 516.797 247.223C517.428 246.149 518.336 245.265 519.426 244.661C520.556 244.044 521.826 243.729 523.114 243.749ZM540.379 234.143H538.519V261.728H540.379V233.903V234.143ZM548.602 261.728H550.462V242.084H548.602V261.488V261.728ZM549.532 237.601C549.93 237.582 550.306 237.415 550.587 237.134C550.869 236.853 551.036 236.477 551.055 236.08C551.062 235.882 551.025 235.685 550.948 235.502C550.87 235.32 550.754 235.156 550.606 235.024C550.466 234.883 550.298 234.772 550.113 234.698C549.929 234.623 549.731 234.587 549.532 234.591C549.121 234.612 548.734 234.79 548.45 235.088C548.167 235.386 548.009 235.781 548.009 236.192C548.001 236.391 548.037 236.588 548.115 236.771C548.193 236.954 548.31 237.117 548.458 237.249C548.599 237.39 548.766 237.5 548.951 237.575C549.135 237.649 549.333 237.685 549.532 237.681V237.601ZM568.176 242.18C566.53 242.138 564.903 242.536 563.463 243.333C562.162 244.072 561.116 245.189 560.465 246.535V242.34H558.686V261.744H560.545V251.402C560.494 250.402 560.642 249.401 560.98 248.459C561.319 247.516 561.841 246.65 562.517 245.91C563.225 245.212 564.071 244.669 565.002 244.316C565.932 243.963 566.926 243.808 567.919 243.861C568.768 243.812 569.618 243.938 570.415 244.233C571.213 244.528 571.94 244.984 572.552 245.574C573.723 246.958 574.299 248.747 574.155 250.553V261.76H576.015V250.425C576.09 249.318 575.942 248.208 575.578 247.16C575.214 246.112 574.643 245.148 573.899 244.325C573.131 243.601 572.223 243.039 571.231 242.676C570.239 242.313 569.183 242.155 568.128 242.212L568.176 242.18ZM599.836 242.324V246.551C599.095 245.131 597.945 243.965 596.534 243.205C595.059 242.405 593.403 241.997 591.725 242.02C590.005 241.993 588.307 242.401 586.787 243.205C585.336 243.971 584.13 245.131 583.309 246.551C582.478 248.038 582.041 249.714 582.041 251.418C582.041 253.121 582.478 254.797 583.309 256.285C584.135 257.705 585.339 258.869 586.787 259.647C588.305 260.46 590.003 260.879 591.725 260.863C593.4 260.897 595.056 260.5 596.534 259.711C597.921 258.979 599.072 257.868 599.852 256.509V259.711C599.937 260.736 599.816 261.769 599.497 262.747C599.178 263.726 598.666 264.631 597.993 265.41C597.204 266.079 596.292 266.585 595.307 266.901C594.322 267.217 593.285 267.336 592.254 267.251C590.773 267.258 589.302 267.003 587.91 266.499C586.611 266.048 585.417 265.34 584.399 264.418L583.405 265.842C584.493 266.877 585.803 267.649 587.236 268.1C588.868 268.652 590.58 268.928 592.302 268.916C593.591 269.101 594.906 268.979 596.14 268.56C597.373 268.141 598.49 267.437 599.399 266.506C600.309 265.574 600.985 264.441 601.373 263.199C601.761 261.957 601.849 260.641 601.632 259.358V242.084L599.836 242.324ZM591.821 259.342C590.403 259.368 589.001 259.031 587.749 258.366C586.57 257.729 585.592 256.775 584.928 255.612C584.23 254.384 583.875 252.99 583.902 251.578C583.874 250.17 584.228 248.781 584.928 247.559C585.594 246.405 586.572 245.462 587.749 244.838C589 244.167 590.401 243.826 591.821 243.845C593.251 243.826 594.662 244.167 595.925 244.838C597.111 245.457 598.095 246.401 598.762 247.559C599.462 248.781 599.817 250.17 599.788 251.578C599.815 252.99 599.46 254.384 598.762 255.612C598.096 256.779 597.112 257.734 595.925 258.366C594.661 259.031 593.249 259.367 591.821 259.342V259.342Z" stroke="white" stroke-width="0.2" stroke-miterlimit="10"/>
<path d="M454.834 56.0334H451.404L430.468 199.049H434.78L454.834 56.0334Z" fill="white"/>
<path fill-rule="evenodd" clip-rule="evenodd" d="M277.251 56.1462H281.227V199.13H277.251V56.1462Z" fill="white"/>
<path fill-rule="evenodd" clip-rule="evenodd" d="M390.214 56.147H394.189V199.13H390.214V56.147Z" fill="white"/>
<defs>
<filter id="filter0_d_259_9484" x="195.036" y="28.8586" width="73.8701" height="175.206" filterUnits="userSpaceOnUse" color-interpolation-filters="sRGB">
<feFlood flood-opacity="0" result="BackgroundImageFix"/>
<feColorMatrix in="SourceAlpha" type="matrix" values="0 0 0 0 0 0 0 0 0 0 0 0 0 0 0 0 0 0 127 0" result="hardAlpha"/>
<feOffset dy="1"/>
<feGaussianBlur stdDeviation="2"/>
<feComposite in2="hardAlpha" operator="out"/>
<feColorMatrix type="matrix" values="0 0 0 0 1 0 0 0 0 1 0 0 0 0 1 0 0 0 0.25 0"/>
<feBlend mode="normal" in2="BackgroundImageFix" result="effect1_dropShadow_259_9484"/>
<feBlend mode="normal" in="SourceGraphic" in2="effect1_dropShadow_259_9484" result="shape"/>
</filter>
</defs>
</svg>
