<svg width="1071" height="250" viewBox="0 0 1071 250" fill="none" xmlns="http://www.w3.org/2000/svg">
<g opacity="0.2">
<path d="M2.45091 0L10.4486 0L45.1484 81.0055L79.9127 0L87.8459 0L48.1798 92L42.117 92L2.45091 0ZM0 0L7.03025 0L7.86872 51.8132L7.86872 92L0 92L0 0ZM83.3956 0L90.4258 0L90.4258 92L82.4926 92L82.4926 51.8132L83.3956 0Z" fill="#E9E9E9" fill-opacity="0.84"/>
<path d="M172.66 85.3654L172.66 92L119.837 92L119.837 85.3654L172.66 85.3654ZM122.223 0L122.223 92L114.29 92L114.29 0L122.223 0ZM166.082 41.261L166.082 47.8956L119.837 47.8956L119.837 41.261L166.082 41.261ZM172.338 0V6.6978L119.837 6.6978L119.837 0L172.338 0Z" fill="#E9E9E9" fill-opacity="0.84"/>
<path d="M191.558 0L218.002 38.8599L244.511 0L253.928 0L222.84 45.3049L254.895 92L245.414 92L218.002 51.8764L190.591 92L181.174 92L213.229 45.3049L182.142 0L191.558 0Z" fill="#E9E9E9" fill-opacity="0.84"/>
<path d="M301.204 5.49725L268.698 92L260.442 92L295.916 0L301.656 0L301.204 5.49725ZM330.744 92L298.173 5.49725L297.721 0L303.462 0L339 92L330.744 92ZM324.94 59.522V66.2198L275.083 66.2198V59.522L324.94 59.522Z" fill="#E9E9E9" fill-opacity="0.84"/>
<path d="M86.0489 240.12L86.0489 250L8.17702 250L8.17702 240.12L86.0489 240.12ZM11.695 113L11.695 250L0 250L0 113L11.695 113ZM76.3506 174.443L76.3506 184.323L8.17702 184.323L8.17702 174.443L76.3506 174.443ZM85.5735 113L85.5735 122.974L8.17702 122.974L8.17702 113L85.5735 113Z" fill="#E9E9E9" fill-opacity="0.84"/>
<path d="M122.941 113L122.941 250H111.246L111.246 113L122.941 113ZM209.655 113L148.232 185.734L118.282 185.734L117.236 175.76L141.386 175.76L195.012 113L209.655 113ZM199.291 250L140.816 184.417L147.567 174.255L213.839 250L199.291 250Z" fill="#E9E9E9" fill-opacity="0.84"/>
<path d="M280.681 121.186L232.76 250L220.589 250L272.884 113L281.347 113L280.681 121.186ZM324.228 250L276.212 121.186L275.547 113L284.009 113L336.399 250H324.228ZM315.671 201.636V211.61L242.173 211.61L242.173 201.636L315.671 201.636Z" fill="#E9E9E9" fill-opacity="0.84"/>
<path d="M390.976 113L390.976 250L379.376 250L379.376 113L390.976 113ZM438.422 113V122.974L332.025 122.974V113L438.422 113Z" fill="#E9E9E9" fill-opacity="0.84"/>
<path d="M547.005 240.12V250L469.133 250V240.12L547.005 240.12ZM472.651 113L472.651 250L460.956 250L460.956 113L472.651 113ZM537.307 174.443V184.323L469.133 184.323V174.443L537.307 174.443ZM546.529 113V122.974L469.133 122.974V113L546.529 113Z" fill="#E9E9E9" fill-opacity="0.84"/>
<path d="M618.887 194.203L579.428 194.203V184.323L618.887 184.323C627.127 184.323 633.814 183.006 638.949 180.371C644.147 177.674 647.918 174.035 650.264 169.456C652.672 164.877 653.877 159.733 653.877 154.025C653.877 148.442 652.672 143.298 650.264 138.593C647.918 133.889 644.147 130.125 638.949 127.302C633.814 124.417 627.127 122.974 618.887 122.974L583.516 122.974L583.516 250H571.821L571.821 113L618.887 113C629.029 113 637.554 114.725 644.464 118.175C651.436 121.625 656.697 126.424 660.247 132.571C663.797 138.719 665.572 145.807 665.572 153.837C665.572 162.242 663.797 169.487 660.247 175.572C656.697 181.594 651.468 186.205 644.559 189.404C637.649 192.603 629.092 194.203 618.887 194.203Z" fill="#E9E9E9" fill-opacity="0.84"/>
<path d="M703.89 229.864L782.712 113L794.407 113L794.407 250L782.712 250L782.712 132.948L703.89 250H692.195L692.195 113L703.89 113L703.89 229.864Z" fill="#E9E9E9" fill-opacity="0.84"/>
<path d="M923.338 174.443V184.323L839.191 184.323V174.443L923.338 174.443ZM841.948 113L841.948 250L830.253 250L830.253 113L841.948 113ZM932.751 113L932.751 250H921.056L921.056 113L932.751 113Z" fill="#E9E9E9" fill-opacity="0.84"/>
<path d="M1015.28 121.186L967.361 250H955.19L1007.49 113L1015.95 113L1015.28 121.186ZM1058.83 250L1010.81 121.186L1010.15 113L1018.61 113L1071 250L1058.83 250ZM1050.27 201.636V211.61L976.774 211.61V201.636L1050.27 201.636Z" fill="#E9E9E9" fill-opacity="0.84"/>
</g>
</svg>
