<svg width="191" height="318" viewBox="0 0 191 318" fill="none" xmlns="http://www.w3.org/2000/svg">
<path d="M188.702 193.556C191.566 181.267 191.753 170.494 189.264 160.637C187.467 153.53 184.585 147.788 181.946 144.29C177.736 138.698 169.595 131.272 152.958 135.986C151.03 136.528 147.886 137.725 145.809 138.791C140.625 141.428 135.703 144.683 131.174 148.498C129.621 149.789 128.105 151.192 126.533 152.744C123.595 155.643 120.844 158.785 118.355 162.077C109.522 173.786 103.458 187.028 100.314 201.43C99.9774 202.964 99.678 204.535 99.3973 206.087C98.1995 212.97 97.6194 220.265 97.6381 227.802C97.6755 237.603 98.9294 247.086 101.362 255.97C103.215 262.741 105.929 271.569 110.532 279.705C111.262 280.996 112.048 282.23 112.909 283.577L114.163 285.56C114.313 285.803 114.35 286.102 114.257 286.383C114.163 286.663 113.957 286.888 113.676 287C109.26 288.833 104.787 290.067 100.015 290.759C98.9855 290.909 97.9563 291.021 96.927 291.133C85.193 292.237 75.5551 288.608 68.2565 280.341C66.0295 277.816 64.2891 275.46 62.8855 273.122C52.8172 256.232 48.7936 237.996 50.9083 218.899C52.3493 205.919 55.4933 193.294 60.2468 181.38C61.5006 178.219 62.8668 175.133 64.2891 172.196C68.9302 162.582 74.8066 153.249 81.7683 144.458C83.1532 142.7 84.5755 140.961 86.0539 139.24C88.0189 136.958 89.6471 135.125 91.2004 133.479C98.0311 126.185 104.75 120.63 111.693 116.478C114.649 114.719 117.831 113.597 121.405 113.092C121.873 113.017 122.341 112.961 122.809 112.924C123.314 112.868 123.82 112.812 124.306 112.737C130.482 111.839 136.396 109.277 143.507 104.395C144.387 103.796 145.248 102.749 145.772 101.627C146.202 100.692 146.258 99.8874 145.884 99.3637C145.51 98.8213 144.667 98.5407 143.582 98.5968C142.759 98.6342 141.935 98.709 141.13 98.84C140.419 98.9522 139.708 99.0831 139.016 99.2327C133.27 100.505 127.619 103.254 121.218 107.855L120.021 108.716C118.804 109.595 117.588 110.492 116.315 111.278C115.23 111.951 114.069 112.55 112.722 113.092C112.591 113.186 112.46 113.279 112.366 113.298C111.711 113.504 111.038 113.635 110.383 113.747C107.145 114.214 104.02 113.41 101.082 111.371C99.9774 110.605 98.9481 109.726 98.0498 108.959C97.713 108.678 97.4697 108.341 97.2264 108.024L96.8895 107.593C96.7024 107.369 96.6275 107.088 96.6837 106.808C96.7398 106.527 96.9083 106.284 97.1516 106.134C102.223 102.955 106.565 99.1205 110.139 95.7913C120.732 85.897 130.725 74.5625 141.598 60.1045C148.392 51.0519 153.613 42.5417 157.543 34.0502C159.545 29.7296 161.978 23.9688 163.007 17.7031C163.793 12.9523 162.652 7.92102 160.5 4.3299C158.179 0.476929 151.891 -2.6466 141.13 3.37601C133.195 7.8275 126.346 13.3825 119.796 19.5735C113.208 25.8018 107.033 32.2359 101.4 38.7074C100.876 39.3059 100.127 40.0167 98.9481 40.185C98.5551 40.2411 98.1247 40.2411 97.6568 40.1663C91.9489 39.2872 85.9042 39.0067 79.691 39.3433C76.154 39.5304 72.9351 39.8483 69.8473 40.2972C66.3851 40.8022 63.1849 41.4568 60.0783 42.3172C44.6577 46.5443 30.9587 54.4373 19.3558 65.7717C10.9531 73.9827 5.30131 82.7922 2.08244 92.7238C-0.500149 100.729 -0.687293 107.967 1.55843 114.869C4.19716 123.005 8.95062 128.616 16.0808 132.002C20.2354 133.966 24.8017 135.088 29.7049 135.331C33.6349 135.518 37.7146 135.312 41.7944 134.732C45.5934 134.19 49.5608 133.274 53.547 132.039C65.7488 128.242 76.6593 122.444 85.9978 114.813C86.7089 114.233 87.3826 113.915 88.1312 113.803C88.6552 113.728 89.2166 113.766 89.8529 113.896C95.748 115.243 101.549 115.524 107.051 114.719L107.37 114.663C107.725 114.607 108.081 114.626 108.418 114.626C108.829 114.645 109.278 114.888 109.428 115.262C109.578 115.636 109.559 116.066 109.26 116.347L108.287 117.263C107.912 117.619 87.7756 133.984 79.9156 141.69C78.1377 143.43 76.3973 145.207 74.6943 146.983C71.1385 150.724 67.6389 154.689 63.9896 159.103C62.4738 160.955 60.9579 162.788 59.4982 164.677C55.4372 169.933 51.6381 175.282 48.1947 180.613C38.1076 196.23 31.4079 211.642 27.7024 227.709C24.0531 243.551 25.0637 257.841 30.7529 271.438C34.5145 280.416 39.5299 287.149 46.0613 292.012C55.5495 299.082 67.1524 301.757 81.5063 300.205C82.442 300.111 83.359 299.98 84.276 299.849C93.5771 298.503 102.953 295.454 112.928 290.535C113.508 290.254 114.088 289.992 114.724 289.712L115.641 289.3C115.735 289.263 115.828 289.225 115.941 289.207C116.315 289.151 116.708 289.3 116.951 289.618L118.112 291.264C118.935 292.443 119.721 293.546 120.545 294.65L121.967 296.52C124.063 299.288 126.234 302.131 128.479 304.843C130.856 307.686 133.364 310.529 135.797 313.279L138.828 316.701L139.109 317.019C139.352 317.3 139.577 317.58 139.82 317.749C140.082 317.936 140.326 318.029 140.569 317.992C140.831 317.954 141.093 317.786 141.299 317.506C141.467 317.3 141.523 317.206 140.943 316.514L139.933 315.298C138.024 312.979 136.04 310.585 133.981 308.341C129.06 302.935 124.737 297.044 121.143 290.853C120.807 290.254 120.488 289.637 120.208 289.076L119.871 288.402C119.646 287.954 119.777 287.411 120.208 287.131C121.611 286.177 122.996 285.26 124.362 284.344C127.319 282.38 130.108 280.528 132.784 278.508C144.462 269.699 154.998 258.589 164.973 244.524C176.856 227.728 184.641 211.044 188.702 193.556ZM80.3834 72.3367C78.119 78.1162 76.8277 83.5777 76.416 89.0205C75.9294 95.3424 77.3517 101.552 80.6454 107.5L82.1426 110.193C82.3859 110.623 82.2549 111.166 81.8432 111.465L81.3753 111.82C81.0197 112.101 80.6829 112.344 80.3273 112.569C69.6788 119.264 59.4795 123.716 49.1866 126.204C47.128 126.709 45.1068 127.101 43.198 127.363C36.9661 128.261 31.333 128.055 25.9994 126.709C12.6186 123.342 3.57959 112.157 3.50473 98.8961C3.48602 96.184 4.01002 93.3411 5.13288 89.9183C7.17275 83.746 10.4103 78.0227 15.0889 72.4303C27.6089 57.4299 43.591 47.4982 62.6048 42.9157C65.4494 42.2237 68.3501 41.6813 71.2134 41.2511C79.0547 40.1102 87.1206 39.9793 95.224 40.8583C95.6357 40.8957 96.0287 40.9706 96.5527 41.0641L97.5071 41.2324C97.8627 41.2885 98.1621 41.5317 98.2931 41.8496C98.4241 42.1676 98.368 42.5417 98.1621 42.8222L96.7773 44.6365L96.4404 45.0854C88.8985 54.8861 83.8082 63.546 80.3834 72.3367ZM95.0555 103.348C94.9058 103.366 94.7374 103.366 94.5877 103.31C94.2695 103.217 94.0262 102.973 93.9327 102.674L93.3525 101.01C92.9595 99.9061 92.6039 98.8774 92.3045 97.83C90.1711 90.3672 90.2272 82.6051 92.4917 74.0949C95.1678 64.0323 99.3973 54.325 105.423 44.3933C105.554 44.1876 105.685 44.0006 105.854 43.7574L106.116 43.3833C106.284 43.1402 106.546 42.9906 106.827 42.9532C106.958 42.9344 107.089 42.9344 107.201 42.9719C112.703 44.1689 118.28 45.8522 124.25 48.1528C125.111 48.4895 125.99 48.77 126.87 49.0693L127.057 49.1067C127.132 49.088 127.207 48.9758 127.263 48.8822C127.357 48.6952 127.357 48.5643 127.338 48.5269C126.084 47.9471 124.98 47.4982 123.857 47.1241C121.331 46.2637 118.804 45.4221 116.278 44.5804L110.701 42.71C110.27 42.5604 109.84 42.392 109.409 42.2237L108.848 41.9993C108.361 41.8122 108.099 41.2885 108.249 40.8022C108.343 40.3907 108.399 40.185 108.549 39.9606C114.35 31.4503 122.341 20.5086 132.709 11.4934C137.874 7.00454 142.646 4.19898 147.737 2.60916C148.523 2.36601 149.402 2.17897 150.3 2.04804C151.217 1.91712 152.209 1.8423 153.201 1.8236C156.046 1.78619 158.385 3.24508 159.601 5.8262C160.406 7.52824 160.986 9.34251 161.286 11.0633C162.128 15.8327 161.492 20.7331 159.283 26.9614C156.869 33.7135 153.501 40.4281 148.972 47.4795C140.681 60.4038 130.295 72.7482 117.232 85.1862C110.551 91.5455 104.151 96.9509 97.6194 101.702C97.2264 102.001 96.8147 102.263 96.3094 102.599L95.5047 103.142C95.3737 103.254 95.2052 103.31 95.0555 103.348ZM155.821 254.306C148.466 263.377 141.112 270.522 133.383 276.114C130.706 278.041 127.843 279.799 125.073 281.501L123.595 282.399C122.641 282.978 121.667 283.465 120.545 284.007C120.021 284.269 119.459 284.531 118.86 284.83C118.748 284.886 118.636 284.924 118.523 284.942C118.374 284.961 118.205 284.961 118.056 284.905C117.794 284.83 117.569 284.643 117.457 284.4L116.689 282.922C116.184 281.95 115.716 281.089 115.304 280.192C110.532 269.867 107.856 258.607 107.37 246.749C106.247 219.535 110.85 195.258 121.424 172.551C123.015 169.147 124.718 165.93 126.533 162.975C127.787 160.918 129.247 158.785 130.987 156.504L131.474 155.849C131.829 155.363 132.204 154.876 132.578 154.409C138.903 146.74 146.202 141.802 154.904 139.296C156.121 138.941 157.337 138.679 158.535 138.511C160.013 138.305 161.51 138.211 162.989 138.267C165.702 138.361 168.248 138.903 170.568 139.913C173.525 141.204 176.276 143.205 178.728 145.899C183.088 150.705 185.128 156.56 186.4 161.123C189.095 170.756 189.039 181.062 186.251 193.574C181.46 215.121 171.504 234.985 155.821 254.306Z" fill="#F7F7F7" fill-opacity="0.37"/>
</svg>
